Giphurs-ThinItalic.ufo
<glyph name="exclam" format="2">
  <advance width="488"/>
  <unicode hex="0021"/>
  <outline>
    <contour>
      <point x="60" y="54" type="curve" smooth="yes"/>
      <point x="66" y="90"/>
      <point x="99" y="118"/>
      <point x="135" y="118" type="curve" smooth="yes"/>
      <point x="171" y="118"/>
      <point x="194" y="90"/>
      <point x="188" y="54" type="curve" smooth="yes"/>
      <point x="182" y="18"/>
      <point x="149" y="-10"/>
      <point x="113" y="-10" type="curve" smooth="yes"/>
      <point x="77" y="-10"/>
      <point x="54" y="18"/>
    </contour>
    <contour>
      <point x="348" y="1480" type="line"/>
      <point x="402" y="1480" type="line"/>
      <point x="217" y="452" type="line"/>
      <point x="171" y="452" type="line"/>
    </contour>
  </outline>
</glyph>
<glyph name="quotedbl" format="2">
  <advance width="612"/>
  <unicode hex="0022"/>
  <outline>
    <contour>
      <point x="344" y="968" type="line"/>
      <point x="431" y="1480" type="line"/>
      <point x="477" y="1480" type="line"/>
      <point x="384" y="968" type="line"/>
    </contour>
    <contour>
      <point x="138" y="968" type="line"/>
      <point x="225" y="1480" type="line"/>
      <point x="271" y="1480" type="line"/>
      <point x="178" y="968" type="line"/>
    </contour>
  </outline>
</glyph>
<glyph name="numbersign" format="2">
  <advance width="1432"/>
  <unicode hex="0023"/>
  <outline>
    <contour>
      <point x="268" y="500" type="line"/>
      <point x="275" y="540" type="line"/>
      <point x="1313" y="540" type="line"/>
      <point x="1306" y="500" type="line"/>
    </contour>
    <contour>
      <point x="380" y="940" type="line"/>
      <point x="387" y="980" type="line"/>
      <point x="1425" y="980" type="line"/>
      <point x="1418" y="940" type="line"/>
    </contour>
    <contour>
      <point x="1246" y="1480" type="line"/>
      <point x="1287" y="1480" type="line"/>
      <point x="856" y="0" type="line"/>
      <point x="806" y="0"/>
      <point x="864" y="0"/>
      <point x="814" y="0" type="curve"/>
    </contour>
    <contour>
      <point x="837" y="1480" type="line"/>
      <point x="879" y="1480" type="line"/>
      <point x="447" y="0" type="line"/>
      <point x="397" y="0"/>
      <point x="456" y="0"/>
      <point x="406" y="0" type="curve"/>
    </contour>
  </outline>
</glyph>
<glyph name="dollar" format="2">
  <advance width="1175"/>
  <unicode hex="0024"/>
  <outline>
    <contour>
      <point x="368" y="1044" type="curve" smooth="yes"/>
      <point x="368" y="1065"/>
      <point x="374" y="1490"/>
      <point x="849" y="1490" type="curve" smooth="yes"/>
      <point x="1082" y="1490"/>
      <point x="1214" y="1377"/>
      <point x="1214" y="1184" type="curve" smooth="yes"/>
      <point x="1214" y="1160"/>
      <point x="1212" y="1135"/>
      <point x="1208" y="1109" type="curve"/>
      <point x="1159" y="1096" type="line"/>
      <point x="1164" y="1124"/>
      <point x="1167" y="1150"/>
      <point x="1167" y="1175" type="curve" smooth="yes"/>
      <point x="1167" y="1356"/>
      <point x="1039" y="1448"/>
      <point x="841" y="1448" type="curve" smooth="yes"/>
      <point x="529" y="1448"/>
      <point x="415" y="1228"/>
      <point x="415" y="1061" type="curve" smooth="yes"/>
      <point x="415" y="884"/>
      <point x="561" y="822"/>
      <point x="719" y="769" type="curve" smooth="yes"/>
      <point x="904" y="706"/>
      <point x="1105" y="654"/>
      <point x="1105" y="436" type="curve" smooth="yes"/>
      <point x="1105" y="338"/>
      <point x="1071" y="-10"/>
      <point x="584" y="-10" type="curve" smooth="yes"/>
      <point x="349" y="-10"/>
      <point x="202" y="114"/>
      <point x="202" y="313" type="curve" smooth="yes"/>
      <point x="202" y="335"/>
      <point x="203" y="357"/>
      <point x="207" y="381" type="curve"/>
      <point x="255" y="394" type="line"/>
      <point x="250" y="368"/>
      <point x="249" y="344"/>
      <point x="249" y="321" type="curve" smooth="yes"/>
      <point x="249" y="134"/>
      <point x="392" y="32"/>
      <point x="592" y="32" type="curve" smooth="yes"/>
      <point x="649" y="32"/>
      <point x="1058" y="45"/>
      <point x="1058" y="424" type="curve" smooth="yes"/>
      <point x="1058" y="613"/>
      <point x="885" y="666"/>
      <point x="712" y="723" type="curve" smooth="yes"/>
      <point x="540" y="780"/>
      <point x="368" y="841"/>
    </contour>
    <contour>
      <point x="902" y="1660" type="line"/>
      <point x="577" y="-180" type="line"/>
      <point x="531" y="-180" type="line"/>
      <point x="856" y="1660" type="line"/>
    </contour>
  </outline>
</glyph>
<glyph name="percent" format="2">
  <advance width="1566"/>
  <unicode hex="0025"/>
  <outline>
    <contour>
      <point x="263" y="1180" type="curve" smooth="yes"/>
      <point x="236" y="1025"/>
      <point x="325" y="910"/>
      <point x="480" y="910" type="curve" smooth="yes"/>
      <point x="635" y="910"/>
      <point x="766" y="1025"/>
      <point x="793" y="1180" type="curve" smooth="yes"/>
      <point x="820" y="1335"/>
      <point x="730" y="1450"/>
      <point x="575" y="1450" type="curve" smooth="yes"/>
      <point x="420" y="1450"/>
      <point x="290" y="1335"/>
    </contour>
    <contour>
      <point x="218" y="1180" type="curve" smooth="yes"/>
      <point x="249" y="1358"/>
      <point x="404" y="1490"/>
      <point x="582" y="1490" type="curve" smooth="yes"/>
      <point x="760" y="1490"/>
      <point x="869" y="1358"/>
      <point x="838" y="1180" type="curve" smooth="yes"/>
      <point x="807" y="1002"/>
      <point x="651" y="870"/>
      <point x="473" y="870" type="curve" smooth="yes"/>
      <point x="295" y="870"/>
      <point x="187" y="1002"/>
    </contour>
    <contour>
      <point x="813" y="300" type="curve" smooth="yes"/>
      <point x="786" y="145"/>
      <point x="876" y="30"/>
      <point x="1031" y="30" type="curve" smooth="yes"/>
      <point x="1186" y="30"/>
      <point x="1316" y="145"/>
      <point x="1343" y="300" type="curve" smooth="yes"/>
      <point x="1370" y="455"/>
      <point x="1281" y="570"/>
      <point x="1126" y="570" type="curve" smooth="yes"/>
      <point x="971" y="570"/>
      <point x="840" y="455"/>
    </contour>
    <contour>
      <point x="768" y="300" type="curve" smooth="yes"/>
      <point x="799" y="478"/>
      <point x="955" y="610"/>
      <point x="1133" y="610" type="curve" smooth="yes"/>
      <point x="1311" y="610"/>
      <point x="1419" y="478"/>
      <point x="1388" y="300" type="curve" smooth="yes"/>
      <point x="1357" y="122"/>
      <point x="1202" y="-10"/>
      <point x="1024" y="-10" type="curve" smooth="yes"/>
      <point x="846" y="-10"/>
      <point x="737" y="122"/>
    </contour>
    <contour>
      <point x="1411" y="1457" type="line"/>
      <point x="228" y="0" type="line"/>
      <point x="195" y="23" type="line"/>
      <point x="1378" y="1480" type="line"/>
    </contour>
  </outline>
</glyph>
<glyph name="ampersand" format="2">
  <advance width="1435"/>
  <unicode hex="0026"/>
  <outline>
    <contour>
      <point x="473" y="875" type="line"/>
      <point x="432" y="937"/>
      <point x="373" y="1032"/>
      <point x="392" y="1138" type="curve" smooth="yes"/>
      <point x="431" y="1357"/>
      <point x="595" y="1490"/>
      <point x="781" y="1490" type="curve" smooth="yes"/>
      <point x="967" y="1490"/>
      <point x="1088" y="1372"/>
      <point x="1053" y="1172" type="curve"/>
      <point x="1008" y="1172" type="line"/>
      <point x="1049" y="1402"/>
      <point x="880" y="1450"/>
      <point x="774" y="1450" type="curve" smooth="yes"/>
      <point x="679" y="1450"/>
      <point x="483" y="1398"/>
      <point x="437" y="1138" type="curve" smooth="yes"/>
      <point x="425" y="1068"/>
      <point x="446" y="995"/>
      <point x="507" y="903" type="curve"/>
      <point x="1096" y="0" type="line"/>
      <point x="1064" y="0"/>
      <point x="1074" y="0"/>
      <point x="1042" y="0" type="curve"/>
    </contour>
    <contour>
      <point x="185" y="378" type="curve"/>
      <point x="143" y="142"/>
      <point x="307" y="32"/>
      <point x="524" y="32" type="curve" smooth="yes"/>
      <point x="734" y="32"/>
      <point x="1021" y="163"/>
      <point x="1096" y="586" type="curve"/>
      <point x="1140" y="573" type="line"/>
      <point x="1072" y="185"/>
      <point x="778" y="-10"/>
      <point x="517" y="-10" type="curve" smooth="yes"/>
      <point x="253" y="-10"/>
      <point x="102" y="135"/>
      <point x="145" y="378" type="curve" smooth="yes"/>
      <point x="188" y="621"/>
      <point x="384" y="708"/>
      <point x="670" y="858" type="curve" smooth="yes"/>
      <point x="827" y="940"/>
      <point x="982" y="1022"/>
      <point x="1008" y="1172" type="curve"/>
      <point x="1053" y="1172" type="line"/>
      <point x="1025" y="1012"/>
      <point x="862" y="913"/>
      <point x="661" y="808" type="curve" smooth="yes"/>
      <point x="394" y="668"/>
      <point x="224" y="601"/>
    </contour>
  </outline>
</glyph>
<glyph name="quotesingle" format="2">
  <advance width="406"/>
  <unicode hex="0027"/>
  <outline>
    <contour>
      <point x="138" y="968" type="line"/>
      <point x="225" y="1480" type="line"/>
      <point x="271" y="1480" type="line"/>
      <point x="178" y="968" type="line"/>
    </contour>
  </outline>
</glyph>
<glyph name="parenleft" format="2">
  <advance width="801"/>
  <unicode hex="0028"/>
  <outline>
    <contour>
      <point x="180" y="660" type="curve" smooth="yes"/>
      <point x="293" y="1301"/>
      <point x="722" y="1605"/>
      <point x="864" y="1660" type="curve"/>
      <point x="880" y="1625" type="line"/>
      <point x="731" y="1568"/>
      <point x="331" y="1261"/>
      <point x="225" y="660" type="curve" smooth="yes"/>
      <point x="119" y="60"/>
      <point x="412" y="-249"/>
      <point x="541" y="-306" type="curve"/>
      <point x="513" y="-341" type="line"/>
      <point x="391" y="-286"/>
      <point x="67" y="20"/>
    </contour>
  </outline>
</glyph>
<glyph name="parenright" format="2">
  <advance width="801"/>
  <unicode hex="0029"/>
  <outline>
    <contour>
      <point x="-94" y="-306" type="line"/>
      <point x="155" y="-211"/>
      <point x="585" y="264"/>
      <point x="585" y="909" type="curve" smooth="yes"/>
      <point x="585" y="1347"/>
      <point x="358" y="1576"/>
      <point x="248" y="1625" type="curve"/>
      <point x="276" y="1660" type="line"/>
      <point x="381" y="1613"/>
      <point x="631" y="1384"/>
      <point x="631" y="918" type="curve" smooth="yes"/>
      <point x="631" y="248"/>
      <point x="186" y="-239"/>
      <point x="-78" y="-341" type="curve"/>
    </contour>
  </outline>
</glyph>
<glyph name="asterisk" format="2">
  <advance width="1074"/>
  <unicode hex="002A"/>
  <outline>
    <contour>
      <point x="153" y="1210" type="line"/>
      <point x="174" y="1254" type="line"/>
      <point x="541" y="1125" type="line"/>
      <point x="531" y="1106" type="line"/>
      <point x="522" y="1087" type="line"/>
    </contour>
    <contour>
      <point x="249" y="760" type="line"/>
      <point x="216" y="787" type="line"/>
      <point x="517" y="1117" type="line"/>
      <point x="531" y="1106" type="line"/>
      <point x="546" y="1094" type="line"/>
    </contour>
    <contour>
      <point x="734" y="787" type="line"/>
      <point x="691" y="760" type="line"/>
      <point x="512" y="1094" type="line"/>
      <point x="531" y="1106" type="line"/>
      <point x="549" y="1117" type="line"/>
    </contour>
    <contour>
      <point x="940" y="1254" type="line"/>
      <point x="947" y="1210" type="line"/>
      <point x="534" y="1087" type="line"/>
      <point x="531" y="1106" type="line"/>
      <point x="529" y="1125" type="line"/>
    </contour>
    <contour>
      <point x="581" y="1516" type="line"/>
      <point x="627" y="1516" type="line"/>
      <point x="551" y="1106" type="line"/>
      <point x="531" y="1106" type="line"/>
      <point x="511" y="1106" type="line"/>
    </contour>
  </outline>
</glyph>
<glyph name="plus" format="2">
  <advance width="1232"/>
  <unicode hex="002B"/>
  <outline>
    <contour>
      <point x="671" y="1096" type="line"/>
      <point x="715" y="1096" type="line"/>
      <point x="561" y="224" type="line"/>
      <point x="517" y="224" type="line"/>
    </contour>
    <contour>
      <point x="176" y="640" type="line"/>
      <point x="184" y="680" type="line"/>
      <point x="1056" y="680" type="line"/>
      <point x="1048" y="640" type="line"/>
    </contour>
  </outline>
</glyph>
<glyph name="comma" format="2">
  <advance width="500"/>
  <unicode hex="002C"/>
  <outline>
    <contour>
      <point x="189" y="54" type="curve" smooth="yes"/>
      <point x="189" y="90"/>
      <point x="217" y="118"/>
      <point x="253" y="118" type="curve" smooth="yes"/>
      <point x="269" y="118"/>
      <point x="317" y="80"/>
      <point x="317" y="54" type="curve" smooth="yes"/>
      <point x="317" y="18"/>
      <point x="289" y="-10"/>
      <point x="253" y="-10" type="curve" smooth="yes"/>
      <point x="217" y="-10"/>
      <point x="189" y="18"/>
    </contour>
    <contour>
      <point x="132" y="-204" type="line"/>
      <point x="189" y="-189"/>
      <point x="279" y="-118"/>
      <point x="281" y="-11" type="curve" smooth="yes"/>
      <point x="281" y="48"/>
      <point x="245" y="73"/>
      <point x="245" y="73" type="curve"/>
      <point x="253" y="118" type="line"/>
      <point x="303" y="118"/>
      <point x="328" y="66"/>
      <point x="328" y="4" type="curve" smooth="yes"/>
      <point x="328" y="-134"/>
      <point x="218" y="-222"/>
      <point x="137" y="-246" type="curve"/>
    </contour>
  </outline>
</glyph>
<glyph name="hyphen" format="2">
  <advance width="1018"/>
  <unicode hex="002D"/>
  <outline>
    <contour>
      <point x="293" y="640" type="line"/>
      <point x="300" y="680" type="line"/>
      <point x="958" y="680" type="line"/>
      <point x="951" y="640" type="line"/>
    </contour>
  </outline>
</glyph>
<glyph name="period" format="2">
  <advance width="500"/>
  <unicode hex="002E"/>
  <outline>
    <contour>
      <point x="196" y="54" type="curve" smooth="yes"/>
      <point x="196" y="90"/>
      <point x="224" y="118"/>
      <point x="260" y="118" type="curve" smooth="yes"/>
      <point x="296" y="118"/>
      <point x="324" y="90"/>
      <point x="324" y="54" type="curve" smooth="yes"/>
      <point x="324" y="18"/>
      <point x="296" y="-10"/>
      <point x="260" y="-10" type="curve" smooth="yes"/>
      <point x="224" y="-10"/>
      <point x="196" y="18"/>
    </contour>
  </outline>
</glyph>
<glyph name="slash" format="2">
  <advance width="862"/>
  <unicode hex="002F"/>
  <outline>
    <contour>
      <point x="934" y="1640" type="line"/>
      <point x="-24" y="-200" type="line"/>
      <point x="-72" y="-200" type="line"/>
      <point x="886" y="1640" type="line"/>
    </contour>
  </outline>
</glyph>
<glyph name="zero" format="2">
  <advance width="1232"/>
  <unicode hex="0030"/>
  <outline>
    <contour>
      <point x="202" y="740" type="curve" smooth="yes"/>
      <point x="120" y="274"/>
      <point x="251" y="32"/>
      <point x="491" y="32" type="curve" smooth="yes"/>
      <point x="731" y="32"/>
      <point x="948" y="274"/>
      <point x="1030" y="740" type="curve" smooth="yes"/>
      <point x="1112" y="1206"/>
      <point x="981" y="1448"/>
      <point x="741" y="1448" type="curve" smooth="yes"/>
      <point x="501" y="1448"/>
      <point x="284" y="1206"/>
    </contour>
    <contour>
      <point x="156" y="740" type="curve" smooth="yes"/>
      <point x="244" y="1240"/>
      <point x="484" y="1490"/>
      <point x="748" y="1490" type="curve" smooth="yes"/>
      <point x="1012" y="1490"/>
      <point x="1164" y="1240"/>
      <point x="1076" y="740" type="curve" smooth="yes"/>
      <point x="988" y="240"/>
      <point x="748" y="-10"/>
      <point x="484" y="-10" type="curve" smooth="yes"/>
      <point x="220" y="-10"/>
      <point x="68" y="240"/>
    </contour>
  </outline>
</glyph>
<glyph name="one" format="2">
  <advance width="1232"/>
  <unicode hex="0031"/>
  <outline>
    <contour>
      <point x="738" y="1084" type="line"/>
      <point x="403" y="1084" type="line"/>
      <point x="410" y="1126" type="line"/>
      <point x="554" y="1126" type="line" smooth="yes"/>
      <point x="721" y="1126"/>
      <point x="750" y="1154"/>
      <point x="782" y="1336" type="curve" smooth="yes"/>
      <point x="807" y="1480" type="line"/>
      <point x="853" y="1480" type="line"/>
      <point x="776" y="1040" type="line"/>
      <point x="593" y="0" type="line"/>
      <point x="547" y="0" type="line"/>
    </contour>
  </outline>
</glyph>
<glyph name="two" format="2">
  <advance width="1232"/>
  <unicode hex="0032"/>
  <outline>
    <contour>
      <point x="741" y="1448" type="curve" smooth="yes"/>
      <point x="504" y="1447"/>
      <point x="318" y="1253"/>
      <point x="278" y="987" type="curve"/>
      <point x="233" y="1000" type="line"/>
      <point x="286" y="1300"/>
      <point x="503" y="1490"/>
      <point x="749" y="1490" type="curve" smooth="yes"/>
      <point x="964" y="1490"/>
      <point x="1108" y="1361"/>
      <point x="1108" y="1141" type="curve" smooth="yes"/>
      <point x="1108" y="1109"/>
      <point x="1104" y="1075"/>
      <point x="1098" y="1040" type="curve"/>
      <point x="1052" y="1040" type="line"/>
      <point x="1058" y="1071"/>
      <point x="1061" y="1101"/>
      <point x="1061" y="1130" type="curve" smooth="yes"/>
      <point x="1061" y="1321"/>
      <point x="941" y="1448"/>
    </contour>
    <contour>
      <point x="50" y="0" type="line"/>
      <point x="70" y="116"/>
      <point x="107" y="303"/>
      <point x="584" y="553" type="curve" smooth="yes"/>
      <point x="889" y="713"/>
      <point x="1014" y="824"/>
      <point x="1052" y="1040" type="curve"/>
      <point x="1098" y="1040" type="line"/>
      <point x="1061" y="764"/>
      <point x="811" y="631"/>
      <point x="569" y="495" type="curve" smooth="yes"/>
      <point x="346" y="370"/>
      <point x="131" y="242"/>
      <point x="96" y="0" type="curve"/>
    </contour>
    <contour>
      <point x="77" y="42" type="line"/>
      <point x="929" y="42" type="line"/>
      <point x="922" y="0" type="line"/>
      <point x="96" y="0" type="line"/>
    </contour>
  </outline>
</glyph>
<glyph name="three" format="2">
  <advance width="1232"/>
  <unicode hex="0033"/>
  <outline>
    <contour>
      <point x="623" y="796" type="line" smooth="yes"/>
      <point x="823" y="796"/>
      <point x="999" y="927"/>
      <point x="1033" y="1122" type="curve" smooth="yes"/>
      <point x="1069" y="1327"/>
      <point x="938" y="1448"/>
      <point x="738" y="1448" type="curve" smooth="yes"/>
      <point x="513" y="1448"/>
      <point x="335" y="1319"/>
      <point x="294" y="1086" type="curve"/>
      <point x="250" y="1099" type="line"/>
      <point x="297" y="1337"/>
      <point x="484" y="1490"/>
      <point x="745" y="1490" type="curve" smooth="yes"/>
      <point x="987" y="1490"/>
      <point x="1119" y="1349"/>
      <point x="1080" y="1126" type="curve" smooth="yes"/>
      <point x="1041" y="903"/>
      <point x="868" y="790"/>
      <point x="757" y="776" type="curve"/>
      <point x="867" y="752"/>
      <point x="1045" y="633"/>
      <point x="1002" y="390" type="curve" smooth="yes"/>
      <point x="959" y="147"/>
      <point x="745" y="-10"/>
      <point x="481" y="-10" type="curve" smooth="yes"/>
      <point x="220" y="-10"/>
      <point x="68" y="143"/>
      <point x="105" y="381" type="curve"/>
      <point x="153" y="394" type="line"/>
      <point x="112" y="161"/>
      <point x="263" y="32"/>
      <point x="488" y="32" type="curve" smooth="yes"/>
      <point x="713" y="32"/>
      <point x="916" y="161"/>
      <point x="957" y="394" type="curve" smooth="yes"/>
      <point x="998" y="627"/>
      <point x="802" y="756"/>
      <point x="616" y="756" type="curve" smooth="yes"/>
      <point x="532" y="756" type="line"/>
      <point x="539" y="796" type="line"/>
    </contour>
  </outline>
</glyph>
<glyph name="four" format="2">
  <advance width="1232"/>
  <unicode hex="0034"/>
  <outline>
    <contour>
      <point x="128" y="425" type="line"/>
      <point x="792" y="1480" type="line"/>
      <point x="844" y="1480" type="line"/>
      <point x="176" y="425" type="line"/>
      <point x="700" y="425" type="line"/>
      <point x="768" y="808" type="line"/>
      <point x="814" y="808" type="line"/>
      <point x="746" y="425" type="line"/>
      <point x="992" y="425" type="line"/>
      <point x="985" y="383" type="line"/>
      <point x="739" y="383" type="line"/>
      <point x="672" y="0" type="line"/>
      <point x="626" y="0" type="line"/>
      <point x="693" y="383" type="line"/>
      <point x="121" y="383" type="line"/>
    </contour>
  </outline>
</glyph>
<glyph name="five" format="2">
  <advance width="1232"/>
  <unicode hex="0035"/>
  <outline>
    <contour>
      <point x="234" y="706" type="curve"/>
      <point x="198" y="718" type="line"/>
      <point x="298" y="877"/>
      <point x="430" y="976"/>
      <point x="655" y="976" type="curve" smooth="yes"/>
      <point x="902" y="976"/>
      <point x="1072" y="774"/>
      <point x="1021" y="483" type="curve" smooth="yes"/>
      <point x="970" y="192"/>
      <point x="743" y="-10"/>
      <point x="482" y="-10" type="curve" smooth="yes"/>
      <point x="221" y="-10"/>
      <point x="68" y="143"/>
      <point x="105" y="381" type="curve"/>
      <point x="153" y="394" type="line"/>
      <point x="112" y="161"/>
      <point x="264" y="32"/>
      <point x="489" y="32" type="curve" smooth="yes"/>
      <point x="746" y="32"/>
      <point x="932" y="251"/>
      <point x="973" y="483" type="curve" smooth="yes"/>
      <point x="1014" y="715"/>
      <point x="895" y="934"/>
      <point x="648" y="934" type="curve" smooth="yes"/>
      <point x="401" y="934"/>
      <point x="304" y="797"/>
    </contour>
    <contour>
      <point x="246" y="751" type="line"/>
      <point x="198" y="718" type="line"/>
      <point x="192" y="720" type="line"/>
      <point x="434" y="1480" type="line"/>
      <point x="484" y="1480"/>
      <point x="429" y="1480"/>
      <point x="479" y="1480" type="curve"/>
    </contour>
    <contour>
      <point x="444" y="1438" type="line"/>
      <point x="479" y="1480" type="line"/>
      <point x="1136" y="1480" type="line"/>
      <point x="1129" y="1438" type="line"/>
    </contour>
  </outline>
</glyph>
<glyph name="six" format="2">
  <advance width="1232"/>
  <unicode hex="0036"/>
  <outline>
    <contour>
      <point x="845" y="1490" type="curve" smooth="yes"/>
      <point x="1080" y="1490"/>
      <point x="1153" y="1360"/>
      <point x="1153" y="1360" type="curve"/>
      <point x="1125" y="1322" type="line"/>
      <point x="1125" y="1322"/>
      <point x="1054" y="1448"/>
      <point x="822" y="1448" type="curve" smooth="yes"/>
      <point x="566" y="1448"/>
      <point x="276" y="1206"/>
      <point x="188" y="706" type="curve" smooth="yes"/>
      <point x="119" y="316"/>
      <point x="205" y="222"/>
      <point x="205" y="222" type="curve"/>
      <point x="152" y="227" type="line"/>
      <point x="152" y="227"/>
      <point x="82" y="366"/>
      <point x="142" y="706" type="curve" smooth="yes"/>
      <point x="234" y="1226"/>
      <point x="528" y="1490"/>
    </contour>
    <contour>
      <point x="181" y="483" type="curve" smooth="yes"/>
      <point x="140" y="251"/>
      <point x="250" y="32"/>
      <point x="507" y="32" type="curve" smooth="yes"/>
      <point x="764" y="32"/>
      <point x="952" y="251"/>
      <point x="993" y="483" type="curve" smooth="yes"/>
      <point x="1034" y="715"/>
      <point x="913" y="934"/>
      <point x="666" y="934" type="curve" smooth="yes"/>
      <point x="419" y="934"/>
      <point x="222" y="715"/>
    </contour>
    <contour>
      <point x="135" y="483" type="curve"/>
      <point x="145" y="483" type="line"/>
      <point x="196" y="774"/>
      <point x="427" y="976"/>
      <point x="674" y="976" type="curve" smooth="yes"/>
      <point x="921" y="976"/>
      <point x="1090" y="774"/>
      <point x="1039" y="483" type="curve" smooth="yes"/>
      <point x="988" y="192"/>
      <point x="747" y="-10"/>
      <point x="500" y="-10" type="curve" smooth="yes"/>
      <point x="253" y="-10"/>
      <point x="84" y="192"/>
    </contour>
  </outline>
</glyph>
<glyph name="seven" format="2">
  <advance width="1232"/>
  <unicode hex="0037"/>
  <outline>
    <contour>
      <point x="1111" y="1438" type="curve"/>
      <point x="1172" y="1442" type="line"/>
      <point x="1172" y="1442"/>
      <point x="579" y="837"/>
      <point x="367" y="0" type="curve"/>
      <point x="315" y="0"/>
      <point x="373" y="0"/>
      <point x="321" y="0" type="curve"/>
      <point x="531" y="840"/>
      <point x="1111" y="1438"/>
    </contour>
    <contour>
      <point x="307" y="1438" type="line"/>
      <point x="314" y="1480" type="line"/>
      <point x="1178" y="1480" type="line"/>
      <point x="1172" y="1442" type="line"/>
      <point x="1141" y="1438" type="line"/>
    </contour>
  </outline>
</glyph>
<glyph name="eight" format="2">
  <advance width="1232"/>
  <unicode hex="0038"/>
  <outline>
    <contour>
      <point x="484" y="-10" type="curve" smooth="yes"/>
      <point x="773" y="-10"/>
      <point x="1013" y="169"/>
      <point x="1013" y="471" type="curve" smooth="yes"/>
      <point x="1013" y="668"/>
      <point x="869" y="792"/>
      <point x="626" y="792" type="curve" smooth="yes"/>
      <point x="328" y="792"/>
      <point x="97" y="615"/>
      <point x="97" y="315" type="curve" smooth="yes"/>
      <point x="97" y="116"/>
      <point x="249" y="-10"/>
    </contour>
    <contour>
      <point x="145" y="331" type="curve" smooth="yes"/>
      <point x="145" y="601"/>
      <point x="375" y="754"/>
      <point x="619" y="754" type="curve" smooth="yes"/>
      <point x="821" y="754"/>
      <point x="967" y="643"/>
      <point x="967" y="462" type="curve" smooth="yes"/>
      <point x="967" y="193"/>
      <point x="736" y="32"/>
      <point x="492" y="32" type="curve" smooth="yes"/>
      <point x="290" y="32"/>
      <point x="145" y="148"/>
    </contour>
    <contour>
      <point x="620" y="760" type="curve" smooth="yes"/>
      <point x="905" y="760"/>
      <point x="1102" y="924"/>
      <point x="1102" y="1195" type="curve" smooth="yes"/>
      <point x="1102" y="1375"/>
      <point x="965" y="1490"/>
      <point x="749" y="1490" type="curve" smooth="yes"/>
      <point x="483" y="1490"/>
      <point x="267" y="1326"/>
      <point x="267" y="1050" type="curve" smooth="yes"/>
      <point x="267" y="874"/>
      <point x="390" y="760"/>
    </contour>
    <contour>
      <point x="314" y="1064" type="curve" smooth="yes"/>
      <point x="314" y="1309"/>
      <point x="524" y="1448"/>
      <point x="741" y="1448" type="curve" smooth="yes"/>
      <point x="920" y="1448"/>
      <point x="1055" y="1349"/>
      <point x="1055" y="1183" type="curve" smooth="yes"/>
      <point x="1055" y="938"/>
      <point x="844" y="798"/>
      <point x="627" y="798" type="curve" smooth="yes"/>
      <point x="448" y="798"/>
      <point x="314" y="898"/>
    </contour>
  </outline>
</glyph>
<glyph name="nine" format="2">
  <advance width="1232"/>
  <unicode hex="0039"/>
  <outline>
    <contour>
      <point x="387" y="-10" type="curve" smooth="yes"/>
      <point x="152" y="-10"/>
      <point x="79" y="120"/>
      <point x="79" y="120" type="curve"/>
      <point x="107" y="158" type="line"/>
      <point x="107" y="158"/>
      <point x="178" y="32"/>
      <point x="410" y="32" type="curve" smooth="yes"/>
      <point x="666" y="32"/>
      <point x="956" y="274"/>
      <point x="1044" y="774" type="curve" smooth="yes"/>
      <point x="1113" y="1164"/>
      <point x="1027" y="1258"/>
      <point x="1027" y="1258" type="curve"/>
      <point x="1080" y="1253" type="line"/>
      <point x="1080" y="1253"/>
      <point x="1150" y="1114"/>
      <point x="1090" y="774" type="curve" smooth="yes"/>
      <point x="998" y="254"/>
      <point x="704" y="-10"/>
    </contour>
    <contour>
      <point x="1051" y="997" type="curve" smooth="yes"/>
      <point x="1092" y="1229"/>
      <point x="982" y="1448"/>
      <point x="725" y="1448" type="curve" smooth="yes"/>
      <point x="468" y="1448"/>
      <point x="280" y="1229"/>
      <point x="239" y="997" type="curve" smooth="yes"/>
      <point x="198" y="765"/>
      <point x="319" y="546"/>
      <point x="566" y="546" type="curve" smooth="yes"/>
      <point x="813" y="546"/>
      <point x="1010" y="765"/>
    </contour>
    <contour>
      <point x="1097" y="997" type="curve"/>
      <point x="1087" y="997" type="line"/>
      <point x="1036" y="706"/>
      <point x="805" y="504"/>
      <point x="558" y="504" type="curve" smooth="yes"/>
      <point x="311" y="504"/>
      <point x="142" y="706"/>
      <point x="193" y="997" type="curve" smooth="yes"/>
      <point x="244" y="1288"/>
      <point x="485" y="1490"/>
      <point x="732" y="1490" type="curve" smooth="yes"/>
      <point x="979" y="1490"/>
      <point x="1148" y="1288"/>
    </contour>
  </outline>
</glyph>
<glyph name="colon" format="2">
  <advance width="500"/>
  <unicode hex="003A"/>
  <outline>
    <contour>
      <point x="220" y="930" type="curve" smooth="yes"/>
      <point x="220" y="966"/>
      <point x="248" y="994"/>
      <point x="284" y="994" type="curve" smooth="yes"/>
      <point x="320" y="994"/>
      <point x="348" y="966"/>
      <point x="348" y="930" type="curve" smooth="yes"/>
      <point x="348" y="894"/>
      <point x="320" y="866"/>
      <point x="284" y="866" type="curve" smooth="yes"/>
      <point x="248" y="866"/>
      <point x="220" y="894"/>
    </contour>
    <contour>
      <point x="66" y="54" type="curve" smooth="yes"/>
      <point x="66" y="90"/>
      <point x="94" y="118"/>
      <point x="130" y="118" type="curve" smooth="yes"/>
      <point x="166" y="118"/>
      <point x="194" y="90"/>
      <point x="194" y="54" type="curve" smooth="yes"/>
      <point x="194" y="18"/>
      <point x="166" y="-10"/>
      <point x="130" y="-10" type="curve" smooth="yes"/>
      <point x="94" y="-10"/>
      <point x="66" y="18"/>
    </contour>
  </outline>
</glyph>
<glyph name="semicolon" format="2">
  <advance width="500"/>
  <unicode hex="003B"/>
  <outline>
    <contour>
      <point x="350" y="930" type="curve" smooth="yes"/>
      <point x="350" y="966"/>
      <point x="378" y="994"/>
      <point x="414" y="994" type="curve" smooth="yes"/>
      <point x="450" y="994"/>
      <point x="478" y="966"/>
      <point x="478" y="930" type="curve" smooth="yes"/>
      <point x="478" y="894"/>
      <point x="450" y="866"/>
      <point x="414" y="866" type="curve" smooth="yes"/>
      <point x="378" y="866"/>
      <point x="350" y="894"/>
    </contour>
    <contour>
      <point x="189" y="54" type="curve" smooth="yes"/>
      <point x="189" y="90"/>
      <point x="217" y="118"/>
      <point x="253" y="118" type="curve" smooth="yes"/>
      <point x="269" y="118"/>
      <point x="317" y="80"/>
      <point x="317" y="54" type="curve" smooth="yes"/>
      <point x="317" y="18"/>
      <point x="289" y="-10"/>
      <point x="253" y="-10" type="curve" smooth="yes"/>
      <point x="217" y="-10"/>
      <point x="189" y="18"/>
    </contour>
    <contour>
      <point x="132" y="-204" type="line"/>
      <point x="189" y="-189"/>
      <point x="279" y="-118"/>
      <point x="281" y="-11" type="curve" smooth="yes"/>
      <point x="281" y="48"/>
      <point x="245" y="73"/>
      <point x="245" y="73" type="curve"/>
      <point x="253" y="118" type="line"/>
      <point x="303" y="118"/>
      <point x="328" y="66"/>
      <point x="328" y="4" type="curve" smooth="yes"/>
      <point x="328" y="-134"/>
      <point x="218" y="-222"/>
      <point x="137" y="-246" type="curve"/>
    </contour>
  </outline>
</glyph>
<glyph name="less" format="2">
  <advance width="1232"/>
  <unicode hex="003C"/>
  <outline>
    <contour>
      <point x="162" y="637" type="line"/>
      <point x="170" y="683" type="line"/>
      <point x="1109" y="1062" type="line"/>
      <point x="1102" y="1019" type="line"/>
      <point x="206" y="660" type="line"/>
      <point x="975" y="301" type="line"/>
      <point x="967" y="258" type="line"/>
    </contour>
  </outline>
</glyph>
<glyph name="equal" format="2">
  <advance width="1232"/>
  <unicode hex="003D"/>
  <outline>
    <contour>
      <point x="1197" y="820" type="line"/>
      <point x="1190" y="780" type="line"/>
      <point x="318" y="780" type="line"/>
      <point x="325" y="820" type="line"/>
    </contour>
    <contour>
      <point x="268" y="500" type="line"/>
      <point x="275" y="540" type="line"/>
      <point x="1147" y="540" type="line"/>
      <point x="1140" y="500" type="line"/>
    </contour>
  </outline>
</glyph>
<glyph name="greater" format="2">
  <advance width="1232"/>
  <unicode hex="003E"/>
  <outline>
    <contour>
      <point x="1048" y="637" type="line"/>
      <point x="109" y="258" type="line"/>
      <point x="117" y="301" type="line"/>
      <point x="1012" y="660" type="line"/>
      <point x="243" y="1019" type="line"/>
      <point x="251" y="1062" type="line"/>
      <point x="1056" y="683" type="line"/>
    </contour>
  </outline>
</glyph>
<glyph name="question" format="2">
  <advance width="1103"/>
  <unicode hex="003F"/>
  <outline>
    <contour>
      <point x="673" y="1450" type="curve" smooth="yes"/>
      <point x="521" y="1450"/>
      <point x="291" y="1334"/>
      <point x="240" y="1046" type="curve" smooth="yes"/>
      <point x="239" y="1042"/>
      <point x="239" y="1039"/>
      <point x="239" y="1033" type="curve"/>
      <point x="194" y="1046" type="line"/>
      <point x="243" y="1326"/>
      <point x="462" y="1490"/>
      <point x="680" y="1490" type="curve" smooth="yes"/>
      <point x="898" y="1490"/>
      <point x="1071" y="1350"/>
      <point x="1023" y="1080" type="curve" smooth="yes"/>
      <point x="975" y="810"/>
      <point x="740" y="670"/>
      <point x="536" y="670" type="curve"/>
      <point x="543" y="710" type="line"/>
      <point x="690" y="710"/>
      <point x="931" y="812"/>
      <point x="978" y="1080" type="curve" smooth="yes"/>
      <point x="1025" y="1348"/>
      <point x="825" y="1450"/>
    </contour>
    <contour>
      <point x="367" y="54" type="curve" smooth="yes"/>
      <point x="373" y="90"/>
      <point x="406" y="118"/>
      <point x="442" y="118" type="curve" smooth="yes"/>
      <point x="478" y="118"/>
      <point x="501" y="90"/>
      <point x="495" y="54" type="curve" smooth="yes"/>
      <point x="489" y="18"/>
      <point x="456" y="-10"/>
      <point x="420" y="-10" type="curve" smooth="yes"/>
      <point x="384" y="-10"/>
      <point x="361" y="18"/>
    </contour>
    <contour>
      <point x="474" y="452" type="line"/>
      <point x="520" y="710" type="line"/>
      <point x="566" y="710" type="line"/>
      <point x="520" y="452" type="line"/>
    </contour>
  </outline>
</glyph>
<glyph name="at" format="2">
  <advance width="2080"/>
  <unicode hex="0040"/>
  <outline>
    <contour>
      <point x="1040" y="1490" type="curve" smooth="yes"/>
      <point x="1560" y="1490"/>
      <point x="1940" y="1180"/>
      <point x="1940" y="660" type="curve"/>
      <point x="1895" y="660" type="line"/>
      <point x="1895" y="1160"/>
      <point x="1530" y="1450"/>
      <point x="1040" y="1450" type="curve" smooth="yes"/>
      <point x="550" y="1450"/>
      <point x="185" y="1070"/>
      <point x="185" y="580" type="curve" smooth="yes"/>
      <point x="185" y="90"/>
      <point x="550" y="-290"/>
      <point x="1040" y="-290" type="curve" smooth="yes"/>
      <point x="1225" y="-290"/>
      <point x="1384" y="-238"/>
      <point x="1520" y="-145" type="curve"/>
      <point x="1544" y="-185" type="line"/>
      <point x="1403" y="-277"/>
      <point x="1231" y="-330"/>
      <point x="1040" y="-330" type="curve" smooth="yes"/>
      <point x="520" y="-330"/>
      <point x="140" y="60"/>
      <point x="140" y="580" type="curve" smooth="yes"/>
      <point x="140" y="1100"/>
      <point x="520" y="1490"/>
    </contour>
    <contour>
      <point x="1076" y="962" type="curve" smooth="yes"/>
      <point x="876" y="962"/>
      <point x="688" y="817"/>
      <point x="655" y="579" type="curve" smooth="yes"/>
      <point x="652" y="556"/>
      <point x="650" y="533"/>
      <point x="650" y="512" type="curve" smooth="yes"/>
      <point x="650" y="304"/>
      <point x="784" y="197"/>
      <point x="965" y="197" type="curve" smooth="yes"/>
      <point x="1165" y="197"/>
      <point x="1354" y="342"/>
      <point x="1387" y="580" type="curve" smooth="yes"/>
      <point x="1390" y="603"/>
      <point x="1392" y="625"/>
      <point x="1392" y="646" type="curve" smooth="yes"/>
      <point x="1392" y="844"/>
      <point x="1257" y="962"/>
    </contour>
    <contour>
      <point x="1082" y="1002" type="curve" smooth="yes"/>
      <point x="1322" y="1002"/>
      <point x="1388" y="858"/>
      <point x="1415" y="780" type="curve"/>
      <point x="1446" y="986" type="line"/>
      <point x="1491" y="986" type="line"/>
      <point x="1432" y="580" type="line" smooth="yes"/>
      <point x="1397" y="330"/>
      <point x="1211" y="157"/>
      <point x="959" y="157" type="curve" smooth="yes"/>
      <point x="734" y="157"/>
      <point x="605" y="307"/>
      <point x="605" y="507" type="curve" smooth="yes"/>
      <point x="605" y="530"/>
      <point x="607" y="554"/>
      <point x="610" y="579" type="curve" smooth="yes"/>
      <point x="645" y="829"/>
      <point x="832" y="1002"/>
    </contour>
    <contour>
      <point x="1592" y="148" type="curve" smooth="yes"/>
      <point x="1423" y="148"/>
      <point x="1378" y="304"/>
      <point x="1378" y="448" type="curve" smooth="yes"/>
      <point x="1378" y="495"/>
      <point x="1382" y="541"/>
      <point x="1387" y="580" type="curve"/>
      <point x="1432" y="580" type="line"/>
      <point x="1427" y="532"/>
      <point x="1425" y="489"/>
      <point x="1425" y="450" type="curve" smooth="yes"/>
      <point x="1425" y="268"/>
      <point x="1485" y="187"/>
      <point x="1605" y="187" type="curve" smooth="yes"/>
      <point x="1775" y="187"/>
      <point x="1895" y="371"/>
      <point x="1895" y="660" type="curve"/>
      <point x="1940" y="660" type="line"/>
      <point x="1940" y="360"/>
      <point x="1832" y="148"/>
    </contour>
  </outline>
</glyph>
<glyph name="A" format="2">
  <advance width="1310"/>
  <unicode hex="0041"/>
  <anchor x="1161" y="-20" name="bottom_cedilla"/>
  <anchor x="384" y="1040" name="greek_kt"/>
  <anchor x="544" y="1040" name="greek_k"/>
  <anchor x="423" y="1040" name="greek_t"/>
  <anchor x="601" y="1040" name="greek_v"/>
  <anchor x="1190" y="0" name="bottom_right"/>
  <anchor x="639" y="-90" name="bottom_ypogegrammeni"/>
  <anchor x="898" y="1380" name="top_center"/>
  <anchor x="655" y="0" name="bottom_center"/>
  <outline>
    <contour>
      <point x="426" y="541" type="line"/>
      <point x="1082" y="541" type="line"/>
      <point x="1075" y="499" type="line"/>
      <point x="419" y="499" type="line"/>
    </contour>
    <contour>
      <point x="904" y="1408" type="line"/>
      <point x="169" y="0" type="line"/>
      <point x="120" y="0" type="line"/>
      <point x="891" y="1480" type="line"/>
      <point x="941" y="1480" type="line"/>
      <point x="1190" y="0" type="line"/>
      <point x="1141" y="0" type="line"/>
    </contour>
  </outline>
</glyph>
<glyph name="B" format="2">
  <advance width="1232"/>
  <unicode hex="0042"/>
  <anchor x="471" y="0" name="bottom_center"/>
  <anchor x="714" y="1380" name="top_center"/>
  <outline>
    <contour>
      <point x="1038" y="471" type="curve" smooth="yes"/>
      <point x="1038" y="168"/>
      <point x="800" y="0"/>
      <point x="511" y="0" type="curve" smooth="yes"/>
      <point x="50" y="0" type="line"/>
      <point x="311" y="1480" type="line"/>
      <point x="772" y="1480" type="line" smooth="yes"/>
      <point x="988" y="1480"/>
      <point x="1125" y="1365"/>
      <point x="1125" y="1185" type="curve" smooth="yes"/>
      <point x="1125" y="913"/>
      <point x="930" y="760"/>
      <point x="645" y="760" type="curve"/>
      <point x="652" y="798" type="line"/>
      <point x="869" y="798"/>
      <point x="1078" y="928"/>
      <point x="1078" y="1173" type="curve" smooth="yes"/>
      <point x="1078" y="1339"/>
      <point x="944" y="1438"/>
      <point x="765" y="1438" type="curve" smooth="yes"/>
      <point x="350" y="1438" type="line"/>
      <point x="237" y="798" type="line"/>
      <point x="652" y="798" type="line"/>
      <point x="644" y="754" type="line"/>
      <point x="229" y="754" type="line"/>
      <point x="103" y="42" type="line"/>
      <point x="518" y="42" type="line" smooth="yes"/>
      <point x="762" y="42"/>
      <point x="992" y="191"/>
      <point x="992" y="460" type="curve" smooth="yes"/>
      <point x="992" y="642"/>
      <point x="846" y="754"/>
      <point x="644" y="754" type="curve"/>
      <point x="651" y="792" type="line"/>
      <point x="894" y="792"/>
      <point x="1038" y="668"/>
    </contour>
  </outline>
</glyph>
<glyph name="C" format="2">
  <advance width="1436"/>
  <unicode hex="0043"/>
  <anchor x="623" y="-20" name="bottom_cedilla"/>
  <anchor x="627" y="0" name="bottom_center"/>
  <anchor x="870" y="1380" name="top_center"/>
  <outline>
    <contour>
      <point x="1319" y="1097" type="line"/>
      <point x="1253" y="1332"/>
      <point x="1065" y="1448"/>
      <point x="882" y="1448" type="curve" smooth="yes"/>
      <point x="622" y="1448"/>
      <point x="270" y="1215"/>
      <point x="186" y="740" type="curve" smooth="yes"/>
      <point x="102" y="265"/>
      <point x="372" y="32"/>
      <point x="632" y="32" type="curve" smooth="yes"/>
      <point x="815" y="32"/>
      <point x="1045" y="148"/>
      <point x="1193" y="383" type="curve"/>
      <point x="1229" y="360" type="line"/>
      <point x="1085" y="132"/>
      <point x="860" y="-10"/>
      <point x="625" y="-10" type="curve" smooth="yes"/>
      <point x="277" y="-10"/>
      <point x="63" y="301"/>
      <point x="140" y="740" type="curve" smooth="yes"/>
      <point x="217" y="1179"/>
      <point x="541" y="1490"/>
      <point x="889" y="1490" type="curve" smooth="yes"/>
      <point x="1124" y="1490"/>
      <point x="1299" y="1348"/>
      <point x="1363" y="1120" type="curve"/>
    </contour>
  </outline>
</glyph>
<glyph name="D" format="2">
  <advance width="1322"/>
  <unicode hex="0044"/>
  <anchor x="753" y="1380" name="top_center"/>
  <anchor x="510" y="0" name="bottom_center"/>
  <anchor x="422" y="-20" name="bottom_cedilla"/>
  <outline>
    <contour>
      <point x="473" y="42" type="line" smooth="yes"/>
      <point x="845" y="42"/>
      <point x="1154" y="451"/>
      <point x="1154" y="925" type="curve" smooth="yes"/>
      <point x="1154" y="1290"/>
      <point x="926" y="1438"/>
      <point x="720" y="1438" type="curve" smooth="yes"/>
      <point x="350" y="1438" type="line"/>
      <point x="103" y="42" type="line"/>
    </contour>
    <contour>
      <point x="1200" y="928" type="curve" smooth="yes"/>
      <point x="1200" y="392"/>
      <point x="846" y="0"/>
      <point x="466" y="0" type="curve" smooth="yes"/>
      <point x="50" y="0" type="line"/>
      <point x="311" y="1480" type="line"/>
      <point x="727" y="1480" type="line" smooth="yes"/>
      <point x="1012" y="1480"/>
      <point x="1200" y="1269"/>
    </contour>
  </outline>
</glyph>
<glyph name="E" format="2">
  <advance width="1176"/>
  <unicode hex="0045"/>
  <anchor x="91" y="1040" name="greek_v"/>
  <anchor x="-87" y="1040" name="greek_t"/>
  <anchor x="34" y="1040" name="greek_k"/>
  <anchor x="-126" y="1040" name="greek_kt"/>
  <anchor x="701" y="1380" name="top_center"/>
  <anchor x="458" y="0" name="bottom_center"/>
  <anchor x="866" y="0" name="bottom_right"/>
  <anchor x="454" y="-20" name="bottom_cedilla"/>
  <outline>
    <contour>
      <point x="917" y="761" type="line"/>
      <point x="910" y="719" type="line"/>
      <point x="223" y="719" type="line"/>
      <point x="103" y="42" type="line"/>
      <point x="873" y="42" type="line"/>
      <point x="866" y="0" type="line"/>
      <point x="50" y="0" type="line"/>
      <point x="311" y="1480" type="line"/>
      <point x="1127" y="1480" type="line"/>
      <point x="1120" y="1438" type="line"/>
      <point x="350" y="1438" type="line"/>
      <point x="230" y="761" type="line"/>
    </contour>
  </outline>
</glyph>
<glyph name="F" format="2">
  <advance width="1176"/>
  <unicode hex="0046"/>
  <anchor x="701" y="1380" name="top_center"/>
  <anchor x="73" y="0" name="bottom_center"/>
  <outline>
    <contour>
      <point x="125" y="168" type="line"/>
      <point x="96" y="0" type="line"/>
      <point x="50" y="0" type="line"/>
      <point x="310" y="1480" type="line"/>
      <point x="1126" y="1480" type="line"/>
      <point x="1119" y="1438" type="line"/>
      <point x="349" y="1438" type="line"/>
      <point x="230" y="761" type="line"/>
      <point x="917" y="761" type="line"/>
      <point x="909" y="719" type="line"/>
      <point x="222" y="719" type="line"/>
    </contour>
  </outline>
</glyph>
<glyph name="G" format="2">
  <advance width="1482"/>
  <unicode hex="0047"/>
  <anchor x="870" y="1380" name="top_center"/>
  <anchor x="627" y="0" name="bottom_center"/>
  <outline>
    <contour>
      <point x="1319" y="1097" type="line"/>
      <point x="1253" y="1332"/>
      <point x="1065" y="1448"/>
      <point x="882" y="1448" type="curve" smooth="yes"/>
      <point x="622" y="1448"/>
      <point x="270" y="1215"/>
      <point x="186" y="740" type="curve" smooth="yes"/>
      <point x="102" y="265"/>
      <point x="372" y="32"/>
      <point x="632" y="32" type="curve" smooth="yes"/>
      <point x="815" y="32"/>
      <point x="1045" y="148"/>
      <point x="1193" y="383" type="curve"/>
      <point x="1229" y="360" type="line"/>
      <point x="1085" y="132"/>
      <point x="860" y="-10"/>
      <point x="625" y="-10" type="curve" smooth="yes"/>
      <point x="277" y="-10"/>
      <point x="63" y="301"/>
      <point x="140" y="740" type="curve" smooth="yes"/>
      <point x="217" y="1179"/>
      <point x="541" y="1490"/>
      <point x="889" y="1490" type="curve" smooth="yes"/>
      <point x="1124" y="1490"/>
      <point x="1299" y="1348"/>
      <point x="1363" y="1120" type="curve"/>
    </contour>
    <contour>
      <point x="757" y="740" type="line"/>
      <point x="1302" y="740" type="line"/>
      <point x="1172" y="0" type="line"/>
      <point x="1126" y="0" type="line"/>
      <point x="1183" y="327" type="line"/>
      <point x="1188" y="353" type="line"/>
      <point x="1249" y="698" type="line"/>
      <point x="750" y="698" type="line"/>
    </contour>
  </outline>
</glyph>
<glyph name="H" format="2">
  <advance width="1344"/>
  <unicode hex="0048"/>
  <anchor x="4" y="1040" name="greek_kt"/>
  <anchor x="164" y="1040" name="greek_k"/>
  <anchor x="43" y="1040" name="greek_t"/>
  <anchor x="221" y="1040" name="greek_v"/>
  <anchor x="672" y="-88" name="bottom_ypogegrammeni"/>
  <anchor x="200" y="-18" name="bottom_cedilla"/>
  <anchor x="688" y="0" name="bottom_center"/>
  <anchor x="932" y="1382" name="top_center"/>
  <outline>
    <contour>
      <point x="441" y="1480" type="line"/>
      <point x="487" y="1480" type="line"/>
      <point x="360" y="761" type="line"/>
      <point x="1252" y="761" type="line"/>
      <point x="1379" y="1480" type="line"/>
      <point x="1425" y="1480" type="line"/>
      <point x="1164" y="0" type="line"/>
      <point x="1118" y="0" type="line"/>
      <point x="1245" y="719" type="line"/>
      <point x="353" y="719" type="line"/>
      <point x="226" y="0" type="line"/>
      <point x="180" y="0" type="line"/>
    </contour>
  </outline>
</glyph>
<glyph name="I" format="2">
  <advance width="822"/>
  <unicode hex="0049"/>
  <anchor x="407" y="-20" name="bottom_cedilla"/>
  <anchor x="4" y="1040" name="greek_kt"/>
  <anchor x="164" y="1040" name="greek_k"/>
  <anchor x="43" y="1040" name="greek_t"/>
  <anchor x="221" y="1040" name="greek_v"/>
  <anchor x="435" y="0" name="bottom_right"/>
  <anchor x="411" y="0" name="bottom_center"/>
  <anchor x="654" y="1380" name="top_center"/>
  <outline>
    <contour>
      <point x="441" y="1480" type="line"/>
      <point x="903" y="1480" type="line"/>
      <point x="896" y="1438" type="line"/>
      <point x="689" y="1438" type="line"/>
      <point x="442" y="42" type="line"/>
      <point x="649" y="42" type="line"/>
      <point x="642" y="0" type="line"/>
      <point x="180" y="0" type="line"/>
      <point x="187" y="42" type="line"/>
      <point x="394" y="42" type="line"/>
      <point x="641" y="1438" type="line"/>
      <point x="434" y="1438" type="line"/>
    </contour>
  </outline>
</glyph>
<glyph name="J" format="2">
  <advance width="1136"/>
  <unicode hex="004A"/>
  <anchor x="1176" y="1380" name="top_center"/>
  <anchor x="548" y="0" name="bottom_center"/>
  <outline>
    <contour>
      <point x="266" y="447" type="line"/>
      <point x="257" y="413"/>
      <point x="254" y="370"/>
      <point x="254" y="337" type="curve" smooth="yes"/>
      <point x="254" y="120"/>
      <point x="406" y="32"/>
      <point x="554" y="32" type="curve" smooth="yes"/>
      <point x="722" y="32"/>
      <point x="936" y="146"/>
      <point x="987" y="434" type="curve" smooth="yes"/>
      <point x="1171" y="1480" type="line"/>
      <point x="1217" y="1480" type="line"/>
      <point x="1033" y="434" type="line" smooth="yes"/>
      <point x="984" y="154"/>
      <point x="784" y="-10"/>
      <point x="546" y="-10" type="curve" smooth="yes"/>
      <point x="340" y="-10"/>
      <point x="207" y="113"/>
      <point x="207" y="328" type="curve" smooth="yes"/>
      <point x="207" y="361"/>
      <point x="210" y="396"/>
      <point x="217" y="434" type="curve"/>
    </contour>
  </outline>
</glyph>
<glyph name="K" format="2">
  <advance width="1298"/>
  <unicode hex="004B"/>
  <anchor x="785" y="1380" name="top_center"/>
  <anchor x="542" y="0" name="bottom_center"/>
  <outline>
    <contour>
      <point x="516" y="807" type="line"/>
      <point x="552" y="841" type="line"/>
      <point x="1068" y="0" type="line"/>
      <point x="1014" y="0" type="line"/>
    </contour>
    <contour>
      <point x="186" y="508" type="line"/>
      <point x="96" y="0" type="line"/>
      <point x="50" y="0" type="line"/>
      <point x="311" y="1480" type="line"/>
      <point x="357" y="1480" type="line"/>
      <point x="196" y="568" type="line"/>
      <point x="1269" y="1480" type="line"/>
      <point x="1329" y="1480" type="line"/>
    </contour>
  </outline>
</glyph>
<glyph name="L" format="2">
  <advance width="1176"/>
  <unicode hex="004C"/>
  <anchor x="446" y="1380" name="top_center"/>
  <anchor x="588" y="0" name="bottom_center"/>
  <outline>
    <contour>
      <point x="487" y="1480" type="line"/>
      <point x="233" y="42" type="line"/>
      <point x="1003" y="42" type="line"/>
      <point x="996" y="0" type="line"/>
      <point x="180" y="0" type="line"/>
      <point x="441" y="1480" type="line"/>
    </contour>
  </outline>
</glyph>
<glyph name="M" format="2">
  <advance width="1512"/>
  <unicode hex="004D"/>
  <anchor x="869" y="1380" name="top_center"/>
  <anchor x="626" y="0" name="bottom_center"/>
  <outline>
    <contour>
      <point x="662" y="230" type="line"/>
      <point x="1416" y="1480" type="line"/>
      <point x="1426" y="1422" type="line"/>
      <point x="668" y="160" type="line"/>
      <point x="631" y="160" type="line"/>
      <point x="326" y="1422" type="line"/>
      <point x="356" y="1480" type="line"/>
    </contour>
    <contour>
      <point x="1462" y="1480" type="line"/>
      <point x="1202" y="0" type="line"/>
      <point x="1156" y="0" type="line"/>
      <point x="1407" y="1426" type="line"/>
      <point x="1416" y="1480" type="line"/>
    </contour>
    <contour>
      <point x="310" y="1480" type="line"/>
      <point x="356" y="1480" type="line"/>
      <point x="345" y="1414" type="line"/>
      <point x="96" y="0" type="line"/>
      <point x="50" y="0" type="line"/>
    </contour>
  </outline>
</glyph>
<glyph name="N" format="2">
  <advance width="1344"/>
  <unicode hex="004E"/>
  <anchor x="915" y="1380" name="top_center"/>
  <anchor x="672" y="0" name="bottom_center"/>
  <outline>
    <contour>
      <point x="487" y="1480" type="line"/>
      <point x="1134" y="90" type="line"/>
      <point x="1379" y="1480" type="line"/>
      <point x="1425" y="1480" type="line"/>
      <point x="1164" y="0" type="line"/>
      <point x="1118" y="0" type="line"/>
      <point x="471" y="1390" type="line"/>
      <point x="226" y="0" type="line"/>
      <point x="180" y="0" type="line"/>
      <point x="441" y="1480" type="line"/>
    </contour>
  </outline>
</glyph>
<glyph name="O" format="2">
  <advance width="1514"/>
  <unicode hex="004F"/>
  <anchor x="623" y="-20" name="bottom_cedilla"/>
  <anchor x="-40" y="1040" name="greek_kt"/>
  <anchor x="120" y="1040" name="greek_k"/>
  <anchor x="-1" y="1040" name="greek_t"/>
  <anchor x="177" y="1040" name="greek_v"/>
  <anchor x="733" y="0" name="bottom_right"/>
  <anchor x="627" y="0" name="bottom_center"/>
  <anchor x="1398" y="1480" name="top_right"/>
  <anchor x="870" y="1380" name="top_center"/>
  <outline>
    <contour>
      <point x="882" y="1448" type="curve" smooth="yes"/>
      <point x="589" y="1448"/>
      <point x="173" y="1114"/>
      <point x="171" y="571" type="curve" smooth="yes"/>
      <point x="171" y="210"/>
      <point x="406" y="32"/>
      <point x="633" y="32" type="curve" smooth="yes"/>
      <point x="926" y="32"/>
      <point x="1342" y="366"/>
      <point x="1344" y="909" type="curve" smooth="yes"/>
      <point x="1344" y="1270"/>
      <point x="1109" y="1448"/>
    </contour>
    <contour>
      <point x="125" y="566" type="curve" smooth="yes"/>
      <point x="125" y="1096"/>
      <point x="499" y="1490"/>
      <point x="890" y="1490" type="curve" smooth="yes"/>
      <point x="1190" y="1490"/>
      <point x="1390" y="1259"/>
      <point x="1390" y="914" type="curve" smooth="yes"/>
      <point x="1390" y="384"/>
      <point x="1016" y="-10"/>
      <point x="625" y="-10" type="curve" smooth="yes"/>
      <point x="325" y="-10"/>
      <point x="125" y="221"/>
    </contour>
  </outline>
</glyph>
<glyph name="P" format="2">
  <advance width="1154"/>
  <unicode hex="0050"/>
  <anchor x="4" y="1040" name="greek_kt"/>
  <anchor x="164" y="1040" name="greek_k"/>
  <anchor x="43" y="1040" name="greek_t"/>
  <anchor x="221" y="1040" name="greek_v"/>
  <anchor x="203" y="0" name="bottom_center"/>
  <anchor x="826" y="1380" name="top_center"/>
  <outline>
    <contour>
      <point x="714" y="676" type="line" smooth="yes"/>
      <point x="960" y="676"/>
      <point x="1161" y="875"/>
      <point x="1161" y="1127" type="curve" smooth="yes"/>
      <point x="1161" y="1297"/>
      <point x="1047" y="1438"/>
      <point x="849" y="1438" type="curve" smooth="yes"/>
      <point x="480" y="1438" type="line"/>
      <point x="345" y="676" type="line"/>
    </contour>
    <contour>
      <point x="1208" y="1139" type="curve" smooth="yes"/>
      <point x="1208" y="830"/>
      <point x="952" y="634"/>
      <point x="707" y="634" type="curve" smooth="yes"/>
      <point x="338" y="634" type="line"/>
      <point x="226" y="0" type="line"/>
      <point x="180" y="0" type="line"/>
      <point x="441" y="1480" type="line"/>
      <point x="856" y="1480" type="line" smooth="yes"/>
      <point x="1055" y="1480"/>
      <point x="1208" y="1347"/>
    </contour>
  </outline>
</glyph>
<glyph name="Q" format="2">
  <advance width="1514"/>
  <unicode hex="0051"/>
  <anchor x="627" y="0" name="bottom_center"/>
  <anchor x="870" y="1380" name="top_center"/>
  <outline>
    <contour>
      <point x="187" y="740" type="curve" smooth="yes"/>
      <point x="103" y="265"/>
      <point x="373" y="32"/>
      <point x="633" y="32" type="curve" smooth="yes"/>
      <point x="893" y="32"/>
      <point x="1245" y="265"/>
      <point x="1329" y="740" type="curve" smooth="yes"/>
      <point x="1413" y="1215"/>
      <point x="1142" y="1448"/>
      <point x="882" y="1448" type="curve" smooth="yes"/>
      <point x="622" y="1448"/>
      <point x="271" y="1215"/>
    </contour>
    <contour>
      <point x="141" y="740" type="curve" smooth="yes"/>
      <point x="218" y="1179"/>
      <point x="542" y="1490"/>
      <point x="890" y="1490" type="curve" smooth="yes"/>
      <point x="1238" y="1490"/>
      <point x="1452" y="1179"/>
      <point x="1375" y="740" type="curve" smooth="yes"/>
      <point x="1298" y="301"/>
      <point x="973" y="-10"/>
      <point x="625" y="-10" type="curve" smooth="yes"/>
      <point x="277" y="-10"/>
      <point x="64" y="301"/>
    </contour>
    <contour>
      <point x="1247" y="16" type="line"/>
      <point x="1209" y="-16" type="line"/>
      <point x="784" y="501" type="line"/>
      <point x="822" y="533" type="line"/>
    </contour>
  </outline>
</glyph>
<glyph name="R" format="2">
  <advance width="1130"/>
  <unicode hex="0052"/>
  <anchor x="453" y="0" name="bottom_center"/>
  <anchor x="696" y="1380" name="top_center"/>
  <outline>
    <contour>
      <point x="528" y="643" type="line"/>
      <point x="576" y="652" type="line"/>
      <point x="900" y="0" type="line"/>
      <point x="846" y="0" type="line"/>
    </contour>
    <contour>
      <point x="586" y="676" type="line" smooth="yes"/>
      <point x="812" y="676"/>
      <point x="1031" y="875"/>
      <point x="1031" y="1127" type="curve" smooth="yes"/>
      <point x="1031" y="1297"/>
      <point x="917" y="1438"/>
      <point x="719" y="1438" type="curve" smooth="yes"/>
      <point x="350" y="1438" type="line"/>
      <point x="215" y="676" type="line"/>
    </contour>
    <contour>
      <point x="1078" y="1139" type="curve" smooth="yes"/>
      <point x="1078" y="830"/>
      <point x="822" y="634"/>
      <point x="577" y="634" type="curve" smooth="yes"/>
      <point x="208" y="634" type="line"/>
      <point x="96" y="0" type="line"/>
      <point x="50" y="0" type="line"/>
      <point x="311" y="1480" type="line"/>
      <point x="726" y="1480" type="line" smooth="yes"/>
      <point x="925" y="1480"/>
      <point x="1078" y="1347"/>
    </contour>
  </outline>
</glyph>
<glyph name="S" format="2">
  <advance width="1175"/>
  <unicode hex="0053"/>
  <anchor x="452" y="-20" name="bottom_cedilla"/>
  <anchor x="699" y="1380" name="top_center"/>
  <anchor x="456" y="0" name="bottom_center"/>
  <outline>
    <contour>
      <point x="711" y="1448" type="curve" smooth="yes"/>
      <point x="526" y="1448"/>
      <point x="333" y="1364"/>
      <point x="291" y="1124" type="curve" smooth="yes"/>
      <point x="249" y="884"/>
      <point x="446" y="816"/>
      <point x="591" y="769" type="curve" smooth="yes"/>
      <point x="845" y="688"/>
      <point x="1013" y="616"/>
      <point x="967" y="356" type="curve" smooth="yes"/>
      <point x="921" y="96"/>
      <point x="723" y="-10"/>
      <point x="454" y="-10" type="curve" smooth="yes"/>
      <point x="193" y="-10"/>
      <point x="40" y="143"/>
      <point x="77" y="381" type="curve"/>
      <point x="125" y="394" type="line"/>
      <point x="84" y="161"/>
      <point x="236" y="32"/>
      <point x="461" y="32" type="curve" smooth="yes"/>
      <point x="655" y="32"/>
      <point x="877" y="106"/>
      <point x="921" y="356" type="curve" smooth="yes"/>
      <point x="965" y="606"/>
      <point x="773" y="660"/>
      <point x="583" y="721" type="curve" smooth="yes"/>
      <point x="329" y="803"/>
      <point x="204" y="894"/>
      <point x="245" y="1124" type="curve" smooth="yes"/>
      <point x="286" y="1354"/>
      <point x="462" y="1490"/>
      <point x="718" y="1490" type="curve" smooth="yes"/>
      <point x="979" y="1490"/>
      <point x="1114" y="1347"/>
      <point x="1077" y="1109" type="curve"/>
      <point x="1029" y="1096" type="line"/>
      <point x="1070" y="1329"/>
      <point x="936" y="1448"/>
    </contour>
  </outline>
</glyph>
<glyph name="T" format="2">
  <advance width="1344"/>
  <unicode hex="0054"/>
  <anchor x="915" y="1380" name="top_center"/>
  <anchor x="672" y="0" name="bottom_center"/>
  <anchor x="668" y="-20" name="bottom_cedilla"/>
  <outline>
    <contour>
      <point x="695" y="0" type="line"/>
      <point x="649" y="0" type="line"/>
      <point x="903" y="1438" type="line"/>
      <point x="434" y="1438" type="line"/>
      <point x="441" y="1480" type="line"/>
      <point x="1425" y="1480" type="line"/>
      <point x="1418" y="1438" type="line"/>
      <point x="949" y="1438" type="line"/>
    </contour>
  </outline>
</glyph>
<glyph name="U" format="2">
  <advance width="1344"/>
  <unicode hex="0055"/>
  <anchor x="670" y="-10" name="bottom_cedilla"/>
  <anchor x="787" y="0" name="bottom_right"/>
  <anchor x="672" y="0" name="bottom_center"/>
  <anchor x="1425" y="1480" name="top_right"/>
  <anchor x="915" y="1380" name="top_center"/>
  <outline>
    <contour>
      <point x="487" y="1480" type="line"/>
      <point x="319" y="528" type="line" smooth="yes"/>
      <point x="311" y="481"/>
      <point x="307" y="438"/>
      <point x="307" y="398" type="curve" smooth="yes"/>
      <point x="307" y="142"/>
      <point x="470" y="32"/>
      <point x="678" y="32" type="curve" smooth="yes"/>
      <point x="918" y="32"/>
      <point x="1149" y="178"/>
      <point x="1211" y="528" type="curve" smooth="yes"/>
      <point x="1379" y="1480" type="line"/>
      <point x="1425" y="1480" type="line"/>
      <point x="1257" y="528" type="line" smooth="yes"/>
      <point x="1194" y="168"/>
      <point x="967" y="-10"/>
      <point x="670" y="-10" type="curve" smooth="yes"/>
      <point x="416" y="-10"/>
      <point x="260" y="121"/>
      <point x="260" y="384" type="curve" smooth="yes"/>
      <point x="260" y="428"/>
      <point x="264" y="476"/>
      <point x="273" y="528" type="curve" smooth="yes"/>
      <point x="441" y="1480" type="line"/>
    </contour>
  </outline>
</glyph>
<glyph name="V" format="2">
  <advance width="1310"/>
  <unicode hex="0056"/>
  <anchor x="768" y="1380" name="top_center"/>
  <anchor x="525" y="0" name="bottom_center"/>
  <outline>
    <contour>
      <point x="537" y="72" type="line"/>
      <point x="1271" y="1480" type="line"/>
      <point x="1320" y="1480" type="line"/>
      <point x="550" y="0" type="line"/>
      <point x="500" y="0" type="line"/>
      <point x="250" y="1480" type="line"/>
      <point x="299" y="1480" type="line"/>
    </contour>
  </outline>
</glyph>
<glyph name="W" format="2">
  <advance width="1862"/>
  <unicode hex="0057"/>
  <anchor x="1174" y="1380" name="top_center"/>
  <anchor x="931" y="0" name="bottom_center"/>
  <outline>
    <contour>
      <point x="1336" y="72" type="line"/>
      <point x="1954" y="1480" type="line"/>
      <point x="2003" y="1480" type="line"/>
      <point x="1349" y="0" type="line"/>
      <point x="1296" y="0" type="line"/>
      <point x="1181" y="1418" type="line"/>
      <point x="566" y="0" type="line"/>
      <point x="513" y="0" type="line"/>
      <point x="381" y="1480" type="line"/>
      <point x="430" y="1480" type="line"/>
      <point x="553" y="72" type="line"/>
      <point x="1166" y="1480" type="line"/>
      <point x="1218" y="1480" type="line"/>
    </contour>
  </outline>
</glyph>
<glyph name="X" format="2">
  <advance width="1342"/>
  <unicode hex="0058"/>
  <anchor x="671" y="0" name="bottom_center"/>
  <anchor x="914" y="1380" name="top_center"/>
  <outline>
    <contour>
      <point x="792" y="697" type="line"/>
      <point x="174" y="0" type="line"/>
      <point x="120" y="0" type="line"/>
      <point x="772" y="740" type="line"/>
      <point x="381" y="1480" type="line"/>
      <point x="435" y="1480" type="line"/>
      <point x="808" y="778" type="line"/>
      <point x="1429" y="1480" type="line"/>
      <point x="1483" y="1480" type="line"/>
      <point x="830" y="740" type="line"/>
      <point x="1222" y="0" type="line"/>
      <point x="1168" y="0" type="line"/>
    </contour>
  </outline>
</glyph>
<glyph name="Y" format="2">
  <advance width="1342"/>
  <unicode hex="0059"/>
  <anchor x="141" y="1040" name="greek_v"/>
  <anchor x="-37" y="1040" name="greek_t"/>
  <anchor x="84" y="1040" name="greek_k"/>
  <anchor x="-76" y="1040" name="greek_kt"/>
  <anchor x="671" y="0" name="bottom_center"/>
  <anchor x="914" y="1380" name="top_center"/>
  <outline>
    <contour>
      <point x="648" y="0" type="line"/>
      <point x="778" y="740" type="line"/>
      <point x="824" y="740" type="line"/>
      <point x="694" y="0" type="line"/>
    </contour>
    <contour>
      <point x="812" y="719" type="line"/>
      <point x="785" y="716" type="line"/>
      <point x="381" y="1480" type="line"/>
      <point x="435" y="1480" type="line"/>
      <point x="808" y="778" type="line"/>
      <point x="1429" y="1480" type="line"/>
      <point x="1483" y="1480" type="line"/>
    </contour>
  </outline>
</glyph>
<glyph name="Z" format="2">
  <advance width="1319"/>
  <unicode hex="005A"/>
  <anchor x="812" y="1380" name="top_center"/>
  <anchor x="569" y="0" name="bottom_center"/>
  <outline>
    <contour>
      <point x="141" y="0" type="line"/>
      <point x="118" y="38" type="line"/>
      <point x="1222" y="1480" type="line"/>
      <point x="1245" y="1442" type="line"/>
    </contour>
    <contour>
      <point x="142" y="42" type="line"/>
      <point x="1016" y="42" type="line"/>
      <point x="1009" y="0" type="line"/>
      <point x="111" y="0" type="line"/>
      <point x="118" y="38" type="line"/>
    </contour>
    <contour>
      <point x="390" y="1480" type="line"/>
      <point x="1252" y="1480" type="line"/>
      <point x="1245" y="1442" type="line"/>
      <point x="1220" y="1438" type="line"/>
      <point x="383" y="1438" type="line"/>
    </contour>
  </outline>
</glyph>
<glyph name="bracketleft" format="2">
  <advance width="840"/>
  <unicode hex="005B"/>
  <outline>
    <contour>
      <point x="1032" y="1600" type="line"/>
      <point x="507" y="1600" type="line"/>
      <point x="176" y="-280" type="line"/>
      <point x="701" y="-280" type="line"/>
      <point x="694" y="-320" type="line"/>
      <point x="124" y="-320" type="line"/>
      <point x="469" y="1640" type="line"/>
      <point x="1039" y="1640" type="line"/>
    </contour>
  </outline>
</glyph>
<glyph name="backslash" format="2">
  <advance width="862"/>
  <unicode hex="005C"/>
  <outline>
    <contour>
      <point x="252" y="1640" type="line"/>
      <point x="300" y="1640" type="line"/>
      <point x="610" y="-200" type="line"/>
      <point x="562" y="-200" type="line"/>
    </contour>
  </outline>
</glyph>
<glyph name="bracketright" format="2">
  <advance width="840"/>
  <unicode hex="005D"/>
  <outline>
    <contour>
      <point x="242" y="1600" type="line"/>
      <point x="249" y="1640" type="line"/>
      <point x="819" y="1640" type="line"/>
      <point x="474" y="-320" type="line"/>
      <point x="-96" y="-320" type="line"/>
      <point x="-89" y="-280" type="line"/>
      <point x="436" y="-280" type="line"/>
      <point x="767" y="1600" type="line"/>
    </contour>
  </outline>
</glyph>
<glyph name="asciicircum" format="2">
  <advance width="1232"/>
  <unicode hex="005E"/>
  <outline>
    <contour>
      <point x="932" y="656" type="line"/>
      <point x="681" y="1430" type="line"/>
      <point x="154" y="656" type="line"/>
      <point x="107" y="656" type="line"/>
      <point x="667" y="1480" type="line"/>
      <point x="711" y="1480" type="line"/>
      <point x="979" y="656" type="line"/>
    </contour>
  </outline>
</glyph>
<glyph name="underscore" format="2">
  <advance width="1232"/>
  <unicode hex="005F"/>
  <outline>
    <contour>
      <point x="4" y="0" type="line"/>
      <point x="1236" y="0" type="line"/>
      <point x="1228" y="-40" type="line"/>
      <point x="-4" y="-40" type="line"/>
    </contour>
  </outline>
</glyph>
<glyph name="grave" format="2">
  <advance width="482"/>
  <unicode hex="0060"/>
  <outline>
    <contour>
      <point x="404" y="1224" type="line"/>
      <point x="251" y="1480" type="line"/>
      <point x="307" y="1480" type="line"/>
      <point x="448" y="1224" type="line"/>
    </contour>
  </outline>
</glyph>
<glyph name="a" format="2">
  <advance width="1152"/>
  <unicode hex="0061"/>
  <anchor x="1092" y="1040" name="top_right"/>
  <anchor x="513" y="-10" name="bottom_cedilla"/>
  <anchor x="1000" y="0" name="bottom_right"/>
  <anchor x="788" y="1040" name="top_center"/>
  <anchor x="605" y="0" name="bottom_center"/>
  <outline>
    <contour>
      <point x="565" y="30" type="curve" smooth="yes"/>
      <point x="821" y="30"/>
      <point x="1039" y="319"/>
      <point x="1039" y="648" type="curve" smooth="yes"/>
      <point x="1039" y="895"/>
      <point x="889" y="1010"/>
      <point x="738" y="1010" type="curve" smooth="yes"/>
      <point x="482" y="1010"/>
      <point x="265" y="721"/>
      <point x="265" y="392" type="curve" smooth="yes"/>
      <point x="265" y="145"/>
      <point x="414" y="30"/>
    </contour>
    <contour>
      <point x="219" y="387" type="curve" smooth="yes"/>
      <point x="219" y="709"/>
      <point x="430" y="1050"/>
      <point x="745" y="1050" type="curve" smooth="yes"/>
      <point x="945" y="1050"/>
      <point x="1054" y="896"/>
      <point x="1065" y="780" type="curve"/>
      <point x="1110" y="1040" type="line"/>
      <point x="1155" y="1040" type="line"/>
      <point x="1009" y="208" type="line" smooth="yes"/>
      <point x="1000" y="159"/>
      <point x="998" y="107"/>
      <point x="998" y="67" type="curve" smooth="yes"/>
      <point x="998" y="27"/>
      <point x="1000" y="0"/>
      <point x="1000" y="0" type="curve"/>
      <point x="955" y="0" type="line"/>
      <point x="955" y="0"/>
      <point x="954" y="17"/>
      <point x="954" y="47" type="curve" smooth="yes"/>
      <point x="954" y="93"/>
      <point x="957" y="169"/>
      <point x="973" y="260" type="curve"/>
      <point x="921" y="143"/>
      <point x="768" y="-10"/>
      <point x="558" y="-10" type="curve" smooth="yes"/>
      <point x="348" y="-10"/>
      <point x="219" y="148"/>
    </contour>
  </outline>
</glyph>
<glyph name="b" format="2">
  <advance width="1152"/>
  <unicode hex="0062"/>
  <anchor x="317" y="1380" name="top_center"/>
  <anchor x="462" y="0" name="bottom_center"/>
  <outline>
    <contour>
      <point x="179" y="520" type="curve"/>
      <point x="120" y="184"/>
      <point x="293" y="30"/>
      <point x="468" y="30" type="curve" smooth="yes"/>
      <point x="643" y="30"/>
      <point x="870" y="184"/>
      <point x="929" y="520" type="curve" smooth="yes"/>
      <point x="988" y="856"/>
      <point x="815" y="1010"/>
      <point x="640" y="1010" type="curve" smooth="yes"/>
      <point x="465" y="1010"/>
      <point x="238" y="856"/>
    </contour>
    <contour>
      <point x="87" y="208" type="curve"/>
      <point x="311" y="1480" type="line"/>
      <point x="356" y="1480" type="line"/>
      <point x="233" y="780" type="line"/>
      <point x="284" y="896"/>
      <point x="448" y="1050"/>
      <point x="648" y="1050" type="curve" smooth="yes"/>
      <point x="895" y="1050"/>
      <point x="1029" y="832"/>
      <point x="974" y="520" type="curve" smooth="yes"/>
      <point x="919" y="208"/>
      <point x="708" y="-10"/>
      <point x="461" y="-10" type="curve" smooth="yes"/>
      <point x="251" y="-10"/>
      <point x="152" y="144"/>
      <point x="141" y="260" type="curve"/>
      <point x="95" y="0" type="line"/>
      <point x="50" y="0" type="line"/>
      <point x="50" y="0"/>
      <point x="70" y="110"/>
    </contour>
  </outline>
</glyph>
<glyph name="c" format="2">
  <advance width="1101"/>
  <unicode hex="0063"/>
  <anchor x="483" y="-20" name="bottom_cedilla"/>
  <anchor x="670" y="1040" name="top_center"/>
  <anchor x="486" y="0" name="bottom_center"/>
  <outline>
    <contour>
      <point x="185" y="520" type="curve" smooth="yes"/>
      <point x="126" y="184"/>
      <point x="324" y="30"/>
      <point x="492" y="30" type="curve" smooth="yes"/>
      <point x="612" y="30"/>
      <point x="774" y="108"/>
      <point x="879" y="274" type="curve"/>
      <point x="914" y="252" type="line"/>
      <point x="811" y="90"/>
      <point x="652" y="-10"/>
      <point x="485" y="-10" type="curve" smooth="yes"/>
      <point x="238" y="-10"/>
      <point x="85" y="208"/>
      <point x="140" y="520" type="curve" smooth="yes"/>
      <point x="195" y="832"/>
      <point x="424" y="1050"/>
      <point x="671" y="1050" type="curve" smooth="yes"/>
      <point x="838" y="1050"/>
      <point x="963" y="950"/>
      <point x="1008" y="788" type="curve"/>
      <point x="965" y="766" type="line"/>
      <point x="918" y="932"/>
      <point x="784" y="1010"/>
      <point x="664" y="1010" type="curve" smooth="yes"/>
      <point x="496" y="1010"/>
      <point x="244" y="856"/>
    </contour>
  </outline>
</glyph>
<glyph name="d" format="2">
  <advance width="1152"/>
  <unicode hex="0064"/>
  <anchor x="1233" y="1480" name="top_right"/>
  <anchor x="556" y="-20" name="bottom_cedilla"/>
  <anchor x="1192" y="1380" name="top_center"/>
  <anchor x="560" y="0" name="bottom_center"/>
  <outline>
    <contour>
      <point x="565" y="30" type="curve" smooth="yes"/>
      <point x="765" y="30"/>
      <point x="1039" y="272"/>
      <point x="1039" y="648" type="curve" smooth="yes"/>
      <point x="1039" y="895"/>
      <point x="889" y="1010"/>
      <point x="738" y="1010" type="curve" smooth="yes"/>
      <point x="538" y="1010"/>
      <point x="265" y="768"/>
      <point x="265" y="392" type="curve" smooth="yes"/>
      <point x="265" y="145"/>
      <point x="414" y="30"/>
    </contour>
    <contour>
      <point x="219" y="387" type="curve" smooth="yes"/>
      <point x="219" y="764"/>
      <point x="464" y="1050"/>
      <point x="745" y="1050" type="curve" smooth="yes"/>
      <point x="945" y="1050"/>
      <point x="1054" y="896"/>
      <point x="1065" y="780" type="curve"/>
      <point x="1188" y="1480" type="line"/>
      <point x="1233" y="1480" type="line"/>
      <point x="1009" y="208" type="line" smooth="yes"/>
      <point x="1000" y="159"/>
      <point x="998" y="107"/>
      <point x="998" y="67" type="curve" smooth="yes"/>
      <point x="998" y="27"/>
      <point x="1000" y="0"/>
      <point x="1000" y="0" type="curve"/>
      <point x="955" y="0" type="line"/>
      <point x="955" y="0"/>
      <point x="954" y="17"/>
      <point x="954" y="47" type="curve" smooth="yes"/>
      <point x="954" y="93"/>
      <point x="957" y="169"/>
      <point x="973" y="260" type="curve"/>
      <point x="922" y="144"/>
      <point x="768" y="-10"/>
      <point x="558" y="-10" type="curve" smooth="yes"/>
      <point x="348" y="-10"/>
      <point x="219" y="148"/>
    </contour>
  </outline>
</glyph>
<glyph name="e" format="2">
  <advance width="1156"/>
  <unicode hex="0065"/>
  <anchor x="574" y="-20" name="bottom_cedilla"/>
  <anchor x="761" y="1040" name="top_center"/>
  <anchor x="578" y="0" name="bottom_center"/>
  <anchor x="681" y="0" name="bottom_right"/>
  <outline>
    <contour>
      <point x="260" y="540" type="line"/>
      <point x="1094" y="540" type="line"/>
      <point x="1059" y="500" type="line"/>
      <point x="253" y="500" type="line"/>
    </contour>
    <contour>
      <point x="756" y="1010" type="curve" smooth="yes"/>
      <point x="567" y="1010"/>
      <point x="266" y="784"/>
      <point x="266" y="404" type="curve" smooth="yes"/>
      <point x="266" y="149"/>
      <point x="436" y="30"/>
      <point x="583" y="30" type="curve" smooth="yes"/>
      <point x="729" y="30"/>
      <point x="895" y="108"/>
      <point x="1000" y="274" type="curve"/>
      <point x="1035" y="252" type="line"/>
      <point x="932" y="90"/>
      <point x="773" y="-10"/>
      <point x="576" y="-10" type="curve" smooth="yes"/>
      <point x="363" y="-10"/>
      <point x="220" y="152"/>
      <point x="220" y="397" type="curve" smooth="yes"/>
      <point x="220" y="774"/>
      <point x="485" y="1050"/>
      <point x="763" y="1050" type="curve" smooth="yes"/>
      <point x="976" y="1050"/>
      <point x="1119" y="888"/>
      <point x="1119" y="643" type="curve" smooth="yes"/>
      <point x="1119" y="598"/>
      <point x="1113" y="545"/>
      <point x="1104" y="500" type="curve"/>
      <point x="1059" y="500" type="line"/>
      <point x="1067" y="543"/>
      <point x="1074" y="595"/>
      <point x="1073" y="636" type="curve" smooth="yes"/>
      <point x="1073" y="891"/>
      <point x="903" y="1010"/>
    </contour>
  </outline>
</glyph>
<glyph name="f" format="2">
  <advance width="772"/>
  <unicode hex="0066"/>
  <anchor x="205" y="0" name="bottom_center"/>
  <anchor x="590" y="1380" name="top_center"/>
  <outline>
    <contour>
      <point x="806" y="1415" type="line"/>
      <point x="772" y="1443"/>
      <point x="719" y="1450"/>
      <point x="681" y="1450" type="curve" smooth="yes"/>
      <point x="591" y="1450"/>
      <point x="478" y="1420"/>
      <point x="436" y="1180" type="curve" smooth="yes"/>
      <point x="411" y="1040" type="line"/>
      <point x="717" y="1040" type="line"/>
      <point x="710" y="1000" type="line"/>
      <point x="404" y="1000" type="line"/>
      <point x="228" y="0" type="line"/>
      <point x="183" y="0" type="line"/>
      <point x="359" y="1000" type="line"/>
      <point x="115" y="1000" type="line"/>
      <point x="122" y="1040" type="line"/>
      <point x="366" y="1040" type="line"/>
      <point x="391" y="1180" type="line" smooth="yes"/>
      <point x="426" y="1380"/>
      <point x="512" y="1490"/>
      <point x="688" y="1490" type="curve" smooth="yes"/>
      <point x="737" y="1490"/>
      <point x="791" y="1476"/>
      <point x="828" y="1458" type="curve"/>
    </contour>
  </outline>
</glyph>
<glyph name="g" format="2">
  <advance width="1152"/>
  <unicode hex="0067"/>
  <anchor x="497" y="-360" name="bottom_center"/>
  <anchor x="743" y="1040" name="top_center"/>
  <outline>
    <contour>
      <point x="219" y="387" type="curve" smooth="yes"/>
      <point x="219" y="709"/>
      <point x="430" y="1050"/>
      <point x="745" y="1050" type="curve" smooth="yes"/>
      <point x="955" y="1050"/>
      <point x="1054" y="896"/>
      <point x="1065" y="780" type="curve"/>
      <point x="1110" y="1040" type="line"/>
      <point x="1155" y="1040" type="line"/>
      <point x="1155" y="1040"/>
      <point x="1136" y="930"/>
      <point x="1119" y="832" type="curve" smooth="yes"/>
      <point x="983" y="60" type="line" smooth="yes"/>
      <point x="928" y="-252"/>
      <point x="698" y="-470"/>
      <point x="451" y="-470" type="curve" smooth="yes"/>
      <point x="284" y="-470"/>
      <point x="159" y="-370"/>
      <point x="114" y="-208" type="curve"/>
      <point x="157" y="-186" type="line"/>
      <point x="204" y="-352"/>
      <point x="338" y="-430"/>
      <point x="458" y="-430" type="curve" smooth="yes"/>
      <point x="626" y="-430"/>
      <point x="879" y="-276"/>
      <point x="938" y="60" type="curve" smooth="yes"/>
      <point x="973" y="260" type="line"/>
      <point x="922" y="144"/>
      <point x="758" y="-10"/>
      <point x="558" y="-10" type="curve" smooth="yes"/>
      <point x="348" y="-10"/>
      <point x="219" y="148"/>
    </contour>
    <contour>
      <point x="565" y="30" type="curve" smooth="yes"/>
      <point x="821" y="30"/>
      <point x="1039" y="319"/>
      <point x="1039" y="648" type="curve" smooth="yes"/>
      <point x="1039" y="895"/>
      <point x="889" y="1010"/>
      <point x="738" y="1010" type="curve" smooth="yes"/>
      <point x="482" y="1010"/>
      <point x="265" y="721"/>
      <point x="265" y="392" type="curve" smooth="yes"/>
      <point x="265" y="145"/>
      <point x="414" y="30"/>
    </contour>
  </outline>
</glyph>
<glyph name="h" format="2">
  <advance width="1130"/>
  <unicode hex="0068"/>
  <anchor x="69" y="-20" name="bottom_cedilla"/>
  <anchor x="316" y="1380" name="top_center"/>
  <anchor x="435" y="0" name="bottom_center"/>
  <outline>
    <contour>
      <point x="775" y="0" type="line"/>
      <point x="875" y="572" type="line" smooth="yes"/>
      <point x="914" y="791"/>
      <point x="883" y="1010"/>
      <point x="613" y="1010" type="curve" smooth="yes"/>
      <point x="343" y="1010"/>
      <point x="234" y="791"/>
      <point x="195" y="572" type="curve" smooth="yes"/>
      <point x="95" y="0" type="line"/>
      <point x="50" y="0" type="line"/>
      <point x="310" y="1480" type="line"/>
      <point x="355" y="1480" type="line"/>
      <point x="239" y="820" type="line"/>
      <point x="295" y="927"/>
      <point x="400" y="1050"/>
      <point x="630" y="1050" type="curve" smooth="yes"/>
      <point x="868" y="1050"/>
      <point x="976" y="892"/>
      <point x="920" y="572" type="curve"/>
      <point x="820" y="0" type="line"/>
    </contour>
  </outline>
</glyph>
<glyph name="k" format="2">
  <advance width="1029"/>
  <unicode hex="006B"/>
  <anchor x="449" y="1380" name="top_center"/>
  <anchor x="557" y="0" name="bottom_center"/>
  <outline>
    <contour>
      <point x="557" y="601" type="line"/>
      <point x="593" y="630" type="line"/>
      <point x="929" y="0" type="line"/>
      <point x="877" y="0" type="line"/>
    </contour>
    <contour>
      <point x="285" y="340" type="line"/>
      <point x="225" y="0" type="line"/>
      <point x="180" y="0" type="line"/>
      <point x="441" y="1480" type="line"/>
      <point x="486" y="1480" type="line"/>
      <point x="295" y="398" type="line"/>
      <point x="1050" y="1040" type="line"/>
      <point x="1108" y="1040" type="line"/>
    </contour>
  </outline>
</glyph>
<glyph name="l" format="2">
  <advance width="540"/>
  <unicode hex="006C"/>
  <anchor x="317" y="1380" name="top_center"/>
  <anchor x="182" y="0" name="bottom_center"/>
  <outline>
    <contour>
      <point x="369" y="56" type="curve"/>
      <point x="373" y="14" type="line"/>
      <point x="345" y="-3"/>
      <point x="314" y="-10"/>
      <point x="286" y="-10" type="curve" smooth="yes"/>
      <point x="136" y="-10"/>
      <point x="61" y="60"/>
      <point x="91" y="230" type="curve" smooth="yes"/>
      <point x="128" y="440" type="line"/>
      <point x="152" y="578" type="line"/>
      <point x="311" y="1480" type="line"/>
      <point x="356" y="1480" type="line"/>
      <point x="197" y="578" type="line"/>
      <point x="173" y="440" type="line"/>
      <point x="136" y="230" type="line" smooth="yes"/>
      <point x="102" y="40"/>
      <point x="240" y="30"/>
      <point x="293" y="30" type="curve" smooth="yes"/>
      <point x="307" y="30"/>
      <point x="334" y="36"/>
    </contour>
  </outline>
</glyph>
<glyph name="m" format="2">
  <advance width="1694"/>
  <unicode hex="006D"/>
  <anchor x="1030" y="1040" name="top_center"/>
  <anchor x="847" y="0" name="bottom_center"/>
  <outline>
    <contour>
      <point x="824" y="0" type="line"/>
      <point x="925" y="572" type="line" smooth="yes"/>
      <point x="934" y="625"/>
      <point x="940" y="679"/>
      <point x="940" y="729" type="curve" smooth="yes"/>
      <point x="940" y="885"/>
      <point x="884" y="1010"/>
      <point x="702" y="1010" type="curve" smooth="yes"/>
      <point x="462" y="1010"/>
      <point x="364" y="791"/>
      <point x="325" y="572" type="curve" smooth="yes"/>
      <point x="224" y="0" type="line"/>
      <point x="180" y="0" type="line"/>
      <point x="363" y="1040" type="line"/>
      <point x="407" y="1040" type="line"/>
      <point x="369" y="820" type="line"/>
      <point x="415" y="927"/>
      <point x="509" y="1050"/>
      <point x="719" y="1050" type="curve" smooth="yes"/>
      <point x="885" y="1050"/>
      <point x="981" y="951"/>
      <point x="986" y="751" type="curve"/>
      <point x="1055" y="950"/>
      <point x="1166" y="1050"/>
      <point x="1365" y="1050" type="curve" smooth="yes"/>
      <point x="1535" y="1050"/>
      <point x="1631" y="946"/>
      <point x="1631" y="736" type="curve" smooth="yes"/>
      <point x="1631" y="687"/>
      <point x="1626" y="633"/>
      <point x="1615" y="572" type="curve" smooth="yes"/>
      <point x="1514" y="0" type="line"/>
      <point x="1470" y="0" type="line"/>
      <point x="1571" y="572" type="line" smooth="yes"/>
      <point x="1580" y="621"/>
      <point x="1585" y="671"/>
      <point x="1585" y="718" type="curve" smooth="yes"/>
      <point x="1585" y="879"/>
      <point x="1524" y="1010"/>
      <point x="1338" y="1010" type="curve" smooth="yes"/>
      <point x="1118" y="1010"/>
      <point x="1010" y="791"/>
      <point x="971" y="572" type="curve" smooth="yes"/>
      <point x="870" y="0" type="line"/>
    </contour>
  </outline>
</glyph>
<glyph name="n" format="2">
  <advance width="1130"/>
  <unicode hex="006E"/>
  <anchor x="748" y="1040" name="top_center"/>
  <anchor x="565" y="0" name="bottom_center"/>
  <outline>
    <contour>
      <point x="905" y="0" type="line"/>
      <point x="1006" y="572" type="line" smooth="yes"/>
      <point x="1014" y="620"/>
      <point x="1019" y="667"/>
      <point x="1019" y="713" type="curve" smooth="yes"/>
      <point x="1019" y="876"/>
      <point x="954" y="1010"/>
      <point x="743" y="1010" type="curve" smooth="yes"/>
      <point x="473" y="1010"/>
      <point x="365" y="791"/>
      <point x="326" y="572" type="curve" smooth="yes"/>
      <point x="225" y="0" type="line"/>
      <point x="180" y="0" type="line"/>
      <point x="363" y="1040" type="line"/>
      <point x="408" y="1040" type="line"/>
      <point x="370" y="820" type="line"/>
      <point x="426" y="927"/>
      <point x="530" y="1050"/>
      <point x="760" y="1050" type="curve" smooth="yes"/>
      <point x="957" y="1050"/>
      <point x="1065" y="942"/>
      <point x="1065" y="724" type="curve" smooth="yes"/>
      <point x="1065" y="678"/>
      <point x="1061" y="628"/>
      <point x="1051" y="572" type="curve" smooth="yes"/>
      <point x="950" y="0" type="line"/>
    </contour>
  </outline>
</glyph>
<glyph name="o" format="2">
  <advance width="1156"/>
  <unicode hex="006F"/>
  <anchor x="574" y="-20" name="bottom_cedilla"/>
  <anchor x="761" y="1040" name="top_center"/>
  <anchor x="578" y="0" name="bottom_center"/>
  <anchor x="1157" y="1040" name="top_right"/>
  <anchor x="667" y="0" name="bottom_right"/>
  <outline>
    <contour>
      <point x="756" y="1010" type="curve" smooth="yes"/>
      <point x="567" y="1010"/>
      <point x="266" y="784"/>
      <point x="266" y="404" type="curve" smooth="yes"/>
      <point x="266" y="149"/>
      <point x="436" y="30"/>
      <point x="583" y="30" type="curve" smooth="yes"/>
      <point x="772" y="30"/>
      <point x="1073" y="256"/>
      <point x="1073" y="636" type="curve" smooth="yes"/>
      <point x="1073" y="891"/>
      <point x="903" y="1010"/>
    </contour>
    <contour>
      <point x="220" y="397" type="curve" smooth="yes"/>
      <point x="220" y="774"/>
      <point x="485" y="1050"/>
      <point x="763" y="1050" type="curve" smooth="yes"/>
      <point x="976" y="1050"/>
      <point x="1119" y="888"/>
      <point x="1119" y="643" type="curve" smooth="yes"/>
      <point x="1119" y="266"/>
      <point x="854" y="-10"/>
      <point x="576" y="-10" type="curve" smooth="yes"/>
      <point x="363" y="-10"/>
      <point x="220" y="152"/>
    </contour>
  </outline>
</glyph>
<glyph name="p" format="2">
  <advance width="1152"/>
  <unicode hex="0070"/>
  <anchor x="645" y="1040" name="top_center"/>
  <anchor x="462" y="0" name="bottom_center"/>
  <outline>
    <contour>
      <point x="640" y="1010" type="curve" smooth="yes"/>
      <point x="440" y="1010"/>
      <point x="167" y="768"/>
      <point x="167" y="392" type="curve" smooth="yes"/>
      <point x="167" y="145"/>
      <point x="316" y="30"/>
      <point x="467" y="30" type="curve" smooth="yes"/>
      <point x="667" y="30"/>
      <point x="941" y="272"/>
      <point x="941" y="648" type="curve" smooth="yes"/>
      <point x="941" y="895"/>
      <point x="791" y="1010"/>
    </contour>
    <contour>
      <point x="233" y="1040" type="line"/>
      <point x="278" y="1040" type="line"/>
      <point x="233" y="780" type="line"/>
      <point x="284" y="896"/>
      <point x="437" y="1050"/>
      <point x="647" y="1050" type="curve" smooth="yes"/>
      <point x="857" y="1050"/>
      <point x="986" y="892"/>
      <point x="986" y="653" type="curve" smooth="yes"/>
      <point x="986" y="276"/>
      <point x="741" y="-10"/>
      <point x="460" y="-10" type="curve" smooth="yes"/>
      <point x="260" y="-10"/>
      <point x="152" y="144"/>
      <point x="141" y="260" type="curve"/>
      <point x="17" y="-440" type="line"/>
      <point x="-28" y="-440" type="line"/>
    </contour>
  </outline>
</glyph>
<glyph name="q" format="2">
  <advance width="1152"/>
  <unicode hex="0071"/>
  <anchor x="560" y="0" name="bottom_center"/>
  <anchor x="743" y="1040" name="top_center"/>
  <outline>
    <contour>
      <point x="565" y="30" type="curve" smooth="yes"/>
      <point x="765" y="30"/>
      <point x="1039" y="272"/>
      <point x="1039" y="648" type="curve" smooth="yes"/>
      <point x="1039" y="895"/>
      <point x="889" y="1010"/>
      <point x="738" y="1010" type="curve" smooth="yes"/>
      <point x="538" y="1010"/>
      <point x="265" y="768"/>
      <point x="265" y="392" type="curve" smooth="yes"/>
      <point x="265" y="145"/>
      <point x="414" y="30"/>
    </contour>
    <contour>
      <point x="894" y="-440" type="line"/>
      <point x="849" y="-440" type="line"/>
      <point x="973" y="260" type="line"/>
      <point x="922" y="144"/>
      <point x="758" y="-10"/>
      <point x="558" y="-10" type="curve" smooth="yes"/>
      <point x="348" y="-10"/>
      <point x="219" y="148"/>
      <point x="219" y="387" type="curve" smooth="yes"/>
      <point x="219" y="764"/>
      <point x="464" y="1050"/>
      <point x="745" y="1050" type="curve" smooth="yes"/>
      <point x="955" y="1050"/>
      <point x="1054" y="896"/>
      <point x="1065" y="780" type="curve"/>
      <point x="1110" y="1040" type="line"/>
      <point x="1155" y="1040" type="line"/>
    </contour>
  </outline>
</glyph>
<glyph name="r" format="2">
  <advance width="777"/>
  <unicode hex="0072"/>
  <anchor x="528" y="1040" name="top_center"/>
  <anchor x="76" y="0" name="bottom_center"/>
  <outline>
    <contour>
      <point x="727" y="972" type="line"/>
      <point x="696" y="994"/>
      <point x="659" y="1010"/>
      <point x="613" y="1010" type="curve" smooth="yes"/>
      <point x="343" y="1010"/>
      <point x="235" y="791"/>
      <point x="196" y="572" type="curve" smooth="yes"/>
      <point x="95" y="0" type="line"/>
      <point x="50" y="0" type="line"/>
      <point x="233" y="1040" type="line"/>
      <point x="278" y="1040" type="line"/>
      <point x="240" y="820" type="line"/>
      <point x="296" y="927"/>
      <point x="400" y="1050"/>
      <point x="630" y="1050" type="curve" smooth="yes"/>
      <point x="674" y="1050"/>
      <point x="723" y="1035"/>
      <point x="756" y="1014" type="curve"/>
    </contour>
  </outline>
</glyph>
<glyph name="s" format="2">
  <advance width="1002"/>
  <unicode hex="0073"/>
  <anchor x="410" y="-20" name="bottom_cedilla"/>
  <anchor x="521" y="0" name="bottom_right"/>
  <anchor x="413" y="0" name="bottom_center"/>
  <anchor x="597" y="1040" name="top_center"/>
  <outline>
    <contour>
      <point x="598" y="1050" type="curve" smooth="yes"/>
      <point x="791" y="1050"/>
      <point x="887" y="953"/>
      <point x="895" y="808" type="curve"/>
      <point x="853" y="786" type="line"/>
      <point x="841" y="964"/>
      <point x="707" y="1010"/>
      <point x="591" y="1010" type="curve" smooth="yes"/>
      <point x="475" y="1010"/>
      <point x="296" y="950"/>
      <point x="266" y="780" type="curve" smooth="yes"/>
      <point x="234" y="600"/>
      <point x="388" y="580"/>
      <point x="510" y="546" type="curve" smooth="yes"/>
      <point x="706" y="492"/>
      <point x="851" y="457"/>
      <point x="816" y="261" type="curve" smooth="yes"/>
      <point x="785" y="85"/>
      <point x="614" y="-10"/>
      <point x="412" y="-10" type="curve" smooth="yes"/>
      <point x="210" y="-10"/>
      <point x="101" y="108"/>
      <point x="93" y="253" type="curve"/>
      <point x="135" y="275" type="line"/>
      <point x="145" y="105"/>
      <point x="287" y="30"/>
      <point x="419" y="30" type="curve" smooth="yes"/>
      <point x="551" y="30"/>
      <point x="741" y="91"/>
      <point x="771" y="261" type="curve" smooth="yes"/>
      <point x="803" y="441"/>
      <point x="623" y="466"/>
      <point x="501" y="500" type="curve" smooth="yes"/>
      <point x="305" y="554"/>
      <point x="188" y="595"/>
      <point x="221" y="780" type="curve" smooth="yes"/>
      <point x="248" y="935"/>
      <point x="405" y="1050"/>
    </contour>
  </outline>
</glyph>
<glyph name="t" format="2">
  <advance width="772"/>
  <unicode hex="0074"/>
  <anchor x="414" y="-20" name="bottom_cedilla"/>
  <anchor x="391" y="0" name="bottom_center"/>
  <anchor x="606" y="1380" name="top_center"/>
  <outline>
    <contour>
      <point x="216" y="1040" type="line"/>
      <point x="366" y="1040"/>
      <point x="385" y="1056"/>
      <point x="411" y="1206" type="curve"/>
      <point x="431" y="1320" type="line"/>
      <point x="476" y="1320" type="line"/>
      <point x="427" y="1040" type="line"/>
      <point x="733" y="1040" type="line"/>
      <point x="726" y="1000" type="line"/>
      <point x="420" y="1000" type="line"/>
      <point x="296" y="300" type="line" smooth="yes"/>
      <point x="254" y="60"/>
      <point x="357" y="30"/>
      <point x="447" y="30" type="curve" smooth="yes"/>
      <point x="485" y="30"/>
      <point x="540" y="37"/>
      <point x="584" y="65" type="curve"/>
      <point x="590" y="22" type="line"/>
      <point x="547" y="4"/>
      <point x="489" y="-10"/>
      <point x="440" y="-10" type="curve" smooth="yes"/>
      <point x="264" y="-10"/>
      <point x="216" y="100"/>
      <point x="251" y="300" type="curve" smooth="yes"/>
      <point x="375" y="1000" type="line"/>
      <point x="131" y="1000" type="line"/>
      <point x="138" y="1040" type="line"/>
    </contour>
  </outline>
</glyph>
<glyph name="u" format="2">
  <advance width="1130"/>
  <unicode hex="0075"/>
  <anchor x="462" y="-10" name="bottom_cedilla"/>
  <anchor x="871" y="0" name="bottom_right"/>
  <anchor x="1043" y="1040" name="top_right"/>
  <anchor x="658" y="1040" name="top_center"/>
  <anchor x="474" y="0" name="bottom_center"/>
  <outline>
    <contour>
      <point x="318" y="1040" type="line"/>
      <point x="217" y="468" type="line" smooth="yes"/>
      <point x="178" y="249"/>
      <point x="209" y="30"/>
      <point x="479" y="30" type="curve" smooth="yes"/>
      <point x="749" y="30"/>
      <point x="858" y="249"/>
      <point x="897" y="468" type="curve" smooth="yes"/>
      <point x="998" y="1040" type="line"/>
      <point x="1043" y="1040" type="line"/>
      <point x="896" y="208" type="line"/>
      <point x="879" y="110"/>
      <point x="871" y="0"/>
      <point x="871" y="0" type="curve"/>
      <point x="826" y="0" type="line"/>
      <point x="826" y="0"/>
      <point x="834" y="110"/>
      <point x="853" y="220" type="curve"/>
      <point x="797" y="113"/>
      <point x="692" y="-10"/>
      <point x="462" y="-10" type="curve" smooth="yes"/>
      <point x="224" y="-10"/>
      <point x="116" y="148"/>
      <point x="172" y="468" type="curve"/>
      <point x="273" y="1040" type="line"/>
    </contour>
  </outline>
</glyph>
<glyph name="v" format="2">
  <advance width="1050"/>
  <unicode hex="0076"/>
  <anchor x="578" y="1040" name="top_center"/>
  <anchor x="395" y="0" name="bottom_center"/>
  <outline>
    <contour>
      <point x="405" y="56" type="line"/>
      <point x="935" y="1040" type="line"/>
      <point x="983" y="1040" type="line"/>
      <point x="420" y="0" type="line"/>
      <point x="370" y="0" type="line"/>
      <point x="173" y="1040" type="line"/>
      <point x="221" y="1040" type="line"/>
    </contour>
  </outline>
</glyph>
<glyph name="w" format="2">
  <advance width="1516"/>
  <unicode hex="0077"/>
  <anchor x="850" y="1040" name="top_center"/>
  <anchor x="666" y="0" name="bottom_center"/>
  <outline>
    <contour>
      <point x="336" y="0" type="line"/>
      <point x="212" y="1040" type="line"/>
      <point x="260" y="1040" type="line"/>
      <point x="375" y="89" type="line"/>
      <point x="826" y="1040" type="line"/>
      <point x="874" y="1040" type="line"/>
      <point x="989" y="89" type="line"/>
      <point x="1440" y="1040" type="line"/>
      <point x="1488" y="1040" type="line"/>
      <point x="996" y="0" type="line"/>
      <point x="950" y="0" type="line"/>
      <point x="835" y="960" type="line"/>
      <point x="382" y="0" type="line"/>
    </contour>
  </outline>
</glyph>
<glyph name="x" format="2">
  <advance width="998"/>
  <unicode hex="0078"/>
  <anchor x="682" y="1040" name="top_center"/>
  <anchor x="499" y="0" name="bottom_center"/>
  <outline>
    <contour>
      <point x="552" y="520" type="line"/>
      <point x="303" y="1040" type="line"/>
      <point x="355" y="1040" type="line"/>
      <point x="596" y="550" type="line"/>
      <point x="1009" y="1040" type="line"/>
      <point x="1061" y="1040" type="line"/>
      <point x="630" y="520" type="line"/>
      <point x="878" y="0" type="line"/>
      <point x="826" y="0" type="line"/>
      <point x="585" y="490" type="line"/>
      <point x="172" y="0" type="line"/>
      <point x="120" y="0" type="line"/>
    </contour>
  </outline>
</glyph>
<glyph name="y" format="2">
  <advance width="1098"/>
  <unicode hex="0079"/>
  <anchor x="626" y="1040" name="top_center"/>
  <anchor x="137" y="-360" name="bottom_center"/>
  <outline>
    <contour>
      <point x="298" y="-312" type="line" smooth="yes"/>
      <point x="250" y="-401"/>
      <point x="172" y="-450"/>
      <point x="56" y="-450" type="curve" smooth="yes"/>
      <point x="7" y="-450"/>
      <point x="-47" y="-436"/>
      <point x="-84" y="-418" type="curve"/>
      <point x="-62" y="-375" type="line"/>
      <point x="-28" y="-403"/>
      <point x="25" y="-410"/>
      <point x="63" y="-410" type="curve" smooth="yes"/>
      <point x="128" y="-410"/>
      <point x="206" y="-395"/>
      <point x="259" y="-296" type="curve" smooth="yes"/>
      <point x="418" y="0" type="line"/>
      <point x="221" y="1040" type="line"/>
      <point x="269" y="1040" type="line"/>
      <point x="453" y="56" type="line"/>
      <point x="983" y="1040" type="line"/>
      <point x="1031" y="1040" type="line"/>
    </contour>
  </outline>
</glyph>
<glyph name="z" format="2">
  <advance width="1012"/>
  <unicode hex="007A"/>
  <anchor x="559" y="1040" name="top_center"/>
  <anchor x="376" y="0" name="bottom_center"/>
  <outline>
    <contour>
      <point x="233" y="1040" type="line"/>
      <point x="885" y="1040" type="line"/>
      <point x="880" y="1008" type="line"/>
      <point x="849" y="1000" type="line"/>
      <point x="226" y="1000" type="line"/>
    </contour>
    <contour>
      <point x="709" y="40" type="line"/>
      <point x="702" y="0" type="line"/>
      <point x="50" y="0" type="line"/>
      <point x="56" y="32" type="line"/>
      <point x="86" y="40" type="line"/>
    </contour>
    <contour>
      <point x="109" y="40" type="line"/>
      <point x="56" y="32" type="line"/>
      <point x="826" y="1000" type="line"/>
      <point x="880" y="1008" type="line"/>
    </contour>
  </outline>
</glyph>
<glyph name="braceleft" format="2">
  <advance width="739"/>
  <unicode hex="007B"/>
  <outline>
    <contour>
      <point x="421" y="20" type="line" smooth="yes"/>
      <point x="415" y="-15"/>
      <point x="411" y="-48"/>
      <point x="411" y="-77" type="curve" smooth="yes"/>
      <point x="411" y="-199"/>
      <point x="466" y="-270"/>
      <point x="601" y="-270" type="curve"/>
      <point x="594" y="-310" type="line"/>
      <point x="436" y="-310"/>
      <point x="365" y="-237"/>
      <point x="365" y="-91" type="curve" smooth="yes"/>
      <point x="365" y="-58"/>
      <point x="369" y="-21"/>
      <point x="376" y="20" type="curve" smooth="yes"/>
      <point x="434" y="350" type="line" smooth="yes"/>
      <point x="440" y="385"/>
      <point x="443" y="418"/>
      <point x="443" y="447" type="curve" smooth="yes"/>
      <point x="443" y="569"/>
      <point x="388" y="640"/>
      <point x="253" y="640" type="curve"/>
      <point x="260" y="680" type="line"/>
      <point x="418" y="680"/>
      <point x="490" y="607"/>
      <point x="490" y="461" type="curve" smooth="yes"/>
      <point x="490" y="428"/>
      <point x="486" y="391"/>
      <point x="479" y="350" type="curve" smooth="yes"/>
    </contour>
    <contour>
      <point x="646" y="1300" type="curve" smooth="yes"/>
      <point x="588" y="970" type="line" smooth="yes"/>
      <point x="549" y="750"/>
      <point x="447" y="640"/>
      <point x="253" y="640" type="curve"/>
      <point x="260" y="680" type="line"/>
      <point x="427" y="680"/>
      <point x="511" y="790"/>
      <point x="543" y="970" type="curve" smooth="yes"/>
      <point x="601" y="1300" type="line" smooth="yes"/>
      <point x="640" y="1520"/>
      <point x="742" y="1630"/>
      <point x="936" y="1630" type="curve"/>
      <point x="929" y="1590" type="line"/>
      <point x="762" y="1590"/>
      <point x="678" y="1480"/>
    </contour>
  </outline>
</glyph>
<glyph name="bar" format="2">
  <advance width="404"/>
  <unicode hex="007C"/>
  <outline>
    <contour>
      <point x="383" y="1640" type="line"/>
      <point x="16" y="-440" type="line"/>
      <point x="-28" y="-440" type="line"/>
      <point x="339" y="1640" type="line"/>
    </contour>
  </outline>
</glyph>
<glyph name="braceright" format="2">
  <advance width="739"/>
  <unicode hex="007D"/>
  <outline>
    <contour>
      <point x="196" y="20" type="curve" smooth="yes"/>
      <point x="254" y="350" type="line" smooth="yes"/>
      <point x="293" y="570"/>
      <point x="395" y="680"/>
      <point x="589" y="680" type="curve"/>
      <point x="582" y="640" type="line"/>
      <point x="415" y="640"/>
      <point x="331" y="530"/>
      <point x="299" y="350" type="curve" smooth="yes"/>
      <point x="241" y="20" type="line" smooth="yes"/>
      <point x="202" y="-200"/>
      <point x="99" y="-310"/>
      <point x="-95" y="-310" type="curve"/>
      <point x="-88" y="-270" type="line"/>
      <point x="79" y="-270"/>
      <point x="164" y="-160"/>
    </contour>
    <contour>
      <point x="421" y="1300" type="line" smooth="yes"/>
      <point x="427" y="1335"/>
      <point x="431" y="1368"/>
      <point x="431" y="1397" type="curve" smooth="yes"/>
      <point x="431" y="1519"/>
      <point x="375" y="1590"/>
      <point x="240" y="1590" type="curve"/>
      <point x="247" y="1630" type="line"/>
      <point x="405" y="1630"/>
      <point x="477" y="1557"/>
      <point x="477" y="1411" type="curve" smooth="yes"/>
      <point x="477" y="1378"/>
      <point x="473" y="1341"/>
      <point x="466" y="1300" type="curve" smooth="yes"/>
      <point x="408" y="970" type="line" smooth="yes"/>
      <point x="402" y="935"/>
      <point x="399" y="902"/>
      <point x="399" y="873" type="curve" smooth="yes"/>
      <point x="399" y="751"/>
      <point x="454" y="680"/>
      <point x="589" y="680" type="curve"/>
      <point x="582" y="640" type="line"/>
      <point x="424" y="640"/>
      <point x="352" y="713"/>
      <point x="352" y="859" type="curve" smooth="yes"/>
      <point x="352" y="892"/>
      <point x="356" y="929"/>
      <point x="363" y="970" type="curve" smooth="yes"/>
    </contour>
  </outline>
</glyph>
<glyph name="exclamdown" format="2">
  <advance width="488"/>
  <unicode hex="00A1"/>
  <outline>
    <contour>
      <point x="352" y="986" type="curve" smooth="yes"/>
      <point x="352" y="950"/>
      <point x="324" y="922"/>
      <point x="288" y="922" type="curve" smooth="yes"/>
      <point x="252" y="922"/>
      <point x="224" y="950"/>
      <point x="224" y="986" type="curve" smooth="yes"/>
      <point x="224" y="1022"/>
      <point x="252" y="1050"/>
      <point x="288" y="1050" type="curve" smooth="yes"/>
      <point x="324" y="1050"/>
      <point x="352" y="1022"/>
    </contour>
    <contour>
      <point x="63" y="-440" type="line"/>
      <point x="9" y="-440" type="line"/>
      <point x="195" y="588" type="line"/>
      <point x="241" y="588" type="line"/>
    </contour>
  </outline>
</glyph>
<glyph name="yen" format="2">
  <advance width="1342"/>
  <unicode hex="00A5"/>
  <outline>
    <contour>
      <point x="250" y="663" type="line"/>
      <point x="257" y="705" type="line"/>
      <point x="1073" y="705" type="line"/>
      <point x="1066" y="663" type="line"/>
    </contour>
    <contour>
      <point x="199" y="375" type="line"/>
      <point x="207" y="417" type="line"/>
      <point x="1023" y="417" type="line"/>
      <point x="1015" y="375" type="line"/>
    </contour>
    <contour>
      <point x="518" y="0" type="line"/>
      <point x="648" y="740" type="line"/>
      <point x="694" y="740" type="line"/>
      <point x="564" y="0" type="line"/>
    </contour>
    <contour>
      <point x="682" y="719" type="line"/>
      <point x="655" y="716" type="line"/>
      <point x="251" y="1480" type="line"/>
      <point x="305" y="1480" type="line"/>
      <point x="678" y="778" type="line"/>
      <point x="1299" y="1480" type="line"/>
      <point x="1353" y="1480" type="line"/>
    </contour>
  </outline>
</glyph>
<glyph name="brokenbar" format="2">
  <advance width="405"/>
  <unicode hex="00A6"/>
  <outline>
    <contour>
      <point x="180" y="570" type="line"/>
      <point x="225" y="570" type="line"/>
      <point x="225" y="-320" type="line"/>
      <point x="180" y="-320" type="line"/>
    </contour>
    <contour>
      <point x="225" y="750" type="line"/>
      <point x="180" y="750" type="line"/>
      <point x="180" y="1640" type="line"/>
      <point x="225" y="1640" type="line"/>
    </contour>
  </outline>
</glyph>
<glyph name="section" format="2">
  <advance width="1118"/>
  <unicode hex="00A7"/>
  <outline>
    <contour>
      <point x="355" y="-420" type="curve" smooth="yes"/>
      <point x="460" y="-420"/>
      <point x="784" y="-375"/>
      <point x="784" y="-85" type="curve" smooth="yes"/>
      <point x="784" y="81"/>
      <point x="625" y="128"/>
      <point x="460" y="173" type="curve" smooth="yes"/>
      <point x="282" y="222"/>
      <point x="97" y="268"/>
      <point x="97" y="458" type="curve" smooth="yes"/>
      <point x="97" y="546"/>
      <point x="130" y="862"/>
      <point x="582" y="862" type="curve"/>
      <point x="575" y="822" type="line"/>
      <point x="496" y="822"/>
      <point x="143" y="801"/>
      <point x="143" y="471" type="curve" smooth="yes"/>
      <point x="143" y="309"/>
      <point x="303" y="265"/>
      <point x="468" y="220" type="curve" smooth="yes"/>
      <point x="646" y="172"/>
      <point x="831" y="124"/>
      <point x="831" y="-70" type="curve" smooth="yes"/>
      <point x="831" y="-187"/>
      <point x="784" y="-460"/>
      <point x="348" y="-460" type="curve" smooth="yes"/>
      <point x="148" y="-460"/>
      <point x="-13" y="-348"/>
      <point x="-13" y="-158" type="curve" smooth="yes"/>
      <point x="-13" y="-138"/>
      <point x="-11" y="-116"/>
      <point x="-7" y="-94" type="curve"/>
      <point x="42" y="-81" type="line"/>
      <point x="38" y="-104"/>
      <point x="36" y="-126"/>
      <point x="36" y="-146" type="curve" smooth="yes"/>
      <point x="36" y="-334"/>
      <point x="197" y="-420"/>
    </contour>
    <contour>
      <point x="685" y="1450" type="curve" smooth="yes"/>
      <point x="508" y="1450"/>
      <point x="300" y="1329"/>
      <point x="300" y="1120" type="curve" smooth="yes"/>
      <point x="300" y="955"/>
      <point x="435" y="904"/>
      <point x="582" y="862" type="curve" smooth="yes"/>
      <point x="756" y="812"/>
      <point x="945" y="776"/>
      <point x="945" y="584" type="curve" smooth="yes"/>
      <point x="945" y="493"/>
      <point x="911" y="173"/>
      <point x="460" y="173" type="curve"/>
      <point x="467" y="213" type="line"/>
      <point x="551" y="213"/>
      <point x="899" y="240"/>
      <point x="899" y="571" type="curve" smooth="yes"/>
      <point x="899" y="731"/>
      <point x="736" y="771"/>
      <point x="574" y="819" type="curve" smooth="yes"/>
      <point x="413" y="866"/>
      <point x="253" y="920"/>
      <point x="253" y="1102" type="curve" smooth="yes"/>
      <point x="253" y="1355"/>
      <point x="462" y="1490"/>
      <point x="692" y="1490" type="curve" smooth="yes"/>
      <point x="886" y="1490"/>
      <point x="1010" y="1384"/>
      <point x="1010" y="1203" type="curve" smooth="yes"/>
      <point x="1010" y="1178"/>
      <point x="1008" y="1152"/>
      <point x="1003" y="1124" type="curve"/>
      <point x="955" y="1111" type="line"/>
      <point x="960" y="1139"/>
      <point x="962" y="1165"/>
      <point x="962" y="1190" type="curve" smooth="yes"/>
      <point x="962" y="1368"/>
      <point x="839" y="1450"/>
    </contour>
  </outline>
</glyph>
<glyph name="copyright" format="2">
  <advance width="1780"/>
  <unicode hex="00A9"/>
  <outline>
    <contour>
      <point x="170" y="740" type="curve" smooth="yes"/>
      <point x="170" y="330"/>
      <point x="480" y="20"/>
      <point x="890" y="20" type="curve" smooth="yes"/>
      <point x="1300" y="20"/>
      <point x="1610" y="330"/>
      <point x="1610" y="740" type="curve" smooth="yes"/>
      <point x="1610" y="1150"/>
      <point x="1300" y="1460"/>
      <point x="890" y="1460" type="curve" smooth="yes"/>
      <point x="480" y="1460"/>
      <point x="170" y="1150"/>
    </contour>
    <contour>
      <point x="140" y="740" type="curve" smooth="yes"/>
      <point x="140" y="1160"/>
      <point x="470" y="1490"/>
      <point x="890" y="1490" type="curve" smooth="yes"/>
      <point x="1310" y="1490"/>
      <point x="1640" y="1160"/>
      <point x="1640" y="740" type="curve" smooth="yes"/>
      <point x="1640" y="320"/>
      <point x="1310" y="-10"/>
      <point x="890" y="-10" type="curve" smooth="yes"/>
      <point x="470" y="-10"/>
      <point x="140" y="320"/>
    </contour>
    <contour>
      <point x="559" y="740" type="curve" smooth="yes"/>
      <point x="559" y="1012"/>
      <point x="739" y="1145"/>
      <point x="890" y="1145" type="curve" smooth="yes"/>
      <point x="997" y="1145"/>
      <point x="1118" y="1079"/>
      <point x="1180" y="944" type="curve"/>
      <point x="1208" y="960" type="line"/>
      <point x="1145" y="1092"/>
      <point x="1029" y="1175"/>
      <point x="890" y="1175" type="curve" smooth="yes"/>
      <point x="685" y="1175"/>
      <point x="526" y="995"/>
      <point x="526" y="740" type="curve" smooth="yes"/>
      <point x="526" y="485"/>
      <point x="685" y="305"/>
      <point x="890" y="305" type="curve" smooth="yes"/>
      <point x="1029" y="305"/>
      <point x="1145" y="388"/>
      <point x="1208" y="520" type="curve"/>
      <point x="1180" y="536" type="line"/>
      <point x="1118" y="401"/>
      <point x="997" y="335"/>
      <point x="890" y="335" type="curve" smooth="yes"/>
      <point x="739" y="335"/>
      <point x="559" y="468"/>
    </contour>
  </outline>
</glyph>
<glyph name="guillemotleft" format="2">
  <advance width="1030"/>
  <unicode hex="00AB"/>
  <outline>
    <contour>
      <point x="858" y="196" type="line"/>
      <point x="508" y="660" type="line"/>
      <point x="858" y="1126" type="line"/>
      <point x="910" y="1126" type="line"/>
      <point x="556" y="660" type="line"/>
      <point x="910" y="196" type="line"/>
    </contour>
    <contour>
      <point x="470" y="196" type="line"/>
      <point x="120" y="660" type="line"/>
      <point x="470" y="1126" type="line"/>
      <point x="522" y="1126" type="line"/>
      <point x="168" y="660" type="line"/>
      <point x="522" y="196" type="line"/>
    </contour>
  </outline>
</glyph>
<glyph name="macron" format="2">
  <advance width="776"/>
  <unicode hex="00AF"/>
  <outline>
    <contour>
      <point x="244" y="1440" type="line"/>
      <point x="251" y="1480" type="line"/>
      <point x="787" y="1480" type="line"/>
      <point x="780" y="1440" type="line"/>
    </contour>
  </outline>
</glyph>
<glyph name="degree" format="2">
  <advance width="900"/>
  <unicode hex="00B0"/>
  <outline>
    <contour>
      <point x="185" y="1180" type="curve" smooth="yes"/>
      <point x="185" y="1025"/>
      <point x="295" y="910"/>
      <point x="450" y="910" type="curve" smooth="yes"/>
      <point x="605" y="910"/>
      <point x="715" y="1025"/>
      <point x="715" y="1180" type="curve" smooth="yes"/>
      <point x="715" y="1335"/>
      <point x="605" y="1450"/>
      <point x="450" y="1450" type="curve" smooth="yes"/>
      <point x="295" y="1450"/>
      <point x="185" y="1335"/>
    </contour>
    <contour>
      <point x="140" y="1180" type="curve" smooth="yes"/>
      <point x="140" y="1358"/>
      <point x="272" y="1490"/>
      <point x="450" y="1490" type="curve" smooth="yes"/>
      <point x="628" y="1490"/>
      <point x="760" y="1358"/>
      <point x="760" y="1180" type="curve" smooth="yes"/>
      <point x="760" y="1002"/>
      <point x="628" y="870"/>
      <point x="450" y="870" type="curve" smooth="yes"/>
      <point x="272" y="870"/>
      <point x="140" y="1002"/>
    </contour>
  </outline>
</glyph>
<glyph name="plusminus" format="2">
  <advance width="1232"/>
  <unicode hex="00B1"/>
  <outline>
    <contour>
      <point x="50" y="0" type="line"/>
      <point x="922" y="0" type="line"/>
      <point x="915" y="-40" type="line"/>
      <point x="43" y="-40" type="line"/>
    </contour>
    <contour>
      <point x="657" y="1096" type="line"/>
      <point x="503" y="224" type="line"/>
      <point x="547" y="224" type="line"/>
      <point x="701" y="1096" type="line"/>
    </contour>
    <contour>
      <point x="163" y="640" type="line"/>
      <point x="1035" y="640" type="line"/>
      <point x="1042" y="680" type="line"/>
      <point x="170" y="680" type="line"/>
    </contour>
  </outline>
</glyph>
<glyph name="two.superior" format="2">
  <advance width="796"/>
  <unicode hex="00B2"/>
  <outline>
    <contour>
      <point x="201" y="1374" type="line"/>
      <point x="201" y="1413"/>
      <point x="266" y="1644"/>
      <point x="470" y="1644" type="curve" smooth="yes"/>
      <point x="586" y="1644"/>
      <point x="656" y="1576"/>
      <point x="656" y="1467" type="curve" smooth="yes"/>
      <point x="656" y="1283"/>
      <point x="512" y="1202"/>
      <point x="377" y="1132" type="curve" smooth="yes"/>
      <point x="97" y="987"/>
      <point x="76" y="877"/>
      <point x="64" y="810" type="curve"/>
      <point x="583" y="810" type="line"/>
      <point x="588" y="840" type="line"/>
      <point x="103" y="840" type="line"/>
      <point x="143" y="976"/>
      <point x="277" y="1044"/>
      <point x="406" y="1116" type="curve" smooth="yes"/>
      <point x="550" y="1196"/>
      <point x="690" y="1282"/>
      <point x="690" y="1474" type="curve" smooth="yes"/>
      <point x="690" y="1603"/>
      <point x="603" y="1674"/>
      <point x="475" y="1674" type="curve" smooth="yes"/>
      <point x="329" y="1674"/>
      <point x="201" y="1561"/>
      <point x="169" y="1382" type="curve"/>
    </contour>
  </outline>
</glyph>
<glyph name="three.superior" format="2">
  <advance width="796"/>
  <unicode hex="00B3"/>
  <outline>
    <contour>
      <point x="643" y="1495" type="curve" smooth="yes"/>
      <point x="643" y="1374"/>
      <point x="538" y="1274"/>
      <point x="402" y="1274" type="curve" smooth="yes"/>
      <point x="354" y="1274" type="line"/>
      <point x="348" y="1244" type="line"/>
      <point x="397" y="1244" type="line" smooth="yes"/>
      <point x="497" y="1244"/>
      <point x="604" y="1183"/>
      <point x="604" y="1072" type="curve" smooth="yes"/>
      <point x="604" y="956"/>
      <point x="503" y="834"/>
      <point x="326" y="834" type="curve" smooth="yes"/>
      <point x="207" y="834"/>
      <point x="123" y="892"/>
      <point x="123" y="999" type="curve" smooth="yes"/>
      <point x="123" y="1012"/>
      <point x="124" y="1025"/>
      <point x="126" y="1039" type="curve"/>
      <point x="92" y="1032" type="line"/>
      <point x="90" y="1019"/>
      <point x="89" y="1005"/>
      <point x="89" y="993" type="curve" smooth="yes"/>
      <point x="89" y="876"/>
      <point x="178" y="804"/>
      <point x="321" y="804" type="curve" smooth="yes"/>
      <point x="519" y="804"/>
      <point x="637" y="939"/>
      <point x="637" y="1075" type="curve" smooth="yes"/>
      <point x="637" y="1190"/>
      <point x="541" y="1246"/>
      <point x="479" y="1259" type="curve"/>
      <point x="573" y="1270"/>
      <point x="677" y="1371"/>
      <point x="677" y="1505" type="curve" smooth="yes"/>
      <point x="677" y="1610"/>
      <point x="600" y="1674"/>
      <point x="473" y="1674" type="curve" smooth="yes"/>
      <point x="318" y="1674"/>
      <point x="207" y="1585"/>
      <point x="179" y="1446" type="curve"/>
      <point x="211" y="1439" type="line"/>
      <point x="234" y="1571"/>
      <point x="337" y="1644"/>
      <point x="467" y="1644" type="curve" smooth="yes"/>
      <point x="570" y="1644"/>
      <point x="643" y="1589"/>
    </contour>
  </outline>
</glyph>
<glyph name="paragraph" format="2">
  <advance width="1173"/>
  <unicode hex="00B6"/>
  <outline>
    <contour>
      <point x="1166" y="1490" type="line"/>
      <point x="730" y="1490" type="line"/>
      <point x="723" y="1450" type="line"/>
      <point x="1159" y="1450" type="line"/>
    </contour>
    <contour>
      <point x="957" y="1469" type="line"/>
      <point x="620" y="-440" type="line"/>
      <point x="665" y="-440" type="line"/>
      <point x="1002" y="1469" type="line"/>
    </contour>
    <contour>
      <point x="704" y="1470" type="line"/>
      <point x="367" y="-440" type="line"/>
      <point x="412" y="-440" type="line"/>
      <point x="749" y="1470" type="line"/>
    </contour>
    <contour>
      <point x="730" y="1490" type="line"/>
      <point x="385" y="1490"/>
      <point x="186" y="1220"/>
      <point x="186" y="956" type="curve" smooth="yes"/>
      <point x="186" y="742"/>
      <point x="338" y="616"/>
      <point x="576" y="616" type="curve"/>
    </contour>
  </outline>
</glyph>
<glyph name="periodcentered" format="2">
  <advance width="500"/>
  <unicode hex="00B7"/>
  <outline>
    <contour>
      <point x="172" y="660" type="curve" smooth="yes"/>
      <point x="172" y="696"/>
      <point x="201" y="724"/>
      <point x="237" y="724" type="curve" smooth="yes"/>
      <point x="273" y="724"/>
      <point x="300" y="696"/>
      <point x="300" y="660" type="curve" smooth="yes"/>
      <point x="300" y="624"/>
      <point x="272" y="596"/>
      <point x="236" y="596" type="curve" smooth="yes"/>
      <point x="200" y="596"/>
      <point x="172" y="624"/>
    </contour>
  </outline>
</glyph>
<glyph name="one.superior" format="2">
  <advance width="796"/>
  <unicode hex="00B9"/>
  <outline>
    <contour>
      <point x="540" y="1430" type="line"/>
      <point x="431" y="810" type="line"/>
      <point x="465" y="810" type="line"/>
      <point x="616" y="1668" type="line"/>
      <point x="582" y="1668" type="line"/>
      <point x="567" y="1584" type="line" smooth="yes"/>
      <point x="548" y="1478"/>
      <point x="533" y="1461"/>
      <point x="436" y="1461" type="curve" smooth="yes"/>
      <point x="352" y="1461" type="line"/>
      <point x="346" y="1430" type="line"/>
    </contour>
  </outline>
</glyph>
<glyph name="ordmasculine" format="2">
  <advance width="854"/>
  <unicode hex="00BA"/>
  <outline>
    <contour>
      <point x="472" y="990" type="curve" smooth="yes"/>
      <point x="655" y="990"/>
      <point x="794" y="1177"/>
      <point x="794" y="1368" type="curve" smooth="yes"/>
      <point x="794" y="1511"/>
      <point x="708" y="1605"/>
      <point x="580" y="1605" type="curve" smooth="yes"/>
      <point x="397" y="1605"/>
      <point x="258" y="1420"/>
      <point x="258" y="1228" type="curve" smooth="yes"/>
      <point x="258" y="1085"/>
      <point x="344" y="990"/>
    </contour>
    <contour>
      <point x="761" y="1362" type="curve" smooth="yes"/>
      <point x="761" y="1167"/>
      <point x="612" y="1020"/>
      <point x="477" y="1020" type="curve" smooth="yes"/>
      <point x="392" y="1020"/>
      <point x="291" y="1088"/>
      <point x="291" y="1234" type="curve" smooth="yes"/>
      <point x="291" y="1429"/>
      <point x="440" y="1575"/>
      <point x="575" y="1575" type="curve" smooth="yes"/>
      <point x="660" y="1575"/>
      <point x="761" y="1507"/>
    </contour>
    <contour>
      <point x="157" y="831" type="line"/>
      <point x="162" y="861" type="line"/>
      <point x="736" y="861" type="line"/>
      <point x="731" y="831" type="line"/>
    </contour>
  </outline>
</glyph>
<glyph name="guillemotright" format="2">
  <advance width="1030"/>
  <unicode hex="00BB"/>
  <outline>
    <contour>
      <point x="77" y="196" type="line"/>
      <point x="508" y="660" type="line"/>
      <point x="241" y="1126" type="line"/>
      <point x="189" y="1126" type="line"/>
      <point x="460" y="660" type="line"/>
      <point x="25" y="196" type="line"/>
    </contour>
    <contour>
      <point x="465" y="196" type="line"/>
      <point x="896" y="660" type="line"/>
      <point x="629" y="1126" type="line"/>
      <point x="577" y="1126" type="line"/>
      <point x="848" y="660" type="line"/>
      <point x="413" y="196" type="line"/>
    </contour>
  </outline>
</glyph>
<glyph name="questiondown" format="2">
  <advance width="1063"/>
  <unicode hex="00BF"/>
  <outline>
    <contour>
      <point x="535" y="-410" type="curve" smooth="yes"/>
      <point x="383" y="-410"/>
      <point x="165" y="-308"/>
      <point x="165" y="-40" type="curve" smooth="yes"/>
      <point x="165" y="228"/>
      <point x="388" y="330"/>
      <point x="535" y="330" type="curve"/>
      <point x="535" y="370" type="line"/>
      <point x="331" y="370"/>
      <point x="120" y="230"/>
      <point x="120" y="-40" type="curve" smooth="yes"/>
      <point x="120" y="-310"/>
      <point x="317" y="-450"/>
      <point x="535" y="-450" type="curve" smooth="yes"/>
      <point x="753" y="-450"/>
      <point x="943" y="-286"/>
      <point x="943" y="-6" type="curve"/>
      <point x="896" y="7" type="line"/>
      <point x="897" y="1"/>
      <point x="897" y="-2"/>
      <point x="897" y="-6" type="curve" smooth="yes"/>
      <point x="897" y="-294"/>
      <point x="687" y="-410"/>
    </contour>
    <contour>
      <point x="595" y="986" type="curve" smooth="yes"/>
      <point x="595" y="950"/>
      <point x="567" y="922"/>
      <point x="531" y="922" type="curve" smooth="yes"/>
      <point x="495" y="922"/>
      <point x="467" y="950"/>
      <point x="467" y="986" type="curve" smooth="yes"/>
      <point x="467" y="1022"/>
      <point x="495" y="1050"/>
      <point x="531" y="1050" type="curve" smooth="yes"/>
      <point x="567" y="1050"/>
      <point x="595" y="1022"/>
    </contour>
    <contour>
      <point x="558" y="588" type="line"/>
      <point x="512" y="588" type="line"/>
      <point x="512" y="330" type="line"/>
      <point x="558" y="330" type="line"/>
    </contour>
  </outline>
</glyph>
<glyph name="AE" format="2">
  <advance width="2006"/>
  <unicode hex="00C6"/>
  <anchor x="1010" y="0" name="bottom_center"/>
  <anchor x="1318" y="1380" name="top_center"/>
  <outline>
    <contour>
      <point x="960" y="1438" type="line"/>
      <point x="960" y="1480" type="line"/>
      <point x="1010" y="1480" type="line"/>
      <point x="1010" y="1438" type="line"/>
    </contour>
    <contour>
      <point x="439" y="541" type="line"/>
      <point x="1031" y="541" type="line"/>
      <point x="1031" y="499" type="line"/>
      <point x="439" y="499" type="line"/>
    </contour>
    <contour>
      <point x="120" y="0" type="line"/>
      <point x="960" y="1480" type="line"/>
      <point x="1010" y="1480" type="line"/>
      <point x="175" y="0" type="line"/>
    </contour>
    <contour>
      <point x="1743" y="761" type="line"/>
      <point x="1743" y="719" type="line"/>
      <point x="1056" y="719" type="line"/>
      <point x="1056" y="42" type="line"/>
      <point x="1826" y="42" type="line"/>
      <point x="1826" y="0" type="line"/>
      <point x="1010" y="0" type="line"/>
      <point x="1010" y="1480" type="line"/>
      <point x="1826" y="1480" type="line"/>
      <point x="1826" y="1438" type="line"/>
      <point x="1056" y="1438" type="line"/>
      <point x="1056" y="761" type="line"/>
    </contour>
  </outline>
</glyph>
<glyph name="Eth" format="2">
  <advance width="1352"/>
  <unicode hex="00D0"/>
  <outline>
    <contour>
      <point x="587" y="719" type="line"/>
      <point x="594" y="761" type="line"/>
      <point x="4" y="761" type="line"/>
      <point x="-3" y="719" type="line"/>
    </contour>
    <contour>
      <point x="1183" y="925" type="curve" smooth="yes"/>
      <point x="1183" y="450"/>
      <point x="874" y="42"/>
      <point x="503" y="42" type="curve" smooth="yes"/>
      <point x="133" y="42" type="line"/>
      <point x="380" y="1438" type="line"/>
      <point x="750" y="1438" type="line" smooth="yes"/>
      <point x="956" y="1438"/>
      <point x="1183" y="1290"/>
    </contour>
    <contour>
      <point x="496" y="0" type="line" smooth="yes"/>
      <point x="933" y="0"/>
      <point x="1229" y="471"/>
      <point x="1229" y="928" type="curve" smooth="yes"/>
      <point x="1229" y="1269"/>
      <point x="1042" y="1480"/>
      <point x="757" y="1480" type="curve" smooth="yes"/>
      <point x="341" y="1480" type="line"/>
      <point x="80" y="0" type="line"/>
    </contour>
  </outline>
</glyph>
<glyph name="multiply" format="2">
  <advance width="1232"/>
  <unicode hex="00D7"/>
  <outline>
    <contour>
      <point x="197" y="1058" type="line"/>
      <point x="1004" y="251" type="line"/>
      <point x="1035" y="282" type="line"/>
      <point x="228" y="1089" type="line"/>
    </contour>
    <contour>
      <point x="228" y="251" type="line"/>
      <point x="1035" y="1058" type="line"/>
      <point x="1004" y="1089" type="line"/>
      <point x="197" y="282" type="line"/>
    </contour>
  </outline>
</glyph>
<glyph name="Oslash" format="2">
  <advance width="1514"/>
  <unicode hex="00D8"/>
  <anchor x="627" y="0" name="bottom_center"/>
  <anchor x="870" y="1380" name="top_center"/>
  <outline>
    <contour>
      <point x="1473" y="1526" type="line"/>
      <point x="1501" y="1502" type="line"/>
      <point x="42" y="-46" type="line"/>
      <point x="14" y="-22" type="line"/>
    </contour>
    <contour>
      <point x="882" y="1448" type="curve" smooth="yes"/>
      <point x="525" y="1448"/>
      <point x="170" y="1057"/>
      <point x="170" y="571" type="curve" smooth="yes"/>
      <point x="170" y="209"/>
      <point x="406" y="32"/>
      <point x="633" y="32" type="curve" smooth="yes"/>
      <point x="991" y="32"/>
      <point x="1344" y="423"/>
      <point x="1344" y="909" type="curve" smooth="yes"/>
      <point x="1344" y="1270"/>
      <point x="1109" y="1448"/>
    </contour>
    <contour>
      <point x="124" y="567" type="curve" smooth="yes"/>
      <point x="124" y="1039"/>
      <point x="463" y="1490"/>
      <point x="890" y="1490" type="curve" smooth="yes"/>
      <point x="1190" y="1490"/>
      <point x="1390" y="1259"/>
      <point x="1390" y="914" type="curve" smooth="yes"/>
      <point x="1390" y="443"/>
      <point x="1052" y="-10"/>
      <point x="625" y="-10" type="curve" smooth="yes"/>
      <point x="325" y="-10"/>
      <point x="124" y="222"/>
    </contour>
  </outline>
</glyph>
<glyph name="germandbls" format="2">
  <advance width="1186"/>
  <unicode hex="00DF"/>
  <outline>
    <contour>
      <point x="946" y="459" type="curve" smooth="yes"/>
      <point x="946" y="250"/>
      <point x="790" y="30"/>
      <point x="504" y="30" type="curve" smooth="yes"/>
      <point x="460" y="30"/>
      <point x="366" y="37"/>
      <point x="327" y="59" type="curve"/>
      <point x="308" y="17" type="line"/>
      <point x="347" y="-4"/>
      <point x="445" y="-10"/>
      <point x="497" y="-10" type="curve" smooth="yes"/>
      <point x="890" y="-10"/>
      <point x="992" y="304"/>
      <point x="992" y="468" type="curve" smooth="yes"/>
      <point x="992" y="675"/>
      <point x="828" y="792"/>
      <point x="592" y="792" type="curve"/>
      <point x="585" y="752" type="line"/>
      <point x="745" y="752"/>
      <point x="946" y="673"/>
    </contour>
    <contour>
      <point x="605" y="759" type="line"/>
      <point x="829" y="759"/>
      <point x="1039" y="914"/>
      <point x="1039" y="1189" type="curve" smooth="yes"/>
      <point x="1039" y="1387"/>
      <point x="903" y="1490"/>
      <point x="706" y="1490" type="curve" smooth="yes"/>
      <point x="482" y="1490"/>
      <point x="289" y="1356"/>
      <point x="244" y="1101" type="curve" smooth="yes"/>
      <point x="199" y="846"/>
      <point x="50" y="0"/>
      <point x="50" y="0" type="curve"/>
      <point x="95" y="0" type="line"/>
      <point x="95" y="0"/>
      <point x="261" y="943"/>
      <point x="289" y="1101" type="curve" smooth="yes"/>
      <point x="331" y="1341"/>
      <point x="519" y="1450"/>
      <point x="699" y="1450" type="curve" smooth="yes"/>
      <point x="858" y="1450"/>
      <point x="993" y="1365"/>
      <point x="993" y="1179" type="curve" smooth="yes"/>
      <point x="993" y="912"/>
      <point x="778" y="792"/>
      <point x="592" y="792" type="curve"/>
    </contour>
  </outline>
</glyph>
<glyph name="ae" format="2">
  <advance width="1881"/>
  <unicode hex="00E6"/>
  <anchor x="900" y="1040" name="top_center"/>
  <anchor x="900" y="0" name="bottom_center"/>
  <outline>
    <contour>
      <point x="890" y="540" type="line"/>
      <point x="1724" y="540" type="line"/>
      <point x="1696" y="500" type="line"/>
      <point x="890" y="500" type="line"/>
    </contour>
    <contour>
      <point x="1677" y="274" type="curve"/>
      <point x="1716" y="252" type="line"/>
      <point x="1642" y="90"/>
      <point x="1500" y="-10"/>
      <point x="1303" y="-10" type="curve" smooth="yes"/>
      <point x="1056" y="-10"/>
      <point x="865" y="208"/>
      <point x="865" y="520" type="curve" smooth="yes"/>
      <point x="865" y="832"/>
      <point x="1056" y="1050"/>
      <point x="1303" y="1050" type="curve" smooth="yes"/>
      <point x="1550" y="1050"/>
      <point x="1741" y="832"/>
      <point x="1741" y="520" type="curve" smooth="yes"/>
      <point x="1741" y="513"/>
      <point x="1741" y="507"/>
      <point x="1741" y="500" type="curve"/>
      <point x="1696" y="500" type="line"/>
      <point x="1696" y="507"/>
      <point x="1696" y="513"/>
      <point x="1696" y="520" type="curve" smooth="yes"/>
      <point x="1696" y="856"/>
      <point x="1471" y="1010"/>
      <point x="1303" y="1010" type="curve" smooth="yes"/>
      <point x="1135" y="1010"/>
      <point x="910" y="856"/>
      <point x="910" y="520" type="curve" smooth="yes"/>
      <point x="910" y="184"/>
      <point x="1135" y="30"/>
      <point x="1303" y="30" type="curve" smooth="yes"/>
      <point x="1449" y="30"/>
      <point x="1601" y="108"/>
    </contour>
    <contour>
      <point x="515" y="-10" type="curve" smooth="yes"/>
      <point x="317" y="-10"/>
      <point x="140" y="100"/>
      <point x="140" y="340" type="curve"/>
      <point x="140" y="580"/>
      <point x="327" y="690"/>
      <point x="525" y="690" type="curve" smooth="yes"/>
      <point x="695" y="690"/>
      <point x="900" y="580"/>
      <point x="900" y="340" type="curve"/>
      <point x="900" y="100"/>
      <point x="705" y="-10"/>
    </contour>
    <contour>
      <point x="865" y="340" type="curve" smooth="yes"/>
      <point x="865" y="509"/>
      <point x="735" y="650"/>
      <point x="525" y="650" type="curve" smooth="yes"/>
      <point x="315" y="650"/>
      <point x="185" y="539"/>
      <point x="185" y="340" type="curve" smooth="yes"/>
      <point x="185" y="141"/>
      <point x="315" y="30"/>
      <point x="525" y="30" type="curve" smooth="yes"/>
      <point x="735" y="30"/>
      <point x="865" y="171"/>
    </contour>
    <contour>
      <point x="910" y="285" type="line"/>
      <point x="865" y="448" type="line"/>
      <point x="865" y="630" type="line" smooth="yes"/>
      <point x="865" y="944"/>
      <point x="671" y="1010"/>
      <point x="523" y="1010" type="curve" smooth="yes"/>
      <point x="325" y="1010"/>
      <point x="196" y="885"/>
      <point x="196" y="885" type="curve"/>
      <point x="171" y="926" type="line"/>
      <point x="171" y="926"/>
      <point x="299" y="1050"/>
      <point x="523" y="1050" type="curve" smooth="yes"/>
      <point x="739" y="1050"/>
      <point x="910" y="948"/>
      <point x="910" y="598" type="curve"/>
    </contour>
  </outline>
</glyph>
<glyph name="eth" format="2">
  <advance width="1120"/>
  <unicode hex="00F0"/>
  <outline>
    <contour>
      <point x="511" y="1259" type="line"/>
      <point x="629" y="1321"/>
      <point x="748" y="1383"/>
      <point x="866" y="1445" type="curve"/>
      <point x="852" y="1480" type="line"/>
      <point x="735" y="1417"/>
      <point x="615" y="1356"/>
      <point x="497" y="1294" type="curve"/>
    </contour>
    <contour>
      <point x="525" y="1451" type="line"/>
      <point x="694" y="1342"/>
      <point x="918" y="1148"/>
      <point x="918" y="745" type="curve" smooth="yes"/>
      <point x="918" y="676"/>
      <point x="911" y="602"/>
      <point x="897" y="520" type="curve"/>
      <point x="942" y="520" type="line"/>
      <point x="957" y="606"/>
      <point x="965" y="686"/>
      <point x="965" y="760" type="curve" smooth="yes"/>
      <point x="965" y="1101"/>
      <point x="810" y="1326"/>
      <point x="555" y="1490" type="curve"/>
    </contour>
    <contour>
      <point x="135" y="392" type="curve" smooth="yes"/>
      <point x="135" y="722"/>
      <point x="353" y="1010"/>
      <point x="608" y="1010" type="curve" smooth="yes"/>
      <point x="759" y="1010"/>
      <point x="909" y="895"/>
      <point x="909" y="647" type="curve" smooth="yes"/>
      <point x="909" y="316"/>
      <point x="690" y="30"/>
      <point x="435" y="30" type="curve" smooth="yes"/>
      <point x="284" y="30"/>
      <point x="135" y="145"/>
    </contour>
    <contour>
      <point x="615" y="1050" type="curve" smooth="yes"/>
      <point x="299" y="1050"/>
      <point x="90" y="708"/>
      <point x="90" y="386" type="curve" smooth="yes"/>
      <point x="90" y="147"/>
      <point x="218" y="-10"/>
      <point x="428" y="-10" type="curve" smooth="yes"/>
      <point x="675" y="-10"/>
      <point x="887" y="208"/>
      <point x="942" y="520" type="curve"/>
      <point x="921" y="520" type="line"/>
      <point x="930" y="573"/>
      <point x="935" y="622"/>
      <point x="935" y="669" type="curve" smooth="yes"/>
      <point x="935" y="901"/>
      <point x="821" y="1050"/>
    </contour>
  </outline>
</glyph>
<glyph name="divide" format="2">
  <advance width="1232"/>
  <unicode hex="00F7"/>
  <outline>
    <contour>
      <point x="557" y="274" type="curve" smooth="yes"/>
      <point x="557" y="310"/>
      <point x="585" y="338"/>
      <point x="621" y="338" type="curve" smooth="yes"/>
      <point x="657" y="338"/>
      <point x="685" y="310"/>
      <point x="685" y="274" type="curve" smooth="yes"/>
      <point x="685" y="238"/>
      <point x="657" y="210"/>
      <point x="621" y="210" type="curve" smooth="yes"/>
      <point x="585" y="210"/>
      <point x="557" y="238"/>
    </contour>
    <contour>
      <point x="557" y="1046" type="curve" smooth="yes"/>
      <point x="557" y="1082"/>
      <point x="585" y="1110"/>
      <point x="621" y="1110" type="curve" smooth="yes"/>
      <point x="657" y="1110"/>
      <point x="685" y="1082"/>
      <point x="685" y="1046" type="curve" smooth="yes"/>
      <point x="685" y="1010"/>
      <point x="657" y="982"/>
      <point x="621" y="982" type="curve" smooth="yes"/>
      <point x="585" y="982"/>
      <point x="557" y="1010"/>
    </contour>
    <contour>
      <point x="180" y="640" type="line"/>
      <point x="180" y="680" type="line"/>
      <point x="1052" y="680" type="line"/>
      <point x="1052" y="640" type="line"/>
    </contour>
  </outline>
</glyph>
<glyph name="oslash" format="2">
  <advance width="1156"/>
  <unicode hex="00F8"/>
  <anchor x="578" y="1040" name="top_center"/>
  <anchor x="578" y="0" name="bottom_center"/>
  <outline>
    <contour>
      <point x="987" y="1086" type="line"/>
      <point x="1018" y="1060" type="line"/>
      <point x="169" y="-46" type="line"/>
      <point x="138" y="-21" type="line"/>
    </contour>
    <contour>
      <point x="185" y="520" type="curve" smooth="yes"/>
      <point x="185" y="184"/>
      <point x="410" y="30"/>
      <point x="578" y="30" type="curve" smooth="yes"/>
      <point x="746" y="30"/>
      <point x="971" y="184"/>
      <point x="971" y="520" type="curve" smooth="yes"/>
      <point x="971" y="856"/>
      <point x="746" y="1010"/>
      <point x="578" y="1010" type="curve" smooth="yes"/>
      <point x="410" y="1010"/>
      <point x="185" y="856"/>
    </contour>
    <contour>
      <point x="140" y="520" type="curve" smooth="yes"/>
      <point x="140" y="832"/>
      <point x="331" y="1050"/>
      <point x="578" y="1050" type="curve" smooth="yes"/>
      <point x="825" y="1050"/>
      <point x="1016" y="832"/>
      <point x="1016" y="520" type="curve" smooth="yes"/>
      <point x="1016" y="208"/>
      <point x="825" y="-10"/>
      <point x="578" y="-10" type="curve" smooth="yes"/>
      <point x="331" y="-10"/>
      <point x="140" y="208"/>
    </contour>
  </outline>
</glyph>
<glyph name="thorn" format="2">
  <advance width="1152"/>
  <unicode hex="00FE"/>
  <outline>
    <contour>
      <point x="640" y="1010" type="curve" smooth="yes"/>
      <point x="385" y="1010"/>
      <point x="167" y="722"/>
      <point x="167" y="392" type="curve" smooth="yes"/>
      <point x="167" y="145"/>
      <point x="316" y="30"/>
      <point x="467" y="30" type="curve" smooth="yes"/>
      <point x="722" y="30"/>
      <point x="941" y="316"/>
      <point x="941" y="647" type="curve" smooth="yes"/>
      <point x="941" y="895"/>
      <point x="791" y="1010"/>
    </contour>
    <contour>
      <point x="986" y="653" type="curve" smooth="yes"/>
      <point x="986" y="331"/>
      <point x="775" y="-10"/>
      <point x="460" y="-10" type="curve" smooth="yes"/>
      <point x="260" y="-10"/>
      <point x="152" y="144"/>
      <point x="141" y="260" type="curve"/>
      <point x="17" y="-440" type="line"/>
      <point x="-28" y="-440" type="line"/>
      <point x="85" y="200"/>
      <point x="198" y="840"/>
      <point x="311" y="1480" type="curve"/>
      <point x="356" y="1480" type="line"/>
      <point x="356" y="1480"/>
      <point x="237" y="800"/>
      <point x="233" y="780" type="curve"/>
      <point x="284" y="896"/>
      <point x="447" y="1050"/>
      <point x="647" y="1050" type="curve" smooth="yes"/>
      <point x="857" y="1050"/>
      <point x="986" y="892"/>
    </contour>
  </outline>
</glyph>
<glyph name="dcaron" format="2">
  <advance width="1315"/>
  <unicode hex="010F"/>
  <outline>
    <contour>
      <point x="1152" y="1426" type="curve" smooth="yes"/>
      <point x="1152" y="1462"/>
      <point x="1180" y="1490"/>
      <point x="1216" y="1490" type="curve" smooth="yes"/>
      <point x="1252" y="1490"/>
      <point x="1280" y="1462"/>
      <point x="1280" y="1426" type="curve" smooth="yes"/>
      <point x="1280" y="1390"/>
      <point x="1252" y="1362"/>
      <point x="1216" y="1362" type="curve" smooth="yes"/>
      <point x="1180" y="1362"/>
      <point x="1152" y="1390"/>
    </contour>
    <contour>
      <point x="1152" y="1168" type="line"/>
      <point x="1202" y="1181"/>
      <point x="1269" y="1242"/>
      <point x="1269" y="1332" type="curve" smooth="yes"/>
      <point x="1269" y="1412"/>
      <point x="1216" y="1445"/>
      <point x="1216" y="1445" type="curve"/>
      <point x="1216" y="1490" type="line"/>
      <point x="1278" y="1490"/>
      <point x="1315" y="1412"/>
      <point x="1315" y="1332" type="curve" smooth="yes"/>
      <point x="1315" y="1222"/>
      <point x="1232" y="1146"/>
      <point x="1164" y="1126" type="curve"/>
    </contour>
    <contour>
      <point x="935" y="520" type="curve"/>
      <point x="935" y="856"/>
      <point x="735" y="1010"/>
      <point x="560" y="1010" type="curve" smooth="yes"/>
      <point x="385" y="1010"/>
      <point x="185" y="856"/>
      <point x="185" y="520" type="curve" smooth="yes"/>
      <point x="185" y="184"/>
      <point x="385" y="30"/>
      <point x="560" y="30" type="curve" smooth="yes"/>
      <point x="735" y="30"/>
      <point x="935" y="184"/>
    </contour>
    <contour>
      <point x="972" y="208" type="line"/>
      <point x="972" y="110"/>
      <point x="984" y="0"/>
      <point x="984" y="0" type="curve"/>
      <point x="939" y="0" type="line"/>
      <point x="939" y="0"/>
      <point x="927" y="110"/>
      <point x="927" y="260" type="curve"/>
      <point x="896" y="144"/>
      <point x="770" y="-10"/>
      <point x="560" y="-10" type="curve" smooth="yes"/>
      <point x="313" y="-10"/>
      <point x="140" y="208"/>
      <point x="140" y="520" type="curve" smooth="yes"/>
      <point x="140" y="832"/>
      <point x="313" y="1050"/>
      <point x="560" y="1050" type="curve" smooth="yes"/>
      <point x="760" y="1050"/>
      <point x="896" y="896"/>
      <point x="927" y="780" type="curve"/>
      <point x="927" y="1480" type="line"/>
      <point x="972" y="1480" type="line"/>
    </contour>
  </outline>
</glyph>
<glyph name="Hbar" format="2">
  <advance width="1264"/>
  <unicode hex="0126"/>
  <outline>
    <contour>
      <point x="1321" y="1059" type="line"/>
      <point x="57" y="1059" type="line"/>
      <point x="64" y="1101" type="line"/>
      <point x="1328" y="1101" type="line"/>
    </contour>
    <contour>
      <point x="271" y="1480" type="line"/>
      <point x="317" y="1480" type="line"/>
      <point x="190" y="761" type="line"/>
      <point x="1082" y="761" type="line"/>
      <point x="1209" y="1480" type="line"/>
      <point x="1255" y="1480" type="line"/>
      <point x="994" y="0" type="line"/>
      <point x="948" y="0" type="line"/>
      <point x="1075" y="719" type="line"/>
      <point x="183" y="719" type="line"/>
      <point x="56" y="0" type="line"/>
      <point x="10" y="0" type="line"/>
    </contour>
  </outline>
</glyph>
<glyph name="hbar" format="2">
  <advance width="1160"/>
  <unicode hex="0127"/>
  <outline>
    <contour>
      <point x="590" y="1218" type="line"/>
      <point x="0" y="1218" type="line"/>
      <point x="0" y="1264"/>
      <point x="0" y="1214"/>
      <point x="0" y="1260" type="curve"/>
      <point x="590" y="1260" type="line"/>
    </contour>
    <contour>
      <point x="935" y="0" type="line"/>
      <point x="935" y="572" type="line" smooth="yes"/>
      <point x="935" y="791"/>
      <point x="865" y="1010"/>
      <point x="595" y="1010" type="curve" smooth="yes"/>
      <point x="325" y="1010"/>
      <point x="255" y="791"/>
      <point x="255" y="572" type="curve" smooth="yes"/>
      <point x="255" y="0" type="line"/>
      <point x="210" y="0" type="line"/>
      <point x="210" y="1480" type="line"/>
      <point x="255" y="1480" type="line"/>
      <point x="255" y="820" type="line"/>
      <point x="292" y="927"/>
      <point x="375" y="1050"/>
      <point x="605" y="1050" type="curve" smooth="yes"/>
      <point x="843" y="1050"/>
      <point x="980" y="892"/>
      <point x="980" y="572" type="curve"/>
      <point x="980" y="0" type="line"/>
    </contour>
  </outline>
</glyph>
<glyph name="dotlessi" format="2">
  <advance width="405"/>
  <unicode hex="0131"/>
  <anchor x="199" y="-20" name="bottom_cedilla"/>
  <anchor x="386" y="1040" name="top_center"/>
  <anchor x="203" y="0" name="bottom_center"/>
  <anchor x="225" y="0" name="bottom_right"/>
  <outline>
    <contour>
      <point x="180" y="0" type="line"/>
      <point x="363" y="1040" type="line"/>
      <point x="408" y="1040" type="line"/>
      <point x="225" y="0" type="line"/>
    </contour>
  </outline>
</glyph>
<glyph name="Lcaron" format="2">
  <advance width="1176"/>
  <unicode hex="013D"/>
  <outline>
    <contour>
      <point x="537" y="1426" type="curve" smooth="yes"/>
      <point x="537" y="1462"/>
      <point x="565" y="1490"/>
      <point x="601" y="1490" type="curve" smooth="yes"/>
      <point x="617" y="1490"/>
      <point x="665" y="1452"/>
      <point x="665" y="1426" type="curve" smooth="yes"/>
      <point x="665" y="1390"/>
      <point x="637" y="1362"/>
      <point x="601" y="1362" type="curve" smooth="yes"/>
      <point x="565" y="1362"/>
      <point x="537" y="1390"/>
    </contour>
    <contour>
      <point x="480" y="1168" type="line"/>
      <point x="537" y="1183"/>
      <point x="627" y="1254"/>
      <point x="629" y="1361" type="curve" smooth="yes"/>
      <point x="629" y="1420"/>
      <point x="593" y="1445"/>
      <point x="593" y="1445" type="curve"/>
      <point x="601" y="1490" type="line"/>
      <point x="651" y="1490"/>
      <point x="676" y="1438"/>
      <point x="676" y="1376" type="curve" smooth="yes"/>
      <point x="676" y="1238"/>
      <point x="566" y="1150"/>
      <point x="485" y="1126" type="curve"/>
    </contour>
    <contour>
      <point x="357" y="1480" type="line"/>
      <point x="103" y="42" type="line"/>
      <point x="873" y="42" type="line"/>
      <point x="866" y="0" type="line"/>
      <point x="50" y="0" type="line"/>
      <point x="311" y="1480" type="line"/>
    </contour>
  </outline>
</glyph>
<glyph name="Lslash" format="2">
  <advance width="1166"/>
  <unicode hex="0141"/>
  <outline>
    <contour>
      <point x="574" y="950" type="line"/>
      <point x="565" y="902" type="line"/>
      <point x="-26" y="592" type="line"/>
      <point x="-17" y="640" type="line"/>
    </contour>
    <contour>
      <point x="387" y="1480" type="line"/>
      <point x="133" y="42" type="line"/>
      <point x="903" y="42" type="line"/>
      <point x="896" y="0" type="line"/>
      <point x="80" y="0" type="line"/>
      <point x="341" y="1480" type="line"/>
    </contour>
  </outline>
</glyph>
<glyph name="Eng" format="2">
  <advance width="1344"/>
  <unicode hex="014A"/>
  <anchor x="785" y="1380" name="top_center"/>
  <outline>
    <contour>
      <point x="997" y="-210" type="line" smooth="yes"/>
      <point x="967" y="-380"/>
      <point x="867" y="-450"/>
      <point x="717" y="-450" type="curve" smooth="yes"/>
      <point x="689" y="-450"/>
      <point x="660" y="-443"/>
      <point x="638" y="-426" type="curve"/>
      <point x="656" y="-384" type="line"/>
      <point x="683" y="-404"/>
      <point x="710" y="-410"/>
      <point x="724" y="-410" type="curve" smooth="yes"/>
      <point x="777" y="-410"/>
      <point x="917" y="-400"/>
      <point x="951" y="-210" type="curve" smooth="yes"/>
      <point x="988" y="0" type="line"/>
      <point x="1034" y="0" type="line"/>
    </contour>
    <contour>
      <point x="357" y="1480" type="line"/>
      <point x="1004" y="90" type="line"/>
      <point x="1249" y="1480" type="line"/>
      <point x="1295" y="1480" type="line"/>
      <point x="1034" y="0" type="line"/>
      <point x="988" y="0" type="line"/>
      <point x="341" y="1390" type="line"/>
      <point x="96" y="0" type="line"/>
      <point x="50" y="0" type="line"/>
      <point x="311" y="1480" type="line"/>
    </contour>
  </outline>
</glyph>
<glyph name="eng" format="2">
  <advance width="1130"/>
  <unicode hex="014B"/>
  <anchor x="618" y="1040" name="top_center"/>
  <outline>
    <contour>
      <point x="783" y="-210" type="line" smooth="yes"/>
      <point x="753" y="-380"/>
      <point x="654" y="-450"/>
      <point x="504" y="-450" type="curve" smooth="yes"/>
      <point x="476" y="-450"/>
      <point x="447" y="-443"/>
      <point x="425" y="-426" type="curve"/>
      <point x="443" y="-384" type="line"/>
      <point x="470" y="-404"/>
      <point x="497" y="-410"/>
      <point x="511" y="-410" type="curve" smooth="yes"/>
      <point x="564" y="-410"/>
      <point x="704" y="-400"/>
      <point x="738" y="-210" type="curve" smooth="yes"/>
      <point x="775" y="0" type="line"/>
      <point x="820" y="0" type="line"/>
    </contour>
    <contour>
      <point x="876" y="572" type="line" smooth="yes"/>
      <point x="885" y="620"/>
      <point x="890" y="667"/>
      <point x="890" y="713" type="curve" smooth="yes"/>
      <point x="890" y="876"/>
      <point x="824" y="1010"/>
      <point x="613" y="1010" type="curve" smooth="yes"/>
      <point x="343" y="1010"/>
      <point x="235" y="791"/>
      <point x="196" y="572" type="curve" smooth="yes"/>
      <point x="95" y="0" type="line"/>
      <point x="50" y="0" type="line"/>
      <point x="233" y="1040" type="line"/>
      <point x="278" y="1040" type="line"/>
      <point x="240" y="820" type="line"/>
      <point x="296" y="927"/>
      <point x="400" y="1050"/>
      <point x="630" y="1050" type="curve" smooth="yes"/>
      <point x="827" y="1050"/>
      <point x="935" y="942"/>
      <point x="935" y="724" type="curve" smooth="yes"/>
      <point x="935" y="678"/>
      <point x="931" y="627"/>
      <point x="921" y="572" type="curve" smooth="yes"/>
      <point x="820" y="0" type="line"/>
      <point x="775" y="0" type="line"/>
    </contour>
  </outline>
</glyph>
<glyph name="OE" format="2">
  <advance width="2324"/>
  <unicode hex="0152"/>
  <anchor x="1198" y="0" name="bottom_center"/>
  <anchor x="1441" y="1380" name="top_center"/>
  <outline>
    <contour>
      <point x="882" y="1448" type="curve" smooth="yes"/>
      <point x="525" y="1448"/>
      <point x="170" y="1057"/>
      <point x="170" y="571" type="curve" smooth="yes"/>
      <point x="170" y="209"/>
      <point x="406" y="32"/>
      <point x="633" y="32" type="curve" smooth="yes"/>
      <point x="991" y="32"/>
      <point x="1344" y="423"/>
      <point x="1344" y="909" type="curve" smooth="yes"/>
      <point x="1344" y="1270"/>
      <point x="1109" y="1448"/>
    </contour>
    <contour>
      <point x="124" y="567" type="curve" smooth="yes"/>
      <point x="124" y="1039"/>
      <point x="463" y="1490"/>
      <point x="890" y="1490" type="curve" smooth="yes"/>
      <point x="1190" y="1490"/>
      <point x="1390" y="1259"/>
      <point x="1390" y="914" type="curve" smooth="yes"/>
      <point x="1390" y="443"/>
      <point x="1052" y="-10"/>
      <point x="625" y="-10" type="curve" smooth="yes"/>
      <point x="325" y="-10"/>
      <point x="124" y="222"/>
    </contour>
    <contour>
      <point x="2065" y="761" type="line"/>
      <point x="2058" y="719" type="line"/>
      <point x="1371" y="719" type="line"/>
      <point x="1251" y="42" type="line"/>
      <point x="2021" y="42" type="line"/>
      <point x="2014" y="0" type="line"/>
      <point x="1198" y="0" type="line"/>
      <point x="1459" y="1480" type="line"/>
      <point x="2275" y="1480" type="line"/>
      <point x="2268" y="1438" type="line"/>
      <point x="1498" y="1438" type="line"/>
      <point x="1378" y="761" type="line"/>
    </contour>
  </outline>
</glyph>
<glyph name="oe" format="2">
  <advance width="1987"/>
  <unicode hex="0153"/>
  <anchor x="994" y="1200" name="top_center"/>
  <anchor x="994" y="0" name="bottom_center"/>
  <outline>
    <contour>
      <point x="996" y="540" type="line"/>
      <point x="1830" y="540" type="line"/>
      <point x="1802" y="500" type="line"/>
      <point x="996" y="500" type="line"/>
    </contour>
    <contour>
      <point x="1783" y="274" type="curve"/>
      <point x="1822" y="252" type="line"/>
      <point x="1748" y="90"/>
      <point x="1606" y="-10"/>
      <point x="1409" y="-10" type="curve" smooth="yes"/>
      <point x="1162" y="-10"/>
      <point x="971" y="208"/>
      <point x="971" y="520" type="curve" smooth="yes"/>
      <point x="971" y="832"/>
      <point x="1162" y="1050"/>
      <point x="1409" y="1050" type="curve" smooth="yes"/>
      <point x="1656" y="1050"/>
      <point x="1847" y="832"/>
      <point x="1847" y="520" type="curve" smooth="yes"/>
      <point x="1847" y="513"/>
      <point x="1847" y="507"/>
      <point x="1847" y="500" type="curve"/>
      <point x="1802" y="500" type="line"/>
      <point x="1802" y="507"/>
      <point x="1802" y="513"/>
      <point x="1802" y="520" type="curve" smooth="yes"/>
      <point x="1802" y="856"/>
      <point x="1577" y="1010"/>
      <point x="1409" y="1010" type="curve" smooth="yes"/>
      <point x="1241" y="1010"/>
      <point x="1016" y="856"/>
      <point x="1016" y="520" type="curve" smooth="yes"/>
      <point x="1016" y="184"/>
      <point x="1241" y="30"/>
      <point x="1409" y="30" type="curve" smooth="yes"/>
      <point x="1555" y="30"/>
      <point x="1707" y="108"/>
    </contour>
    <contour>
      <point x="185" y="520" type="curve" smooth="yes"/>
      <point x="185" y="184"/>
      <point x="410" y="30"/>
      <point x="578" y="30" type="curve" smooth="yes"/>
      <point x="746" y="30"/>
      <point x="971" y="184"/>
      <point x="971" y="520" type="curve" smooth="yes"/>
      <point x="971" y="856"/>
      <point x="746" y="1010"/>
      <point x="578" y="1010" type="curve" smooth="yes"/>
      <point x="410" y="1010"/>
      <point x="185" y="856"/>
    </contour>
    <contour>
      <point x="140" y="520" type="curve" smooth="yes"/>
      <point x="140" y="832"/>
      <point x="331" y="1050"/>
      <point x="578" y="1050" type="curve" smooth="yes"/>
      <point x="825" y="1050"/>
      <point x="1016" y="832"/>
      <point x="1016" y="520" type="curve" smooth="yes"/>
      <point x="1016" y="208"/>
      <point x="825" y="-10"/>
      <point x="578" y="-10" type="curve" smooth="yes"/>
      <point x="331" y="-10"/>
      <point x="140" y="208"/>
    </contour>
  </outline>
</glyph>
<glyph name="tcaron" format="2">
  <advance width="968"/>
  <unicode hex="0165"/>
  <outline>
    <contour>
      <point x="938" y="1426" type="curve" smooth="yes"/>
      <point x="938" y="1462"/>
      <point x="966" y="1490"/>
      <point x="1002" y="1490" type="curve" smooth="yes"/>
      <point x="1018" y="1490"/>
      <point x="1066" y="1452"/>
      <point x="1066" y="1426" type="curve" smooth="yes"/>
      <point x="1066" y="1390"/>
      <point x="1038" y="1362"/>
      <point x="1002" y="1362" type="curve" smooth="yes"/>
      <point x="966" y="1362"/>
      <point x="938" y="1390"/>
    </contour>
    <contour>
      <point x="881" y="1168" type="line"/>
      <point x="938" y="1183"/>
      <point x="1028" y="1254"/>
      <point x="1030" y="1361" type="curve" smooth="yes"/>
      <point x="1030" y="1420"/>
      <point x="994" y="1445"/>
      <point x="994" y="1445" type="curve"/>
      <point x="1002" y="1490" type="line"/>
      <point x="1052" y="1490"/>
      <point x="1077" y="1438"/>
      <point x="1077" y="1376" type="curve" smooth="yes"/>
      <point x="1077" y="1238"/>
      <point x="967" y="1150"/>
      <point x="886" y="1126" type="curve"/>
    </contour>
    <contour>
      <point x="201" y="1040" type="line" smooth="yes"/>
      <point x="351" y="1040"/>
      <point x="371" y="1056"/>
      <point x="397" y="1206" type="curve" smooth="yes"/>
      <point x="417" y="1320" type="line"/>
      <point x="462" y="1320" type="line"/>
      <point x="412" y="1040" type="line"/>
      <point x="718" y="1040" type="line"/>
      <point x="711" y="1000" type="line"/>
      <point x="405" y="1000" type="line"/>
      <point x="282" y="300" type="line" smooth="yes"/>
      <point x="275" y="262"/>
      <point x="272" y="228"/>
      <point x="272" y="200" type="curve" smooth="yes"/>
      <point x="272" y="51"/>
      <point x="356" y="30"/>
      <point x="432" y="30" type="curve" smooth="yes"/>
      <point x="470" y="30"/>
      <point x="525" y="37"/>
      <point x="569" y="65" type="curve"/>
      <point x="576" y="22" type="line"/>
      <point x="533" y="4"/>
      <point x="474" y="-10"/>
      <point x="425" y="-10" type="curve" smooth="yes"/>
      <point x="285" y="-10"/>
      <point x="226" y="60"/>
      <point x="226" y="190" type="curve" smooth="yes"/>
      <point x="226" y="223"/>
      <point x="230" y="260"/>
      <point x="237" y="300" type="curve" smooth="yes"/>
      <point x="360" y="1000" type="line"/>
      <point x="116" y="1000" type="line"/>
      <point x="123" y="1040" type="line"/>
    </contour>
  </outline>
</glyph>
<glyph name="longs" format="2">
  <advance width="638"/>
  <unicode hex="017F"/>
  <anchor x="72" y="0" name="bottom_center"/>
  <anchor x="457" y="1380" name="top_center"/>
  <outline>
    <contour>
      <point x="95" y="0" type="line"/>
      <point x="303" y="1180" type="line" smooth="yes"/>
      <point x="345.296" y="1419.95"/>
      <point x="459" y="1450"/>
      <point x="549" y="1450" type="curve" smooth="yes"/>
      <point x="587" y="1450"/>
      <point x="640" y="1443"/>
      <point x="674" y="1415" type="curve"/>
      <point x="695" y="1458" type="line"/>
      <point x="658" y="1476"/>
      <point x="605" y="1490"/>
      <point x="556" y="1490" type="curve" smooth="yes"/>
      <point x="380" y="1490"/>
      <point x="293.247" y="1379.96"/>
      <point x="258" y="1180" type="curve" smooth="yes"/>
      <point x="50" y="0" type="line"/>
    </contour>
  </outline>
</glyph>
<glyph name="uni0180" format="2">
  <advance width="1182"/>
  <unicode hex="0180"/>
  <outline>
    <contour>
      <point x="675" y="1218" type="line"/>
      <point x="85" y="1218" type="line"/>
      <point x="92" y="1260" type="line"/>
      <point x="682" y="1260" type="line"/>
    </contour>
    <contour>
      <point x="670" y="1010" type="curve" smooth="yes"/>
      <point x="415" y="1010"/>
      <point x="197" y="722"/>
      <point x="197" y="392" type="curve" smooth="yes"/>
      <point x="197" y="145"/>
      <point x="346" y="30"/>
      <point x="497" y="30" type="curve" smooth="yes"/>
      <point x="752" y="30"/>
      <point x="971" y="316"/>
      <point x="971" y="647" type="curve" smooth="yes"/>
      <point x="971" y="895"/>
      <point x="821" y="1010"/>
    </contour>
    <contour>
      <point x="341" y="1480" type="line"/>
      <point x="386" y="1480" type="line"/>
      <point x="263" y="780" type="line"/>
      <point x="314" y="896"/>
      <point x="477" y="1050"/>
      <point x="677" y="1050" type="curve" smooth="yes"/>
      <point x="887" y="1050"/>
      <point x="1016" y="892"/>
      <point x="1016" y="653" type="curve" smooth="yes"/>
      <point x="1016" y="331"/>
      <point x="805" y="-10"/>
      <point x="490" y="-10" type="curve" smooth="yes"/>
      <point x="280" y="-10"/>
      <point x="182" y="144"/>
      <point x="171" y="260" type="curve"/>
      <point x="125" y="0" type="line"/>
      <point x="80" y="0" type="line"/>
    </contour>
  </outline>
</glyph>
<glyph name="uni0181" format="2">
  <advance width="1362"/>
  <unicode hex="0181"/>
  <outline>
    <contour>
      <point x="771" y="1480" type="line"/>
      <point x="1013" y="1480"/>
      <point x="1182" y="1335"/>
      <point x="1182" y="1116" type="curve" smooth="yes"/>
      <point x="1182" y="897"/>
      <point x="1033" y="760"/>
      <point x="771" y="760" type="curve"/>
      <point x="771" y="798" type="line"/>
      <point x="971" y="798"/>
      <point x="1136" y="913"/>
      <point x="1136" y="1114" type="curve" smooth="yes"/>
      <point x="1136" y="1315"/>
      <point x="971" y="1438"/>
      <point x="771" y="1438" type="curve"/>
      <point x="356" y="1438" type="line"/>
      <point x="356" y="798" type="line"/>
      <point x="771" y="798" type="line"/>
      <point x="771" y="754" type="line"/>
      <point x="356" y="754" type="line"/>
      <point x="356" y="42" type="line"/>
      <point x="771" y="42" type="line"/>
      <point x="996" y="42"/>
      <point x="1176" y="175"/>
      <point x="1176" y="395" type="curve" smooth="yes"/>
      <point x="1176" y="615"/>
      <point x="996" y="754"/>
      <point x="771" y="754" type="curve"/>
      <point x="771" y="792" type="line"/>
      <point x="1045" y="792"/>
      <point x="1222" y="634"/>
      <point x="1222" y="391" type="curve" smooth="yes"/>
      <point x="1222" y="148"/>
      <point x="1035" y="0"/>
      <point x="771" y="0" type="curve"/>
      <point x="310" y="0" type="line"/>
      <point x="310" y="1480" type="line"/>
    </contour>
    <contour>
      <point x="46" y="1158" type="curve"/>
      <point x="1" y="1158" type="line"/>
      <point x="0" y="1162"/>
      <point x="0" y="1166"/>
      <point x="-0" y="1170" type="curve" smooth="yes"/>
      <point x="0" y="1348"/>
      <point x="132" y="1480"/>
      <point x="310" y="1480" type="curve" smooth="yes"/>
      <point x="314" y="1480"/>
      <point x="318" y="1480"/>
      <point x="322" y="1479" type="curve"/>
      <point x="322" y="1439" type="line"/>
      <point x="318" y="1440"/>
      <point x="314" y="1440"/>
      <point x="310" y="1440" type="curve" smooth="yes"/>
      <point x="155" y="1440"/>
      <point x="45" y="1325"/>
      <point x="45" y="1170" type="curve" smooth="yes"/>
      <point x="45" y="1166"/>
      <point x="45" y="1162"/>
    </contour>
  </outline>
</glyph>
<glyph name="uni0184" format="2">
  <advance width="1144"/>
  <unicode hex="0184"/>
  <outline>
    <contour>
      <point x="462" y="42" type="line" smooth="yes"/>
      <point x="713" y="42"/>
      <point x="909" y="268"/>
      <point x="909" y="493" type="curve" smooth="yes"/>
      <point x="909" y="664"/>
      <point x="795" y="804"/>
      <point x="597" y="804" type="curve" smooth="yes"/>
      <point x="228" y="804" type="line"/>
      <point x="93" y="42" type="line"/>
    </contour>
    <contour>
      <point x="956" y="505" type="curve" smooth="yes"/>
      <point x="956" y="233"/>
      <point x="724" y="0"/>
      <point x="455" y="0" type="curve" smooth="yes"/>
      <point x="40" y="0" type="line"/>
      <point x="259" y="1240" type="line"/>
      <point x="104" y="1325" type="line"/>
      <point x="321" y="1480" type="line"/>
      <point x="347" y="1480" type="line"/>
      <point x="235" y="846" type="line"/>
      <point x="604" y="846" type="line" smooth="yes"/>
      <point x="803" y="846"/>
      <point x="956" y="714"/>
    </contour>
  </outline>
</glyph>
<glyph name="uni0185" format="2">
  <advance width="1143"/>
  <unicode hex="0185"/>
  <outline>
    <contour>
      <point x="208" y="520" type="curve"/>
      <point x="208" y="184"/>
      <point x="408" y="30"/>
      <point x="583" y="30" type="curve" smooth="yes"/>
      <point x="758" y="30"/>
      <point x="958" y="184"/>
      <point x="958" y="520" type="curve" smooth="yes"/>
      <point x="958" y="856"/>
      <point x="758" y="1010"/>
      <point x="583" y="1010" type="curve" smooth="yes"/>
      <point x="408" y="1010"/>
      <point x="208" y="856"/>
    </contour>
    <contour>
      <point x="216" y="1480" type="line"/>
      <point x="216" y="780" type="line"/>
      <point x="247" y="896"/>
      <point x="383" y="1050"/>
      <point x="583" y="1050" type="curve" smooth="yes"/>
      <point x="830" y="1050"/>
      <point x="1003" y="832"/>
      <point x="1003" y="520" type="curve" smooth="yes"/>
      <point x="1003" y="208"/>
      <point x="830" y="-10"/>
      <point x="583" y="-10" type="curve" smooth="yes"/>
      <point x="373" y="-10"/>
      <point x="247" y="144"/>
      <point x="216" y="260" type="curve"/>
      <point x="216" y="0" type="line"/>
      <point x="171" y="0" type="line"/>
      <point x="171" y="0"/>
      <point x="171" y="110"/>
      <point x="171" y="208" type="curve"/>
      <point x="171" y="1240" type="line"/>
      <point x="0" y="1325" type="line"/>
      <point x="190" y="1480" type="line"/>
    </contour>
  </outline>
</glyph>
<glyph name="uni0186" format="2">
  <advance width="1436"/>
  <unicode hex="0186"/>
  <anchor x="655" y="0" name="bottom_right"/>
  <anchor x="545" y="-20" name="bottom_cedilla"/>
  <anchor x="549" y="0" name="bottom_center"/>
  <anchor x="792" y="1380" name="top_center"/>
  <outline>
    <contour>
      <point x="547" y="-10" type="curve" smooth="yes"/>
      <point x="974" y="-10"/>
      <point x="1312" y="443"/>
      <point x="1312" y="914" type="curve" smooth="yes"/>
      <point x="1312" y="1259"/>
      <point x="1112" y="1490"/>
      <point x="812" y="1490" type="curve" smooth="yes"/>
      <point x="577" y="1490"/>
      <point x="351" y="1348"/>
      <point x="207" y="1120" type="curve"/>
      <point x="243" y="1097" type="line"/>
      <point x="391" y="1332"/>
      <point x="621" y="1448"/>
      <point x="804" y="1448" type="curve" smooth="yes"/>
      <point x="1031" y="1448"/>
      <point x="1266" y="1270"/>
      <point x="1266" y="909" type="curve" smooth="yes"/>
      <point x="1266" y="423"/>
      <point x="913" y="32"/>
      <point x="555" y="32" type="curve" smooth="yes"/>
      <point x="372" y="32"/>
      <point x="184" y="148"/>
      <point x="118" y="383" type="curve"/>
      <point x="73" y="360" type="line"/>
      <point x="137" y="132"/>
      <point x="312" y="-10"/>
    </contour>
  </outline>
</glyph>
<glyph name="uni0187" format="2">
  <advance width="1548"/>
  <unicode hex="0187"/>
  <outline>
    <contour>
      <point x="1536" y="1490" type="curve" smooth="yes"/>
      <point x="1540" y="1490"/>
      <point x="1544" y="1490"/>
      <point x="1548" y="1489" type="curve"/>
      <point x="1548" y="1449" type="line"/>
      <point x="1544" y="1450"/>
      <point x="1540" y="1450"/>
      <point x="1536" y="1450" type="curve" smooth="yes"/>
      <point x="1381" y="1450"/>
      <point x="1271" y="1335"/>
      <point x="1271" y="1180" type="curve" smooth="yes"/>
      <point x="1271" y="1176"/>
      <point x="1271" y="1172"/>
      <point x="1272" y="1168" type="curve"/>
      <point x="1227" y="1168" type="line"/>
      <point x="1226" y="1172"/>
      <point x="1226" y="1176"/>
      <point x="1226" y="1180" type="curve" smooth="yes"/>
      <point x="1226" y="1358"/>
      <point x="1358" y="1490"/>
    </contour>
    <contour>
      <point x="1256" y="1097" type="line"/>
      <point x="1149" y="1332"/>
      <point x="940" y="1448"/>
      <point x="757" y="1448" type="curve" smooth="yes"/>
      <point x="497" y="1448"/>
      <point x="186" y="1215"/>
      <point x="186" y="740" type="curve" smooth="yes"/>
      <point x="186" y="265"/>
      <point x="497" y="32"/>
      <point x="757" y="32" type="curve" smooth="yes"/>
      <point x="940" y="32"/>
      <point x="1149" y="148"/>
      <point x="1256" y="383" type="curve"/>
      <point x="1296" y="360" type="line"/>
      <point x="1192" y="132"/>
      <point x="992" y="-10"/>
      <point x="757" y="-10" type="curve" smooth="yes"/>
      <point x="409" y="-10"/>
      <point x="140" y="301"/>
      <point x="140" y="740" type="curve" smooth="yes"/>
      <point x="140" y="1179"/>
      <point x="409" y="1490"/>
      <point x="757" y="1490" type="curve" smooth="yes"/>
      <point x="992" y="1490"/>
      <point x="1192" y="1348"/>
      <point x="1296" y="1120" type="curve"/>
    </contour>
  </outline>
</glyph>
<glyph name="uni0188" format="2">
  <advance width="1237"/>
  <unicode hex="0188"/>
  <outline>
    <contour>
      <point x="1225" y="1110" type="curve" smooth="yes"/>
      <point x="1229" y="1110"/>
      <point x="1233" y="1110"/>
      <point x="1237" y="1109" type="curve"/>
      <point x="1237" y="1069" type="line"/>
      <point x="1233" y="1070"/>
      <point x="1229" y="1070"/>
      <point x="1225" y="1070" type="curve" smooth="yes"/>
      <point x="1070" y="1070"/>
      <point x="960" y="955"/>
      <point x="960" y="800" type="curve" smooth="yes"/>
      <point x="960" y="796"/>
      <point x="960" y="792"/>
      <point x="961" y="788" type="curve"/>
      <point x="916" y="788" type="line"/>
      <point x="915" y="792"/>
      <point x="915" y="796"/>
      <point x="915" y="800" type="curve" smooth="yes"/>
      <point x="915" y="978"/>
      <point x="1047" y="1110"/>
    </contour>
    <contour>
      <point x="185" y="520" type="curve" smooth="yes"/>
      <point x="185" y="184"/>
      <point x="410" y="30"/>
      <point x="578" y="30" type="curve" smooth="yes"/>
      <point x="698" y="30"/>
      <point x="846" y="108"/>
      <point x="922" y="274" type="curve"/>
      <point x="961" y="252" type="line"/>
      <point x="887" y="90"/>
      <point x="745" y="-10"/>
      <point x="578" y="-10" type="curve" smooth="yes"/>
      <point x="331" y="-10"/>
      <point x="140" y="208"/>
      <point x="140" y="520" type="curve" smooth="yes"/>
      <point x="140" y="832"/>
      <point x="331" y="1050"/>
      <point x="578" y="1050" type="curve" smooth="yes"/>
      <point x="745" y="1050"/>
      <point x="887" y="950"/>
      <point x="961" y="788" type="curve"/>
      <point x="922" y="766" type="line"/>
      <point x="846" y="932"/>
      <point x="698" y="1010"/>
      <point x="578" y="1010" type="curve" smooth="yes"/>
      <point x="410" y="1010"/>
      <point x="185" y="856"/>
    </contour>
  </outline>
</glyph>
<glyph name="uni018A" format="2">
  <advance width="1452"/>
  <unicode hex="018A"/>
  <outline>
    <contour>
      <point x="120" y="1158" type="curve"/>
      <point x="75" y="1158" type="line"/>
      <point x="75" y="1162"/>
      <point x="75" y="1166"/>
      <point x="76" y="1170" type="curve" smooth="yes"/>
      <point x="107" y="1348"/>
      <point x="263" y="1480"/>
      <point x="441" y="1480" type="curve" smooth="yes"/>
      <point x="445" y="1480"/>
      <point x="449" y="1480"/>
      <point x="453" y="1479" type="curve"/>
      <point x="446" y="1439" type="line"/>
      <point x="442" y="1440"/>
      <point x="438" y="1440"/>
      <point x="434" y="1440" type="curve" smooth="yes"/>
      <point x="279" y="1440"/>
      <point x="148" y="1325"/>
      <point x="121" y="1170" type="curve" smooth="yes"/>
      <point x="120" y="1166"/>
      <point x="120" y="1162"/>
    </contour>
    <contour>
      <point x="603" y="42" type="line" smooth="yes"/>
      <point x="974" y="42"/>
      <point x="1283" y="450"/>
      <point x="1283" y="925" type="curve" smooth="yes"/>
      <point x="1283" y="1290"/>
      <point x="1056" y="1438"/>
      <point x="850" y="1438" type="curve" smooth="yes"/>
      <point x="480" y="1438" type="line"/>
      <point x="233" y="42" type="line"/>
    </contour>
    <contour>
      <point x="1329" y="928" type="curve" smooth="yes"/>
      <point x="1329" y="471"/>
      <point x="1033" y="0"/>
      <point x="596" y="0" type="curve" smooth="yes"/>
      <point x="180" y="0" type="line"/>
      <point x="441" y="1480" type="line"/>
      <point x="857" y="1480" type="line" smooth="yes"/>
      <point x="1142" y="1480"/>
      <point x="1329" y="1269"/>
    </contour>
  </outline>
</glyph>
<glyph name="uni018B" format="2">
  <advance width="1232"/>
  <unicode hex="018B"/>
  <outline>
    <contour>
      <point x="602" y="798" type="line" smooth="yes"/>
      <point x="256" y="798"/>
      <point x="73" y="557"/>
      <point x="73" y="319" type="curve" smooth="yes"/>
      <point x="73" y="122"/>
      <point x="218" y="0"/>
      <point x="461" y="0" type="curve" smooth="yes"/>
      <point x="922" y="0" type="line"/>
      <point x="1183" y="1480" type="line"/>
      <point x="331" y="1480" type="line"/>
      <point x="324" y="1438" type="line"/>
      <point x="1130" y="1438" type="line"/>
      <point x="1017" y="798" type="line"/>
    </contour>
    <contour>
      <point x="120" y="332" type="curve" smooth="yes"/>
      <point x="120" y="559"/>
      <point x="320" y="754"/>
      <point x="594" y="754" type="curve" smooth="yes"/>
      <point x="1009" y="754" type="line"/>
      <point x="883" y="42" type="line"/>
      <point x="468" y="42" type="line" smooth="yes"/>
      <point x="266" y="42"/>
      <point x="120" y="151"/>
    </contour>
  </outline>
</glyph>
<glyph name="uni018D" format="2">
  <advance width="1156"/>
  <unicode hex="018D"/>
  <outline>
    <contour>
      <point x="91" y="397" type="curve" smooth="yes"/>
      <point x="91" y="729"/>
      <point x="327" y="1050"/>
      <point x="633" y="1050" type="curve" smooth="yes"/>
      <point x="846" y="1050"/>
      <point x="989" y="888"/>
      <point x="989" y="643" type="curve" smooth="yes"/>
      <point x="989" y="318"/>
      <point x="763" y="0"/>
      <point x="448" y="0" type="curve"/>
      <point x="453" y="30" type="line"/>
      <point x="687" y="30"/>
      <point x="944" y="290"/>
      <point x="944" y="636" type="curve" smooth="yes"/>
      <point x="944" y="892"/>
      <point x="773" y="1010"/>
      <point x="626" y="1010" type="curve" smooth="yes"/>
      <point x="391" y="1010"/>
      <point x="136" y="750"/>
      <point x="136" y="404" type="curve" smooth="yes"/>
      <point x="136" y="149"/>
      <point x="306" y="30"/>
      <point x="453" y="30" type="curve"/>
      <point x="446" y="-10" type="line"/>
      <point x="233" y="-10"/>
      <point x="91" y="152"/>
    </contour>
    <contour>
      <point x="788" y="-167" type="curve" smooth="yes"/>
      <point x="788" y="-318"/>
      <point x="634" y="-450"/>
      <point x="329" y="-450" type="curve" smooth="yes"/>
      <point x="169" y="-450"/>
      <point x="75" y="-395"/>
      <point x="26" y="-358" type="curve"/>
      <point x="57" y="-317" type="line"/>
      <point x="107" y="-354"/>
      <point x="211" y="-410"/>
      <point x="346" y="-410" type="curve" smooth="yes"/>
      <point x="585" y="-410"/>
      <point x="742" y="-311"/>
      <point x="742" y="-173" type="curve" smooth="yes"/>
      <point x="742" y="-98"/>
      <point x="694" y="-10"/>
      <point x="446" y="-10" type="curve"/>
      <point x="453" y="30" type="line"/>
      <point x="727" y="30"/>
      <point x="788" y="-74"/>
    </contour>
  </outline>
</glyph>
<glyph name="uni018E" format="2">
  <advance width="1176"/>
  <unicode hex="018E"/>
  <anchor x="454" y="-20" name="bottom_cedilla"/>
  <anchor x="458" y="0" name="bottom_center"/>
  <anchor x="701" y="1380" name="top_center"/>
  <outline>
    <contour>
      <point x="260" y="719" type="line"/>
      <point x="267" y="761" type="line"/>
      <point x="954" y="761" type="line"/>
      <point x="1074" y="1438" type="line"/>
      <point x="304" y="1438" type="line"/>
      <point x="311" y="1480" type="line"/>
      <point x="1127" y="1480" type="line"/>
      <point x="866" y="0" type="line"/>
      <point x="50" y="0" type="line"/>
      <point x="57" y="42" type="line"/>
      <point x="827" y="42" type="line"/>
      <point x="947" y="719" type="line"/>
    </contour>
  </outline>
</glyph>
<glyph name="uni018F" format="2">
  <advance width="1466"/>
  <unicode hex="018F"/>
  <anchor x="685" y="0" name="bottom_right"/>
  <anchor x="822" y="1380" name="top_center"/>
  <anchor x="579" y="0" name="bottom_center"/>
  <anchor x="575" y="-20" name="bottom_cedilla"/>
  <outline>
    <contour>
      <point x="806" y="779" type="line" smooth="yes"/>
      <point x="637" y="779"/>
      <point x="159" y="730"/>
      <point x="159" y="329" type="curve" smooth="yes"/>
      <point x="159" y="141"/>
      <point x="331" y="32"/>
      <point x="585" y="32" type="curve" smooth="yes"/>
      <point x="943" y="32"/>
      <point x="1296" y="423"/>
      <point x="1296" y="909" type="curve" smooth="yes"/>
      <point x="1296" y="1270"/>
      <point x="1061" y="1448"/>
      <point x="834" y="1448" type="curve" smooth="yes"/>
      <point x="631" y="1448"/>
      <point x="391" y="1332"/>
      <point x="243" y="1097" type="curve"/>
      <point x="207" y="1120" type="line"/>
      <point x="351" y="1348"/>
      <point x="587" y="1490"/>
      <point x="842" y="1490" type="curve" smooth="yes"/>
      <point x="1142" y="1490"/>
      <point x="1342" y="1259"/>
      <point x="1342" y="914" type="curve" smooth="yes"/>
      <point x="1342" y="443"/>
      <point x="1004" y="-10"/>
      <point x="577" y="-10" type="curve" smooth="yes"/>
      <point x="267" y="-10"/>
      <point x="112" y="117"/>
      <point x="112" y="315" type="curve" smooth="yes"/>
      <point x="112" y="448"/>
      <point x="169" y="821"/>
      <point x="814" y="821" type="curve" smooth="yes"/>
      <point x="1317" y="821" type="line"/>
      <point x="1309" y="779" type="line"/>
    </contour>
  </outline>
</glyph>
<glyph name="uni0190" format="2">
  <advance width="1176"/>
  <unicode hex="0190"/>
  <anchor x="572" y="0" name="bottom_right"/>
  <anchor x="457" y="-20" name="bottom_cedilla"/>
  <anchor x="461" y="0" name="bottom_center"/>
  <anchor x="704" y="1380" name="top_center"/>
  <outline>
    <contour>
      <point x="118.512" y="322.937" type="curve" smooth="yes"/>
      <point x="118.512" y="597.102"/>
      <point x="385.826" y="756"/>
      <point x="594" y="756" type="curve" smooth="yes"/>
      <point x="678" y="756" type="line"/>
      <point x="685" y="796" type="line"/>
      <point x="601" y="796" type="line" smooth="yes"/>
      <point x="422.512" y="796"/>
      <point x="300.572" y="900.335"/>
      <point x="300.572" y="1061.38" type="curve" smooth="yes"/>
      <point x="300.572" y="1256.9"/>
      <point x="458.29" y="1448"/>
      <point x="716" y="1448" type="curve" smooth="yes"/>
      <point x="913.565" y="1448"/>
      <point x="1039.43" y="1348.54"/>
      <point x="1039.43" y="1166.55" type="curve" smooth="yes"/>
      <point x="1039.43" y="1141.28"/>
      <point x="1037" y="1114.41"/>
      <point x="1032" y="1086" type="curve"/>
      <point x="1081" y="1099" type="line"/>
      <point x="1085.08" y="1125.26"/>
      <point x="1087.09" y="1150.48"/>
      <point x="1087.09" y="1174.58" type="curve" smooth="yes"/>
      <point x="1087.09" y="1368.9"/>
      <point x="956.205" y="1490"/>
      <point x="724" y="1490" type="curve" smooth="yes"/>
      <point x="418.663" y="1490"/>
      <point x="253.964" y="1272.8"/>
      <point x="253.964" y="1048.45" type="curve" smooth="yes"/>
      <point x="253.964" y="876.62"/>
      <point x="366.203" y="788.272"/>
      <point x="460" y="776" type="curve"/>
      <point x="299.318" y="743.319"/>
      <point x="72.0132" y="577.777"/>
      <point x="72.0132" y="313.492" type="curve" smooth="yes"/>
      <point x="72.0132" y="114.554"/>
      <point x="223.856" y="-10"/>
      <point x="459" y="-10" type="curve" smooth="yes"/>
      <point x="720" y="-10"/>
      <point x="926" y="143"/>
      <point x="973" y="381" type="curve"/>
      <point x="929" y="394" type="line"/>
      <point x="888" y="161"/>
      <point x="692" y="32"/>
      <point x="467" y="32" type="curve" smooth="yes"/>
      <point x="266.03" y="32"/>
      <point x="118.512" y="134.917"/>
    </contour>
  </outline>
</glyph>
<glyph name="uni0191" format="2">
  <advance width="1272"/>
  <unicode hex="0191"/>
  <outline>
    <contour>
      <point x="-177" y="-269" type="line"/>
      <point x="-173" y="-270"/>
      <point x="-170" y="-270"/>
      <point x="-166" y="-270" type="curve" smooth="yes"/>
      <point x="-11" y="-270"/>
      <point x="119" y="-155"/>
      <point x="146" y="0" type="curve"/>
      <point x="192" y="0" type="line"/>
      <point x="161" y="-178"/>
      <point x="5" y="-310"/>
      <point x="-173" y="-310" type="curve" smooth="yes"/>
      <point x="-177" y="-310"/>
      <point x="-180" y="-310"/>
      <point x="-184" y="-309" type="curve"/>
    </contour>
    <contour>
      <point x="222" y="168" type="line"/>
      <point x="192" y="0" type="line"/>
      <point x="146" y="0" type="line"/>
      <point x="407" y="1480" type="line"/>
      <point x="1223" y="1480" type="line"/>
      <point x="1216" y="1438" type="line"/>
      <point x="446" y="1438" type="line"/>
      <point x="326" y="761" type="line"/>
      <point x="1013" y="761" type="line"/>
      <point x="1006" y="719" type="line"/>
      <point x="319" y="719" type="line"/>
    </contour>
  </outline>
</glyph>
<glyph name="florin" format="2">
  <advance width="772"/>
  <unicode hex="0192"/>
  <outline>
    <contour>
      <point x="-140" y="-269" type="line"/>
      <point x="-136" y="-270"/>
      <point x="-133" y="-270"/>
      <point x="-129" y="-270" type="curve" smooth="yes"/>
      <point x="26" y="-270"/>
      <point x="157" y="-155"/>
      <point x="184" y="0" type="curve"/>
      <point x="229" y="0" type="line"/>
      <point x="198" y="-178"/>
      <point x="42" y="-310"/>
      <point x="-136" y="-310" type="curve" smooth="yes"/>
      <point x="-140" y="-310"/>
      <point x="-143" y="-310"/>
      <point x="-147" y="-309" type="curve"/>
    </contour>
    <contour>
      <point x="808" y="1415" type="line"/>
      <point x="774" y="1443"/>
      <point x="721" y="1450"/>
      <point x="683" y="1450" type="curve" smooth="yes"/>
      <point x="593" y="1450"/>
      <point x="479" y="1420"/>
      <point x="437" y="1180" type="curve" smooth="yes"/>
      <point x="412" y="1040" type="line"/>
      <point x="718" y="1040" type="line"/>
      <point x="711" y="1000" type="line"/>
      <point x="405" y="1000" type="line"/>
      <point x="229" y="0" type="line"/>
      <point x="184" y="0" type="line"/>
      <point x="360" y="1000" type="line"/>
      <point x="116" y="1000" type="line"/>
      <point x="123" y="1040" type="line"/>
      <point x="367" y="1040" type="line"/>
      <point x="392" y="1180" type="line" smooth="yes"/>
      <point x="427" y="1380"/>
      <point x="514" y="1490"/>
      <point x="690" y="1490" type="curve" smooth="yes"/>
      <point x="739" y="1490"/>
      <point x="792" y="1476"/>
      <point x="829" y="1458" type="curve"/>
    </contour>
  </outline>
</glyph>
<glyph name="uni0193" format="2">
  <advance width="1548"/>
  <unicode hex="0193"/>
  <outline>
    <contour>
      <point x="1669" y="1490" type="curve" smooth="yes"/>
      <point x="1673" y="1490"/>
      <point x="1677" y="1490"/>
      <point x="1681" y="1489" type="curve"/>
      <point x="1673" y="1449" type="line"/>
      <point x="1669" y="1450"/>
      <point x="1666" y="1450"/>
      <point x="1662" y="1450" type="curve" smooth="yes"/>
      <point x="1507" y="1450"/>
      <point x="1376" y="1335"/>
      <point x="1349" y="1180" type="curve" smooth="yes"/>
      <point x="1348" y="1176"/>
      <point x="1348" y="1172"/>
      <point x="1348" y="1168" type="curve"/>
      <point x="1303" y="1168" type="line"/>
      <point x="1303" y="1172"/>
      <point x="1303" y="1176"/>
      <point x="1304" y="1180" type="curve" smooth="yes"/>
      <point x="1335" y="1358"/>
      <point x="1491" y="1490"/>
    </contour>
    <contour>
      <point x="124" y="567" type="curve" smooth="yes"/>
      <point x="124" y="1039"/>
      <point x="463" y="1490"/>
      <point x="890" y="1490" type="curve" smooth="yes"/>
      <point x="1125" y="1490"/>
      <point x="1299" y="1348"/>
      <point x="1363" y="1120" type="curve"/>
      <point x="1319" y="1097" type="line"/>
      <point x="1253" y="1332"/>
      <point x="1065" y="1448"/>
      <point x="882" y="1448" type="curve" smooth="yes"/>
      <point x="525" y="1448"/>
      <point x="170" y="1057"/>
      <point x="170" y="571" type="curve" smooth="yes"/>
      <point x="170" y="209"/>
      <point x="406" y="32"/>
      <point x="633" y="32" type="curve" smooth="yes"/>
      <point x="816" y="32"/>
      <point x="1046" y="148"/>
      <point x="1194" y="383" type="curve"/>
      <point x="1229" y="360" type="line"/>
      <point x="1085" y="132"/>
      <point x="860" y="-10"/>
      <point x="625" y="-10" type="curve" smooth="yes"/>
      <point x="325" y="-10"/>
      <point x="124" y="222"/>
    </contour>
    <contour>
      <point x="757" y="740" type="line"/>
      <point x="1302" y="740" type="line"/>
      <point x="1172" y="0" type="line"/>
      <point x="1126" y="0" type="line"/>
      <point x="1184" y="327" type="line"/>
      <point x="1188" y="353" type="line"/>
      <point x="1249" y="698" type="line"/>
      <point x="750" y="698" type="line"/>
    </contour>
  </outline>
</glyph>
<glyph name="uni0194" format="2">
  <advance width="1350"/>
  <unicode hex="0194"/>
  <outline>
    <contour>
      <point x="817.129" y="-68.5406" type="curve" smooth="yes"/>
      <point x="817.129" y="-279.995"/>
      <point x="642.223" y="-460"/>
      <point x="464" y="-460" type="curve" smooth="yes"/>
      <point x="325.189" y="-460"/>
      <point x="224.683" y="-348.997"/>
      <point x="224.683" y="-200.253" type="curve" smooth="yes"/>
      <point x="224.683" y="-176.182"/>
      <point x="225.914" y="-82.9995"/>
      <point x="283" y="0" type="curve" smooth="yes"/>
      <point x="587" y="442" type="line"/>
      <point x="271" y="1480" type="line"/>
      <point x="320" y="1480" type="line"/>
      <point x="629" y="479" type="line"/>
      <point x="1292" y="1480" type="line"/>
      <point x="1341" y="1480" type="line"/>
      <point x="659" y="442" type="line"/>
      <point x="807" y="0" type="line" smooth="yes"/>
      <point x="814.153" y="-21.4585"/>
      <point x="817.129" y="-44.4832"/>
    </contour>
    <contour>
      <point x="471" y="-418" type="curve" smooth="yes"/>
      <point x="602.919" y="-418"/>
      <point x="769.662" y="-278.669"/>
      <point x="769.662" y="-76.7407" type="curve" smooth="yes"/>
      <point x="769.662" y="-50.8444"/>
      <point x="766.142" y="-24.1355"/>
      <point x="758" y="0" type="curve" smooth="yes"/>
      <point x="618" y="415" type="line"/>
      <point x="332" y="0" type="line" smooth="yes"/>
      <point x="310.396" y="-32.4065"/>
      <point x="271.129" y="-107.456"/>
      <point x="271.129" y="-194.327" type="curve" smooth="yes"/>
      <point x="271.129" y="-329.302"/>
      <point x="365.57" y="-418"/>
    </contour>
  </outline>
</glyph>
<glyph name="uni0195" format="2">
  <advance width="1815"/>
  <unicode hex="0195"/>
  <outline>
    <contour>
      <point x="1645.76" y="662.205" type="curve" smooth="yes"/>
      <point x="1645.76" y="547.586"/>
      <point x="1621.92" y="-10"/>
      <point x="1158" y="-10" type="curve" smooth="yes"/>
      <point x="967.137" y="-10"/>
      <point x="843.548" y="86.7056"/>
      <point x="843.548" y="317.661" type="curve" smooth="yes"/>
      <point x="843.548" y="362.599"/>
      <point x="848.409" y="412.588"/>
      <point x="858" y="468" type="curve" smooth="yes"/>
      <point x="876" y="572"/>
      <point x="876" y="572"/>
      <point x="876" y="572" type="curve" smooth="yes"/>
      <point x="884.522" y="619.852"/>
      <point x="889.653" y="667.703"/>
      <point x="889.653" y="713.27" type="curve" smooth="yes"/>
      <point x="889.653" y="876.248"/>
      <point x="824.005" y="1010"/>
      <point x="613" y="1010" type="curve" smooth="yes"/>
      <point x="343" y="1010"/>
      <point x="235" y="791"/>
      <point x="196" y="572" type="curve" smooth="yes"/>
      <point x="95" y="0" type="line"/>
      <point x="50" y="0" type="line"/>
      <point x="311" y="1480" type="line"/>
      <point x="356" y="1480" type="line"/>
      <point x="240" y="820" type="line"/>
      <point x="296" y="927"/>
      <point x="400" y="1050"/>
      <point x="630" y="1050" type="curve" smooth="yes"/>
      <point x="826.835" y="1050"/>
      <point x="935.436" y="941.929"/>
      <point x="935.436" y="723.524" type="curve" smooth="yes"/>
      <point x="935.436" y="677.848"/>
      <point x="930.582" y="627.365"/>
      <point x="921" y="572" type="curve" smooth="yes"/>
      <point x="903" y="468"/>
      <point x="903" y="468"/>
      <point x="903" y="468" type="curve" smooth="yes"/>
      <point x="894.218" y="417.838"/>
      <point x="890.155" y="372.95"/>
      <point x="890.155" y="332.876" type="curve" smooth="yes"/>
      <point x="890.155" y="103.722"/>
      <point x="1023.01" y="32"/>
      <point x="1166" y="32" type="curve" smooth="yes"/>
      <point x="1498.42" y="32"/>
      <point x="1599.77" y="387.29"/>
      <point x="1599.77" y="650.43" type="curve" smooth="yes"/>
      <point x="1599.77" y="822.609"/>
      <point x="1551.6" y="946.642"/>
      <point x="1504" y="1029" type="curve"/>
      <point x="1546" y="1051" type="line"/>
      <point x="1590.33" y="981.447"/>
      <point x="1645.76" y="852.89"/>
    </contour>
  </outline>
</glyph>
<glyph name="uni0196" format="2">
  <advance width="608"/>
  <unicode hex="0196"/>
  <anchor x="293" y="0" name="bottom_center"/>
  <anchor x="316" y="1380" name="top_center"/>
  <outline>
    <contour>
      <point x="291" y="-10" type="curve" smooth="yes"/>
      <point x="150.508" y="-10"/>
      <point x="92.2152" y="60.0924"/>
      <point x="92.2152" y="190.104" type="curve" smooth="yes"/>
      <point x="92.2152" y="222.963"/>
      <point x="95.9388" y="259.65"/>
      <point x="103" y="300" type="curve" smooth="yes"/>
      <point x="136" y="490" type="line"/>
      <point x="311" y="1480" type="line"/>
      <point x="356" y="1480" type="line"/>
      <point x="181" y="490" type="line"/>
      <point x="148" y="300" type="line" smooth="yes"/>
      <point x="141.295" y="261.687"/>
      <point x="138.26" y="228.726"/>
      <point x="138.26" y="200.384" type="curve" smooth="yes"/>
      <point x="138.26" y="51.1863"/>
      <point x="222.367" y="30"/>
      <point x="298" y="30" type="curve" smooth="yes"/>
      <point x="336" y="30"/>
      <point x="391" y="37"/>
      <point x="435" y="65" type="curve"/>
      <point x="442" y="22" type="line"/>
      <point x="409" y="2"/>
      <point x="340" y="-10"/>
    </contour>
  </outline>
</glyph>
<glyph name="uni0197" format="2">
  <advance width="822"/>
  <unicode hex="0197"/>
  <anchor x="524" y="1380" name="top_center"/>
  <anchor x="281" y="0" name="bottom_center"/>
  <anchor x="305" y="0" name="bottom_right"/>
  <anchor x="276" y="-20" name="bottom_cedilla"/>
  <outline>
    <contour>
      <point x="672" y="719" type="line"/>
      <point x="144" y="719" type="line"/>
      <point x="151" y="761" type="line"/>
      <point x="679" y="761" type="line"/>
    </contour>
    <contour>
      <point x="311" y="1480" type="line"/>
      <point x="773" y="1480" type="line"/>
      <point x="766" y="1438" type="line"/>
      <point x="559" y="1438" type="line"/>
      <point x="312" y="42" type="line"/>
      <point x="519" y="42" type="line"/>
      <point x="512" y="0" type="line"/>
      <point x="50" y="0" type="line"/>
      <point x="57" y="42" type="line"/>
      <point x="264" y="42" type="line"/>
      <point x="511" y="1438" type="line"/>
      <point x="304" y="1438" type="line"/>
    </contour>
  </outline>
</glyph>
<glyph name="uni0199" format="2">
  <advance width="1069"/>
  <unicode hex="0199"/>
  <outline>
    <contour>
      <point x="427" y="601" type="line"/>
      <point x="463" y="630" type="line"/>
      <point x="799" y="0" type="line"/>
      <point x="747" y="0" type="line"/>
    </contour>
    <contour>
      <point x="258" y="1180" type="line"/>
      <point x="289" y="1358"/>
      <point x="445" y="1490"/>
      <point x="623" y="1490" type="curve"/>
      <point x="627" y="1490"/>
      <point x="631" y="1490"/>
      <point x="635" y="1489" type="curve"/>
      <point x="627" y="1449" type="line"/>
      <point x="623" y="1450"/>
      <point x="620" y="1450"/>
      <point x="616" y="1450" type="curve"/>
      <point x="461" y="1450"/>
      <point x="330" y="1335"/>
      <point x="303" y="1180" type="curve"/>
      <point x="165" y="398" type="line"/>
      <point x="920" y="1040" type="line"/>
      <point x="973" y="1040"/>
      <point x="925" y="1040"/>
      <point x="978" y="1040" type="curve"/>
      <point x="155" y="340" type="line"/>
      <point x="95" y="0" type="line"/>
      <point x="50" y="0" type="line"/>
    </contour>
  </outline>
</glyph>
<glyph name="uni019A" format="2">
  <advance width="594"/>
  <unicode hex="019A"/>
  <outline>
    <contour>
      <point x="516" y="720" type="line"/>
      <point x="-9" y="720" type="line"/>
      <point x="-2" y="760" type="line"/>
      <point x="523" y="760" type="line"/>
    </contour>
    <contour>
      <point x="190" y="230" type="line" smooth="yes"/>
      <point x="186.323" y="209.455"/>
      <point x="184.646" y="191.014"/>
      <point x="184.646" y="174.463" type="curve" smooth="yes"/>
      <point x="184.646" y="37.9543"/>
      <point x="298.731" y="30"/>
      <point x="346" y="30" type="curve" smooth="yes"/>
      <point x="360" y="30"/>
      <point x="388" y="36"/>
      <point x="423" y="56" type="curve"/>
      <point x="426" y="14" type="line"/>
      <point x="398" y="-3"/>
      <point x="367" y="-10"/>
      <point x="339" y="-10" type="curve" smooth="yes"/>
      <point x="211.072" y="-10"/>
      <point x="138.423" y="40.9153"/>
      <point x="138.423" y="161.356" type="curve" smooth="yes"/>
      <point x="138.423" y="182.136"/>
      <point x="140.586" y="204.985"/>
      <point x="145" y="230" type="curve" smooth="yes"/>
      <point x="365" y="1480" type="line"/>
      <point x="410" y="1480" type="line"/>
    </contour>
  </outline>
</glyph>
<glyph name="uni019B" format="2">
  <advance width="1102"/>
  <unicode hex="019B"/>
  <outline>
    <contour>
      <point x="514" y="1398" type="line"/>
      <point x="603" y="1445" type="line"/>
      <point x="589" y="1480" type="line"/>
      <point x="498" y="1432" type="line"/>
      <point x="234" y="1294" type="line"/>
      <point x="248" y="1259" type="line"/>
    </contour>
    <contour>
      <point x="463" y="1352" type="line"/>
      <point x="444" y="1449"/>
      <point x="380" y="1490"/>
      <point x="265" y="1490" type="curve" smooth="yes"/>
      <point x="237" y="1490"/>
      <point x="205" y="1483"/>
      <point x="177" y="1466" type="curve"/>
      <point x="181" y="1424" type="line"/>
      <point x="216" y="1444"/>
      <point x="244" y="1450"/>
      <point x="258" y="1450" type="curve" smooth="yes"/>
      <point x="301" y="1450"/>
      <point x="398" y="1443"/>
      <point x="419" y="1336" type="curve"/>
      <point x="473" y="1040" type="line"/>
      <point x="-90" y="0" type="line"/>
      <point x="-42" y="0" type="line"/>
      <point x="489" y="984" type="line"/>
      <point x="649" y="128" type="line"/>
      <point x="668" y="31"/>
      <point x="732" y="-10"/>
      <point x="847" y="-10" type="curve" smooth="yes"/>
      <point x="875" y="-10"/>
      <point x="906" y="-3"/>
      <point x="934" y="14" type="curve"/>
      <point x="931" y="56" type="line"/>
      <point x="896" y="36"/>
      <point x="868" y="30"/>
      <point x="854" y="30" type="curve" smooth="yes"/>
      <point x="811" y="30"/>
      <point x="714" y="37"/>
      <point x="693" y="144" type="curve"/>
    </contour>
  </outline>
</glyph>
